<svg xmlns="http://www.w3.org/2000/svg" width="54.361" height="62" viewBox="0 0 54.361 62">
  <g id="Group_119" data-name="Group 119" transform="translate(-1105.496 -2060.265)">
    <g id="businessman" transform="translate(1105.496 2060.265)">
      <g id="Group_118" data-name="Group 118">
        <g id="Group_117" data-name="Group 117">
          <g id="Group_116" data-name="Group 116">
            <path id="Path_50" data-name="Path 50" d="M82.713,300.665a10.908,10.908,0,0,0-7.372-8.553l-8.6-2.843V288h-2v1.86l-1.493,5.92L59.2,290.974H56.268l-4.039,4.806-1.492-5.92V288h-2v1.268l-8.6,2.843a10.912,10.912,0,0,0-7.372,8.553l-2.2,13.113H84.917ZM52.87,311.795H41.842l.89-8.824-1.99-.2-.91,9.022H32.918l1.816-10.8a8.927,8.927,0,0,1,6.032-7l8.263-2.731,2.216,8.787,2.255-2.683,1.193,1.775Zm7.714,0H54.89l1.891-13.124-1.946-2.894,2.37-2.82h1.063l2.37,2.82-1.946,2.894Zm15.058,0-.91-9.022-1.99.2.89,8.824H62.6L60.781,299.14l1.193-1.775,2.255,2.683,2.216-8.787,8.263,2.731a8.927,8.927,0,0,1,6.032,7l1.816,10.8Z" transform="translate(-30.556 -251.777)" fill="#b2b8bc"/>
            <path id="Path_51" data-name="Path 51" d="M116.469,26.713a10.809,10.809,0,0,0,2.794,4.652l3.92,3.867a5.026,5.026,0,0,0,3.553,1.451h4.711A5.028,5.028,0,0,0,135,35.232l3.92-3.867a10.815,10.815,0,0,0,2.794-4.652,4.973,4.973,0,0,0,4.464-4.9,4.919,4.919,0,0,0-2.041-3.966h.031V11.9A4.987,4.987,0,0,0,139.892,7a10.75,10.75,0,0,0-10.077-7h-.724a14.992,14.992,0,0,0-15.077,14.872v2.974h.031A4.918,4.918,0,0,0,112,21.812,4.973,4.973,0,0,0,116.469,26.713Zm23.679-3.061a8.8,8.8,0,0,1-2.65,6.311l-3.92,3.867a3.057,3.057,0,0,1-2.132.87h-4.711a3.059,3.059,0,0,1-2.132-.87l-3.92-3.867a8.8,8.8,0,0,1-2.65-6.31V18.837h3.949a18.179,18.179,0,0,0,11.911-4.388l.308.506a8.159,8.159,0,0,0,5.946,3.816Zm4.02-1.841a2.972,2.972,0,0,1-2.057,2.806c.028-.318.047-.639.047-.964V19.02A2.973,2.973,0,0,1,144.168,21.812Zm-28.144-6.94A12.994,12.994,0,0,1,129.091,1.983h.724A8.717,8.717,0,0,1,138.176,8.2l.208.719h.758a3,3,0,0,1,3.015,2.974v5.057a5.088,5.088,0,0,0-1.005-.1,6.145,6.145,0,0,1-5.228-2.92l-1.609-2.645-.911.9a16.159,16.159,0,0,1-11.421,4.667H117.03a5.088,5.088,0,0,0-1.005.1Zm0,4.148v4.634c0,.324.019.645.047.965a2.944,2.944,0,0,1-.047-5.6Z" transform="translate(-101.91)" fill="#b2b8bc"/>
          </g>
        </g>
      </g>
    </g>
  </g>
</svg>
