<svg xmlns="http://www.w3.org/2000/svg" width="64.434" height="61.999" viewBox="0 0 64.434 61.999">
  <g id="hotel" transform="translate(0 -9.599)">
    <g id="LINES_42_" transform="translate(0 9.599)">
      <path id="Path_75" data-name="Path 75" d="M188.687,165.4h1.9v1.9h-1.9Z" transform="translate(-164.754 -145.639)" fill="#b2b8bc"/>
      <path id="Path_76" data-name="Path 76" d="M53.206,29.361,36.929,17.193a5.26,5.26,0,1,0-9.423,0L11.228,29.361H0V71.6H64.434V29.361ZM32.217,11.5a3.357,3.357,0,1,1-3.357,3.357A3.361,3.361,0,0,1,32.217,11.5ZM62.531,69.7H1.9V31.263H22.03v-1.9H14.405L28.646,18.716a5.247,5.247,0,0,0,7.143,0L50.029,29.361H27.738v1.9H62.531Z" transform="translate(0 -9.599)" fill="#b2b8bc"/>
      <path id="Path_77" data-name="Path 77" d="M36.876,195.4v.951a5.931,5.931,0,0,1-5.924,5.924H30v20.876h.951a5.931,5.931,0,0,1,5.924,5.924v.951H66.87v-1.9H38.721a7.842,7.842,0,0,0-6.818-6.818V204.122a7.842,7.842,0,0,0,6.818-6.818H78.1a7.842,7.842,0,0,0,6.818,6.818v17.186a7.842,7.842,0,0,0-6.818,6.818H72.578v1.9h7.37v-.951a5.931,5.931,0,0,1,5.924-5.924h.951V202.277h-.951a5.931,5.931,0,0,1-5.924-5.924V195.4Z" transform="translate(-26.195 -171.834)" fill="#b2b8bc"/>
      <path id="Path_78" data-name="Path 78" d="M335.687,453.4h1.9v1.9h-1.9Z" transform="translate(-293.109 -397.11)" fill="#b2b8bc"/>
      <path id="Path_79" data-name="Path 79" d="M47.964,209.4h1.9v1.9h-1.9Z" transform="translate(-41.88 -184.058)" fill="#b2b8bc"/>
      <path id="Path_80" data-name="Path 80" d="M449.939,209.4h1.9v1.9h-1.9Z" transform="translate(-392.87 -184.058)" fill="#b2b8bc"/>
      <path id="Path_81" data-name="Path 81" d="M254.464,40.016h1.9v1.9h-1.9Z" transform="translate(-222.188 -36.158)" fill="#b2b8bc"/>
      <path id="Path_82" data-name="Path 82" d="M47.964,438.4h1.9v1.9h-1.9Z" transform="translate(-41.88 -384.013)" fill="#b2b8bc"/>
      <path id="Path_83" data-name="Path 83" d="M449.939,438.4h1.9v1.9h-1.9Z" transform="translate(-392.87 -384.013)" fill="#b2b8bc"/>
      <path id="Path_84" data-name="Path 84" d="M111.632,305.371v-9.017h-1.858v3.654h-3.623v-3.654h-1.858v9.017h1.858v-3.865h3.623v3.865Z" transform="translate(-91.065 -259.983)" fill="#b2b8bc"/>
      <path id="Path_85" data-name="Path 85" d="M178.642,295.92a3.975,3.975,0,0,0-4.007,0,3.574,3.574,0,0,0-1.356,1.555,5.415,5.415,0,0,0-.48,2.344v.446a5.287,5.287,0,0,0,.489,2.3,3.579,3.579,0,0,0,1.362,1.539,3.98,3.98,0,0,0,4.01-.006,3.545,3.545,0,0,0,1.347-1.548,5.443,5.443,0,0,0,.471-2.335v-.4a5.4,5.4,0,0,0-.48-2.338A3.573,3.573,0,0,0,178.642,295.92Zm-.046,4.326a3.819,3.819,0,0,1-.508,2.14,1.778,1.778,0,0,1-2.9-.028,3.841,3.841,0,0,1-.508-2.143v-.44a3.75,3.75,0,0,1,.514-2.134,1.794,1.794,0,0,1,2.892.009,3.8,3.8,0,0,1,.508,2.155v.44Z" transform="translate(-150.881 -259.13)" fill="#b2b8bc"/>
      <path id="Path_86" data-name="Path 86" d="M240.028,305.371v-7.513h2.762v-1.5h-7.345v1.5h2.725v7.513Z" transform="translate(-205.582 -259.983)" fill="#b2b8bc"/>
      <path id="Path_87" data-name="Path 87" d="M307.737,297.859v-1.5h-6.032v9.017h6.045v-1.493h-4.187v-2.415h3.567v-1.456h-3.567v-2.149Z" transform="translate(-263.437 -259.983)" fill="#b2b8bc"/>
      <path id="Path_88" data-name="Path 88" d="M357.955,296.354v9.017h5.8v-1.493h-3.945v-7.525Z" transform="translate(-312.553 -259.983)" fill="#b2b8bc"/>
      <path id="Path_89" data-name="Path 89" d="M379.361,255.683h1.9v1.9h-1.9Z" transform="translate(-331.244 -224.47)" fill="#b2b8bc"/>
      <path id="Path_90" data-name="Path 90" d="M104.293,255.683H137.28v1.9H104.293Z" transform="translate(-91.065 -224.47)" fill="#b2b8bc"/>
      <path id="Path_91" data-name="Path 91" d="M104.293,393.119H142.27v1.9H104.293Z" transform="translate(-91.065 -344.474)" fill="#b2b8bc"/>
    </g>
  </g>
</svg>
