<svg xmlns="http://www.w3.org/2000/svg" width="62" height="62" viewBox="0 0 62 62">
  <g id="list" transform="translate(0 -0.002)">
    <g id="Group_174" data-name="Group 174" transform="translate(0 0.002)">
      <path id="Path_97" data-name="Path 97" d="M295.76,7.606h-4.994v-1.2a2.1,2.1,0,0,0-2.094-2.094h-1.445a3.947,3.947,0,1,0-7.876-.364c0,.121.006.243.017.364h-1.445a2.1,2.1,0,0,0-2.094,2.094v1.2h-4.994A2.1,2.1,0,0,0,268.74,9.7v5.118a.9.9,0,1,0,1.8,0V9.7a.3.3,0,0,1,.3-.3h4.994v.441a2.1,2.1,0,0,0,2.094,2.094h10.749a2.1,2.1,0,0,0,2.094-2.094V9.4h4.994a.3.3,0,0,1,.3.3v9.887a.9.9,0,0,0,1.8,0V9.7a2.1,2.1,0,0,0-2.094-2.094Zm-6.789,2.236a.3.3,0,0,1-.3.3H277.923a.3.3,0,0,1-.3-.3V6.407a.3.3,0,0,1,.3-.3h1.633a1.635,1.635,0,0,0,1.239-.567,1.6,1.6,0,0,0,.374-1.281,2.131,2.131,0,0,1-.023-.311,2.151,2.151,0,1,1,4.279.316,1.6,1.6,0,0,0,.37,1.279,1.62,1.62,0,0,0,1.229.564h1.647a.3.3,0,0,1,.3.3V9.842Z" transform="translate(-235.854 -0.002)" fill="#b2b8bc"/>
      <path id="Path_98" data-name="Path 98" d="M61.092,137.132a.91.91,0,0,0-.908.912v19.188a.3.3,0,0,1-.3.3H34.662a.3.3,0,0,1-.3-.3V149.2a.908.908,0,1,0-1.816,0v8.032a2.126,2.126,0,0,0,2.119,2.128H47.994v13.666a1.518,1.518,0,0,1-1.514,1.52h-3.6V162.772a.908.908,0,1,0-1.816,0v11.773H37.2V162.772a.908.908,0,1,0-1.816,0v11.773H14.045V141.184h18.5v3.668a.908.908,0,1,0,1.816,0v-9.159a5.77,5.77,0,0,0-5.752-5.775H21.141a5.77,5.77,0,0,0-5.752,5.775v3.667H3.33A3.34,3.34,0,0,0,0,142.7v13.623a.908.908,0,1,0,1.816,0V142.7a1.518,1.518,0,0,1,1.514-1.52H6.541v33.362H3.33a1.518,1.518,0,0,1-1.514-1.52V160.8A.908.908,0,1,0,0,160.8v12.223a3.34,3.34,0,0,0,3.33,3.343H46.48a3.341,3.341,0,0,0,3.33-3.343V159.36H59.881A2.126,2.126,0,0,0,62,157.232V138.044A.91.91,0,0,0,61.092,137.132Zm-52.735,13.8h3.871v4.479H8.357ZM28.469,139.36H21.279v-3.224a.3.3,0,0,1,.3-.3h6.584a.3.3,0,0,1,.3.3Zm-11.264-3.667a3.948,3.948,0,0,1,3.936-3.951h7.467a3.948,3.948,0,0,1,3.936,3.951v3.667H30.285v-3.224a2.126,2.126,0,0,0-2.119-2.128H21.582a2.126,2.126,0,0,0-2.119,2.128v3.224H17.205Zm-4.977,5.491v7.928H8.357v-7.928ZM8.357,174.546V157.238h3.871v17.307Z" transform="translate(0 -114.369)" fill="#b2b8bc"/>
      <path id="Path_99" data-name="Path 99" d="M319.955,134.876a.9.9,0,0,0-1.27,0l-1.706,1.706-.536-.536a.9.9,0,1,0-1.27,1.269l1.17,1.17a.9.9,0,0,0,1.27,0l2.341-2.341A.9.9,0,0,0,319.955,134.876Z" transform="translate(-276.735 -118.299)" fill="#b2b8bc"/>
      <path id="Path_100" data-name="Path 100" d="M379.9,146.188h8.6a.9.9,0,1,0,0-1.8h-8.6a.9.9,0,0,0,0,1.8Z" transform="translate(-332.924 -126.902)" fill="#b2b8bc"/>
      <path id="Path_101" data-name="Path 101" d="M318.685,180.418l-1.706,1.706-.536-.536a.9.9,0,0,0-1.269,1.269l1.17,1.171a.9.9,0,0,0,1.27,0l2.341-2.341a.9.9,0,0,0-1.27-1.269Z" transform="translate(-276.734 -158.321)" fill="#b2b8bc"/>
      <path id="Path_102" data-name="Path 102" d="M379.9,191.729h8.6a.9.9,0,1,0,0-1.8h-8.6a.9.9,0,0,0,0,1.8Z" transform="translate(-332.924 -166.926)" fill="#b2b8bc"/>
      <path id="Path_103" data-name="Path 103" d="M315.174,228.4l1.17,1.17a.9.9,0,0,0,1.27,0l2.341-2.341a.9.9,0,0,0-1.27-1.269l-1.706,1.706-.536-.536a.9.9,0,0,0-1.27,1.269Z" transform="translate(-276.735 -198.343)" fill="#b2b8bc"/>
      <path id="Path_104" data-name="Path 104" d="M379.9,237.271h8.6a.9.9,0,1,0,0-1.8h-8.6a.9.9,0,0,0,0,1.8Z" transform="translate(-332.924 -206.951)" fill="#b2b8bc"/>
      <path id="Path_105" data-name="Path 105" d="M318.685,271.5l-1.706,1.706-.536-.536a.9.9,0,0,0-1.269,1.269l1.17,1.171a.9.9,0,0,0,1.27,0l2.341-2.341a.9.9,0,0,0-1.27-1.269Z" transform="translate(-276.734 -238.365)" fill="#b2b8bc"/>
      <path id="Path_106" data-name="Path 106" d="M379.9,282.813h8.6a.9.9,0,1,0,0-1.8h-8.6a.9.9,0,0,0,0,1.8Z" transform="translate(-332.924 -246.977)" fill="#b2b8bc"/>
    </g>
  </g>
</svg>
