<svg xmlns="http://www.w3.org/2000/svg" width="59.202" height="62" viewBox="0 0 59.202 62">
  <g id="passport" transform="translate(-10.585)">
    <g id="Group_159" data-name="Group 159" transform="translate(16.986 17.615)">
      <g id="Group_158" data-name="Group 158">
        <path id="Path_73" data-name="Path 73" d="M71.388,134.152a12.8,12.8,0,1,0,12.8,12.8A12.8,12.8,0,0,0,71.388,134.152Zm9.475,8H76.248a20.726,20.726,0,0,0-1.834-5.377A10.648,10.648,0,0,1,80.862,142.154Zm-6.274,4.8a22.683,22.683,0,0,1-.169,2.667H68.357a21.153,21.153,0,0,1,0-5.334h6.066A22.924,22.924,0,0,1,74.588,146.955Zm-3.511-10.638c.105,0,.2-.031.31-.031s.207.029.314.032a17.729,17.729,0,0,1,2.364,5.836H68.71A17.7,17.7,0,0,1,71.077,136.317Zm-2.716.46a20.788,20.788,0,0,0-1.833,5.377H61.913A10.651,10.651,0,0,1,68.361,136.777Zm-7.642,10.178a10.54,10.54,0,0,1,.379-2.667H66.2a25.171,25.171,0,0,0-.151,2.667,24.763,24.763,0,0,0,.154,2.667H61.1A10.54,10.54,0,0,1,60.719,146.955Zm1.194,4.8h4.621a21.157,21.157,0,0,0,1.824,5.376A10.649,10.649,0,0,1,61.913,151.755Zm9.785,5.837c-.105,0-.2.031-.31.031s-.2-.028-.31-.031a17.858,17.858,0,0,1-2.364-5.837h5.349A17.822,17.822,0,0,1,71.7,157.592Zm2.721-.46a21.1,21.1,0,0,0,1.824-5.376h4.62A10.651,10.651,0,0,1,74.418,157.132Zm2.15-7.51a24.872,24.872,0,0,0,.154-2.667,25.177,25.177,0,0,0-.151-2.667h5.106a9.581,9.581,0,0,1,0,5.334Z" transform="translate(-58.585 -134.152)" fill="#b2b8bc"/>
      </g>
    </g>
    <g id="Group_161" data-name="Group 161" transform="translate(19.12 49.428)">
      <g id="Group_160" data-name="Group 160">
        <rect id="Rectangle_93" data-name="Rectangle 93" width="21.338" height="2.134" fill="#b2b8bc"/>
      </g>
    </g>
    <g id="Group_163" data-name="Group 163" transform="translate(53.789 34.188)">
      <g id="Group_162" data-name="Group 162" transform="translate(0 0)">
        <rect id="Rectangle_94" data-name="Rectangle 94" width="4.268" height="2.134" transform="matrix(0.259, -0.966, 0.966, 0.259, 0, 4.122)" fill="#b2b8bc"/>
      </g>
    </g>
    <g id="Group_165" data-name="Group 165" transform="translate(48.847 42.199)">
      <g id="Group_164" data-name="Group 164" transform="translate(0 0)">
        <rect id="Rectangle_95" data-name="Rectangle 95" width="14.936" height="2.134" transform="matrix(0.259, -0.966, 0.966, 0.259, 0, 14.427)" fill="#b2b8bc"/>
      </g>
    </g>
    <g id="Group_167" data-name="Group 167" transform="translate(10.585)">
      <g id="Group_166" data-name="Group 166">
        <path id="Path_74" data-name="Path 74" d="M66.652,6.712,42.144.145a4.224,4.224,0,0,0-5.179,2.99l-2.21,8.249H12.7A2.114,2.114,0,0,0,10.585,13.5V55.787A2.114,2.114,0,0,0,12.7,57.9H37.121l14.756,3.954a4.224,4.224,0,0,0,5.179-2.99L69.642,11.891A4.229,4.229,0,0,0,66.652,6.712ZM12.7,55.787V13.5H44.415a2.117,2.117,0,0,1,2.114,2.114V53.672a2.117,2.117,0,0,1-2.114,2.114ZM67.6,11.344,55.014,58.317a2.11,2.11,0,0,1-2.59,1.5l-7.373-1.976a4.218,4.218,0,0,0,3.593-4.165V36.91l1.083.29,1.095-4.085-2.043-.547-.135.505v-16.8l2.158.578,2.5,8.175,1.75.469-.166-7.549,3.093.829,1.359,2.4,1.167.313-.2-3.337,1.842-2.79-1.167-.313-2.375,1.4-3.093-.829L59.43,9.155l-1.75-.469-6.253,5.83-3.3-.884a4.211,4.211,0,0,0-3.714-2.247H36.943l2.064-7.7a2.11,2.11,0,0,1,2.59-1.5L66.1,8.755a2.115,2.115,0,0,1,1.5,2.589Z" transform="translate(-10.585)" fill="#b2b8bc"/>
      </g>
    </g>
    <g id="Group_169" data-name="Group 169" transform="translate(53.797 28.613)">
      <g id="Group_168" data-name="Group 168" transform="translate(0 0)">
        <rect id="Rectangle_96" data-name="Rectangle 96" width="2.134" height="2.097" transform="translate(0 2.063) rotate(-75.179)" fill="#b2b8bc"/>
      </g>
    </g>
    <g id="Group_171" data-name="Group 171" transform="translate(57.808 29.679)">
      <g id="Group_170" data-name="Group 170" transform="translate(0 0)">
        <rect id="Rectangle_97" data-name="Rectangle 97" width="2.134" height="2.097" transform="translate(0 2.063) rotate(-75.179)" fill="#b2b8bc"/>
      </g>
    </g>
    <g id="Group_173" data-name="Group 173" transform="translate(49.786 27.55)">
      <g id="Group_172" data-name="Group 172" transform="translate(0 0)">
        <rect id="Rectangle_98" data-name="Rectangle 98" width="2.134" height="2.097" transform="translate(0 2.063) rotate(-75.179)" fill="#b2b8bc"/>
      </g>
    </g>
  </g>
</svg>
