<svg xmlns="http://www.w3.org/2000/svg" width="53.986" height="62" viewBox="0 0 53.986 62">
  <g id="pray" transform="translate(-33.089)">
    <g id="Group_175" data-name="Group 175" transform="translate(33.089)">
      <path id="Path_107" data-name="Path 107" d="M67.535,190.079a1.221,1.221,0,0,0,1.479.894l5.907-1.456a1.222,1.222,0,0,0,.929-1.17c.155-11.978.22-12.133,3.61-20.241l3.275-7.338a1.222,1.222,0,1,0-2.229-1l-3.3,7.4c-3.41,8.156-3.628,8.678-3.787,20.207l-4.99,1.23A1.222,1.222,0,0,0,67.535,190.079Z" transform="translate(-63.295 -139.965)" fill="#b2b8bc"/>
      <path id="Path_108" data-name="Path 108" d="M360.775,478.424a40.413,40.413,0,0,1-8.786-1.833,1.222,1.222,0,1,0-.774,2.318,42.9,42.9,0,0,0,9.325,1.947q.06.006.119.006a1.222,1.222,0,0,0,.116-2.438Z" transform="translate(-312.098 -418.862)" fill="#b2b8bc"/>
      <path id="Path_109" data-name="Path 109" d="M105.735,114.282l5.845,1.441a1.209,1.209,0,0,0,.579-2.348l-4.938-1.217c-.157-11.41-.373-11.926-3.747-20L96.245,76.016a3.764,3.764,0,0,0-5.955-1.209,3.764,3.764,0,0,0-5.955,1.209,1.209,1.209,0,1,0,2.206.991,1.3,1.3,0,0,1,1.737-.658,1.1,1.1,0,0,1,.575,1.589l-3.406,9.157a3.819,3.819,0,0,0-2.939,2.915c-.57,2.233-1.085,4.383-1.582,6.463-.252,1.053-.5,2.105-.763,3.172a1.209,1.209,0,1,0,2.349.572c.26-1.07.513-2.125.766-3.181.5-2.071,1.008-4.213,1.573-6.428.159-.623.617-1.214,1.283-1.142l.036,0a1.141,1.141,0,0,1,.972,1.27c-.078.624-.21,1.841-.338,3.017s-.258,2.374-.333,2.979c-.414,3.32-.291,3.719.794,5.839.206.4.44.859.723,1.448,1.256,2.566,1.045,6.084-.665,11.071-1.823,5.319-10.986,8.547-18.727,9.294a1.209,1.209,0,0,0,.115,2.413c.039,0,.078,0,.118-.006,8.772-.847,18.6-4.551,20.782-10.917q.389-1.134.682-2.187.294,1.054.682,2.187a10.3,10.3,0,0,0,2.646,4,1.209,1.209,0,1,0,1.687-1.732,7.922,7.922,0,0,1-2.045-3.052c-1.709-4.987-1.921-8.5-.661-11.079.279-.581.513-1.038.719-1.44,1.085-2.12,1.208-2.519.794-5.839-.076-.606-.207-1.815-.334-2.984s-.259-2.389-.337-3.012a1.147,1.147,0,0,1,.972-1.27l.035,0c.667-.073,1.124.519,1.283,1.142.565,2.212,1.077,4.351,1.572,6.42.253,1.058.506,2.117.768,3.189a1.209,1.209,0,1,0,2.349-.572c-.26-1.069-.513-2.124-.765-3.18-.5-2.077-1.011-4.225-1.58-6.455a3.818,3.818,0,0,0-2.939-2.915l-3.406-9.157a1.1,1.1,0,0,1,.575-1.589,1.3,1.3,0,0,1,1.737.658l7.2,16.085c3.354,8.024,3.419,8.178,3.572,20.032A1.209,1.209,0,0,0,105.735,114.282ZM92.726,87.557a3.563,3.563,0,0,0-1.685,3.482c.075.6.206,1.809.333,2.974s.26,2.4.338,3.023c.338,2.709.338,2.709-.547,4.438-.2.4-.454.886-.742,1.487-.046.093-.09.188-.132.283-.042-.092-.084-.184-.129-.275-.292-.608-.544-1.1-.746-1.494-.885-1.729-.885-1.729-.547-4.438.078-.624.21-1.841.338-3.017s.258-2.374.333-2.979a3.564,3.564,0,0,0-1.685-3.482l2.436-6.549Z" transform="translate(-63.297 -64.802)" fill="#b2b8bc"/>
      <path id="Path_110" data-name="Path 110" d="M247.223,6.434a1.222,1.222,0,0,0,1.222-1.222V1.222a1.222,1.222,0,1,0-2.444,0V5.212A1.222,1.222,0,0,0,247.223,6.434Z" transform="translate(-220.23)" fill="#b2b8bc"/>
      <path id="Path_111" data-name="Path 111" d="M141.7,33.813a1.222,1.222,0,1,0,2.116-1.222l-2-3.456a1.222,1.222,0,0,0-2.116,1.222Z" transform="translate(-126.663 -25.039)" fill="#b2b8bc"/>
      <path id="Path_112" data-name="Path 112" d="M62.223,108.736l3.456,2a1.222,1.222,0,0,0,1.222-2.116l-3.456-2a1.222,1.222,0,0,0-1.222,2.116Z" transform="translate(-58.127 -93.574)" fill="#b2b8bc"/>
      <path id="Path_113" data-name="Path 113" d="M39.523,214.135a1.222,1.222,0,0,0-1.222-1.222h-3.99a1.222,1.222,0,1,0,0,2.444H38.3A1.222,1.222,0,0,0,39.523,214.135Z" transform="translate(-33.089 -187.14)" fill="#b2b8bc"/>
      <path id="Path_114" data-name="Path 114" d="M336.736,34.26a1.221,1.221,0,0,0,1.669-.447l2-3.456a1.222,1.222,0,0,0-2.116-1.222l-2,3.456A1.222,1.222,0,0,0,336.736,34.26Z" transform="translate(-299.459 -25.039)" fill="#b2b8bc"/>
      <path id="Path_115" data-name="Path 115" d="M403.324,110.9a1.216,1.216,0,0,0,.61-.164l3.456-2a1.222,1.222,0,1,0-1.222-2.116l-3.456,2a1.222,1.222,0,0,0,.612,2.28Z" transform="translate(-357.5 -93.574)" fill="#b2b8bc"/>
      <path id="Path_116" data-name="Path 116" d="M431.465,212.913h-3.99a1.222,1.222,0,1,0,0,2.444h3.99a1.222,1.222,0,1,0,0-2.444Z" transform="translate(-378.701 -187.14)" fill="#b2b8bc"/>
      <path id="Path_117" data-name="Path 117" d="M190.142,124.874a1.221,1.221,0,0,0,1.639-.546h0a1.222,1.222,0,1,0-1.639.547Z" transform="translate(-170.538 -107.724)" fill="#b2b8bc"/>
      <path id="Path_118" data-name="Path 118" d="M315.023,460.934h0a1.222,1.222,0,1,0,.643,1.6A1.221,1.221,0,0,0,315.022,460.934Z" transform="translate(-279.4 -405.086)" fill="#b2b8bc"/>
    </g>
  </g>
</svg>
