<svg xmlns="http://www.w3.org/2000/svg" width="62" height="62" viewBox="0 0 62 62">
  <g id="Group_153" data-name="Group 153" transform="translate(-837 -1837)">
    <g id="beach" transform="translate(837 1837)">
      <g id="Group_33" data-name="Group 33" transform="translate(0 45.467)">
        <g id="Group_32" data-name="Group 32">
          <path id="Path_9" data-name="Path 9" d="M60.967,375.467H1.033A1.033,1.033,0,0,0,0,376.5v4.133a1.033,1.033,0,0,0,1.033,1.033H60.967A1.032,1.032,0,0,0,62,380.634V376.5A1.032,1.032,0,0,0,60.967,375.467ZM59.933,379.6H2.067v-2.067H59.933V379.6Z" transform="translate(0 -375.467)" fill="#b2b8bc"/>
        </g>
      </g>
      <g id="Group_35" data-name="Group 35" transform="translate(0 49.6)">
        <g id="Group_34" data-name="Group 34">
          <path id="Path_10" data-name="Path 10" d="M5.167,409.6H1.033A1.033,1.033,0,0,0,0,410.633v10.333A1.033,1.033,0,0,0,1.033,422H5.167A1.033,1.033,0,0,0,6.2,420.967V410.633A1.033,1.033,0,0,0,5.167,409.6ZM4.133,419.933H2.067v-8.267H4.133v8.267Z" transform="translate(0 -409.6)" fill="#b2b8bc"/>
        </g>
      </g>
      <g id="Group_37" data-name="Group 37" transform="translate(55.8 49.6)">
        <g id="Group_36" data-name="Group 36">
          <path id="Path_11" data-name="Path 11" d="M465.968,409.6h-4.133a1.032,1.032,0,0,0-1.033,1.033v10.333A1.032,1.032,0,0,0,461.834,422h4.133A1.032,1.032,0,0,0,467,420.967V410.633A1.032,1.032,0,0,0,465.968,409.6Zm-1.033,10.333h-2.067v-8.267h2.067Z" transform="translate(-460.801 -409.6)" fill="#b2b8bc"/>
        </g>
      </g>
      <g id="Group_39" data-name="Group 39" transform="translate(36.166 29.966)">
        <g id="Group_38" data-name="Group 38">
          <path id="Path_12" data-name="Path 12" d="M320.061,250.862l-3.1-3.1a1.033,1.033,0,0,0-1.437-.023l-16.533,15.5a1.034,1.034,0,0,0,.707,1.788h6.2a1.037,1.037,0,0,0,.7-.275l13.433-12.4a1.034,1.034,0,0,0,.029-1.49Zm-14.568,12.1H302.31l13.9-13.028,1.632,1.632Z" transform="translate(-298.664 -247.46)" fill="#b2b8bc"/>
        </g>
      </g>
      <g id="Group_41" data-name="Group 41" transform="translate(52.786 36.782)">
        <g id="Group_40" data-name="Group 40">
          <rect id="Rectangle_16" data-name="Rectangle 16" width="2.067" height="10.177" transform="matrix(0.914, -0.406, 0.406, 0.914, 0, 0.839)" fill="#b2b8bc"/>
        </g>
      </g>
      <g id="Group_43" data-name="Group 43">
        <g id="Group_42" data-name="Group 42">
          <path id="Path_13" data-name="Path 13" d="M17.567,0A17.586,17.586,0,0,0,0,17.567v2.067a1.034,1.034,0,0,0,1.764.732,4.824,4.824,0,0,1,6.807,0,1.033,1.033,0,0,0,1.46,0,4.824,4.824,0,0,1,6.807,0,1.033,1.033,0,0,0,1.46,0,4.824,4.824,0,0,1,6.807,0,1.033,1.033,0,0,0,1.46,0,4.822,4.822,0,0,1,6.806,0,1.034,1.034,0,0,0,1.764-.732V17.567A17.587,17.587,0,0,0,17.567,0Zm15.5,17.627a6.906,6.906,0,0,0-7.233.642,6.9,6.9,0,0,0-8.267,0,6.9,6.9,0,0,0-8.267,0,6.9,6.9,0,0,0-7.233-.642v-.06a15.5,15.5,0,1,1,31,0v.06Z" fill="#b2b8bc"/>
        </g>
      </g>
      <g id="Group_45" data-name="Group 45" transform="translate(44.433 5.167)">
        <g id="Group_44" data-name="Group 44">
          <path id="Path_14" data-name="Path 14" d="M373.133,42.667a6.2,6.2,0,1,0,6.2,6.2A6.206,6.206,0,0,0,373.133,42.667Zm0,10.333a4.133,4.133,0,1,1,4.133-4.133A4.138,4.138,0,0,1,373.133,53Z" transform="translate(-366.933 -42.667)" fill="#b2b8bc"/>
        </g>
      </g>
      <g id="Group_47" data-name="Group 47" transform="translate(49.6)">
        <g id="Group_46" data-name="Group 46">
          <rect id="Rectangle_17" data-name="Rectangle 17" width="2.067" height="3.1" fill="#b2b8bc"/>
        </g>
      </g>
      <g id="Group_49" data-name="Group 49" transform="translate(58.9 10.333)">
        <g id="Group_48" data-name="Group 48">
          <rect id="Rectangle_18" data-name="Rectangle 18" width="3.1" height="2.067" fill="#b2b8bc"/>
        </g>
      </g>
      <g id="Group_51" data-name="Group 51" transform="translate(39.267 10.333)">
        <g id="Group_50" data-name="Group 50">
          <rect id="Rectangle_19" data-name="Rectangle 19" width="3.1" height="2.067" fill="#b2b8bc"/>
        </g>
      </g>
      <g id="Group_53" data-name="Group 53" transform="translate(55.75 2.599)">
        <g id="Group_52" data-name="Group 52">
          <rect id="Rectangle_20" data-name="Rectangle 20" width="3.098" height="2.067" transform="translate(0 2.191) rotate(-45)" fill="#b2b8bc"/>
        </g>
      </g>
      <g id="Group_55" data-name="Group 55" transform="translate(41.863 16.489)">
        <g id="Group_54" data-name="Group 54">
          <rect id="Rectangle_21" data-name="Rectangle 21" width="3.098" height="2.067" transform="translate(0 2.191) rotate(-45)" fill="#b2b8bc"/>
        </g>
      </g>
      <g id="Group_57" data-name="Group 57" transform="translate(55.749 16.484)">
        <g id="Group_56" data-name="Group 56">
          <rect id="Rectangle_22" data-name="Rectangle 22" width="2.067" height="3.098" transform="matrix(0.707, -0.707, 0.707, 0.707, 0, 1.462)" fill="#b2b8bc"/>
        </g>
      </g>
      <g id="Group_59" data-name="Group 59" transform="translate(41.862 2.592)">
        <g id="Group_58" data-name="Group 58">
          <rect id="Rectangle_23" data-name="Rectangle 23" width="2.067" height="3.098" transform="matrix(0.707, -0.707, 0.707, 0.707, 0, 1.462)" fill="#b2b8bc"/>
        </g>
      </g>
      <g id="Group_61" data-name="Group 61" transform="translate(49.6 19.633)">
        <g id="Group_60" data-name="Group 60">
          <rect id="Rectangle_24" data-name="Rectangle 24" width="2.067" height="3.1" fill="#b2b8bc"/>
        </g>
      </g>
      <g id="Group_63" data-name="Group 63" transform="translate(16.533 19.633)">
        <g id="Group_62" data-name="Group 62">
          <rect id="Rectangle_25" data-name="Rectangle 25" width="2.067" height="26.867" fill="#b2b8bc"/>
        </g>
      </g>
      <g id="Group_65" data-name="Group 65" transform="translate(16.533 50.633)">
        <g id="Group_64" data-name="Group 64">
          <rect id="Rectangle_26" data-name="Rectangle 26" width="2.067" height="11.367" fill="#b2b8bc"/>
        </g>
      </g>
    </g>
  </g>
</svg>
