<svg xmlns="http://www.w3.org/2000/svg" width="65.186" height="62" viewBox="0 0 65.186 62">
  <g id="Group_157" data-name="Group 157" transform="translate(-903 -1697)">
    <g id="availability" transform="translate(903 1697)">
      <g id="Group_110" data-name="Group 110" transform="translate(0 0)">
        <path id="Path_29" data-name="Path 29" d="M376.236,325.142a.966.966,0,0,0-.966.966v3.779a2.995,2.995,0,1,0,2.287,5.522l3.212,3.212a.966.966,0,0,0,1.366-1.366l-3.212-3.212a2.992,2.992,0,0,0-1.721-4.156v-3.779A.966.966,0,0,0,376.236,325.142Zm1.064,7.579a1.064,1.064,0,1,1-1.064-1.064A1.065,1.065,0,0,1,377.3,332.721Z" transform="translate(-325.859 -285.53)" fill="#b2b8bc"/>
        <path id="Path_30" data-name="Path 30" d="M160.729,166.333a.965.965,0,0,0-1.254.54l-3.308,8.318a.966.966,0,1,0,1.795.714l3.308-8.318A.966.966,0,0,0,160.729,166.333Z" transform="translate(-136.223 -146.709)" fill="#b2b8bc"/>
        <path id="Path_31" data-name="Path 31" d="M211.185,176.436a.965.965,0,0,0,1.273-.5l3.657-8.318a.966.966,0,0,0-.884-1.354h-4.576a.966.966,0,1,0,0,1.931h3.1l-3.061,6.964A.966.966,0,0,0,211.185,176.436Z" transform="translate(-182.997 -146.712)" fill="#b2b8bc"/>
        <path id="Path_32" data-name="Path 32" d="M92.516,173.732a.966.966,0,0,0,.966-.966v-1.773H94a.966.966,0,1,0,0-1.931h-.521v-4.374a1.353,1.353,0,0,0-2.495-.725c-1.194,1.885-3.4,5.528-3.42,5.565a.966.966,0,0,0,.826,1.465H91.55v1.773A.966.966,0,0,0,92.516,173.732Zm-2.406-4.67c.422-.692.942-1.543,1.441-2.352v2.352Z" transform="translate(-76.301 -144.152)" fill="#b2b8bc"/>
        <path id="Path_33" data-name="Path 33" d="M41.339,168.9c-1.317,1.882-2.1,2.911-2.526,3.464-.526.689-.766,1-.6,1.537a1,1,0,0,0,.653.661,6.962,6.962,0,0,0,1.875.084c.635,0,1.5-.006,2.681-.021a.966.966,0,0,0-.012-1.931H43.4c-.823.01-1.7.017-2.424.019.46-.616,1.1-1.485,1.949-2.705a6.344,6.344,0,0,0,1.034-2.141.928.928,0,0,0,.017-.1l.041-.322a.947.947,0,0,0,.008-.122,3.094,3.094,0,0,0-6.13-.6.966.966,0,0,0,1.9.372,1.163,1.163,0,0,1,2.3.174l-.025.2A4.59,4.59,0,0,1,41.339,168.9Z" transform="translate(-32.997 -144.933)" fill="#b2b8bc"/>
        <path id="Path_34" data-name="Path 34" d="M55.986,269.48a1.817,1.817,0,0,0-1.815-1.815H49.932a1.817,1.817,0,0,0-1.815,1.815v4.239a1.817,1.817,0,0,0,1.815,1.815h4.239a1.817,1.817,0,0,0,1.815-1.815ZM54.055,273.6H50.048V269.6h4.007V273.6Z" transform="translate(-41.922 -235.196)" fill="#b2b8bc"/>
        <path id="Path_35" data-name="Path 35" d="M134.462,269.48a1.817,1.817,0,0,0-1.815-1.815h-4.239a1.817,1.817,0,0,0-1.815,1.815v4.239a1.817,1.817,0,0,0,1.815,1.815h4.239a1.817,1.817,0,0,0,1.815-1.815Zm-1.931,4.123h-4.007V269.6h4.007Z" transform="translate(-110.483 -235.196)" fill="#b2b8bc"/>
        <path id="Path_36" data-name="Path 36" d="M212.939,269.48a1.817,1.817,0,0,0-1.815-1.815h-4.239a1.817,1.817,0,0,0-1.815,1.815v4.239a1.817,1.817,0,0,0,1.815,1.815h4.239a1.817,1.817,0,0,0,1.815-1.815Zm-1.931,4.123H207V269.6h4.006Z" transform="translate(-178.973 -235.196)" fill="#b2b8bc"/>
        <path id="Path_37" data-name="Path 37" d="M274.73,187.289V183.05a1.817,1.817,0,0,0-1.815-1.815h-4.239a1.817,1.817,0,0,0-1.815,1.815v4.239a1.817,1.817,0,0,0,1.815,1.815h4.239A1.817,1.817,0,0,0,274.73,187.289Zm-1.931-.116h-4.006v-4.007H272.8Z" transform="translate(-232.901 -159.764)" fill="#b2b8bc"/>
        <path id="Path_38" data-name="Path 38" d="M346.7,181.236a1.817,1.817,0,0,0-1.815,1.815v4.239a1.817,1.817,0,0,0,1.815,1.815h4.239a1.817,1.817,0,0,0,1.815-1.815v-4.239a1.817,1.817,0,0,0-1.815-1.815Zm4.123,5.938h-4.007v-4.007h4.007Z" transform="translate(-300.998 -159.765)" fill="#b2b8bc"/>
        <path id="Path_39" data-name="Path 39" d="M49.932,349.4h4.239a1.817,1.817,0,0,0,1.815-1.815v-4.239a1.817,1.817,0,0,0-1.815-1.815H49.932a1.817,1.817,0,0,0-1.815,1.815v4.239A1.817,1.817,0,0,0,49.932,349.4Zm.116-5.938h4.007v4.006H50.048Z" transform="translate(-41.922 -299.664)" fill="#b2b8bc"/>
        <path id="Path_40" data-name="Path 40" d="M128.408,349.4h4.239a1.817,1.817,0,0,0,1.815-1.815v-4.239a1.817,1.817,0,0,0-1.815-1.815h-4.239a1.817,1.817,0,0,0-1.815,1.815v4.239A1.817,1.817,0,0,0,128.408,349.4Zm.116-5.938h4.007v4.006h-4.007Z" transform="translate(-110.483 -299.664)" fill="#b2b8bc"/>
        <path id="Path_41" data-name="Path 41" d="M211.124,341.532h-4.239a1.817,1.817,0,0,0-1.815,1.815v4.239a1.817,1.817,0,0,0,1.815,1.815h4.239a1.817,1.817,0,0,0,1.815-1.815v-4.239A1.817,1.817,0,0,0,211.124,341.532Zm-.116,5.938H207v-4.006h4.006Z" transform="translate(-178.973 -299.664)" fill="#b2b8bc"/>
        <path id="Path_42" data-name="Path 42" d="M34.38,330.154H6.674a4.748,4.748,0,0,1-4.742-4.742v-7.986a.966.966,0,1,0-1.931,0v7.986a6.681,6.681,0,0,0,6.674,6.674H34.38a.966.966,0,0,0,0-1.931Z" transform="translate(0 -277.966)" fill="#b2b8bc"/>
        <path id="Path_43" data-name="Path 43" d="M.954,49.453a.96.96,0,0,0,.954-.966V29.115H44.834a.966.966,0,0,0,0-1.931H1.908v-3.2a4.72,4.72,0,0,1,4.686-4.742h6.644V21.3a2.67,2.67,0,1,0,5.34,0V19.239H37.742V21.3a2.67,2.67,0,1,0,5.34,0V19.239h6.644a4.72,4.72,0,0,1,4.686,4.742v3.2H48.9a.966.966,0,0,0,0,1.931h5.512V43.342a.954.954,0,1,0,1.908,0V23.981a6.642,6.642,0,0,0-6.595-6.674H43.082V15.2a2.67,2.67,0,1,0-5.34,0v2.1H18.579V15.2a2.67,2.67,0,1,0-5.34,0v2.1H6.595A6.642,6.642,0,0,0,0,23.981V48.488A.96.96,0,0,0,.954,49.453Zm38.7-34.25a.761.761,0,1,1,1.523,0v6.1a.761.761,0,1,1-1.523,0Zm-24.5,0a.762.762,0,1,1,1.523,0v6.1a.762.762,0,1,1-1.523,0Z" transform="translate(0 -12.501)" fill="#b2b8bc"/>
        <path id="Path_44" data-name="Path 44" d="M310.582,279.884a.966.966,0,0,0-1.863.51,12.875,12.875,0,0,1,.419,2.44h-1.529a.966.966,0,1,0,0,1.931h1.53a12.823,12.823,0,0,1-3.083,7.427l-1.078-1.078a.966.966,0,1,0-1.366,1.365l1.078,1.078a12.824,12.824,0,0,1-7.427,3.083V295.11a.966.966,0,0,0-1.931,0v1.531a12.823,12.823,0,0,1-7.427-3.083l1.078-1.078a.966.966,0,0,0-1.366-1.366l-1.078,1.078a12.824,12.824,0,0,1-3.083-7.427h1.53a.966.966,0,1,0,0-1.931h-1.53a12.823,12.823,0,0,1,3.083-7.427l1.078,1.078a.966.966,0,1,0,1.366-1.366L287.9,274.04a12.823,12.823,0,0,1,7.427-3.083v1.53a.966.966,0,1,0,1.931,0v-1.529a12.8,12.8,0,0,1,7.434,3.075l-1.085,1.085a.966.966,0,0,0,1.366,1.366l1.082-1.082a13.08,13.08,0,0,1,1.108,1.492.966.966,0,0,0,1.629-1.037,14.762,14.762,0,1,0,1.785,4.028Z" transform="translate(-245.92 -236.608)" fill="#b2b8bc"/>
      </g>
    </g>
  </g>
</svg>
