<svg xmlns="http://www.w3.org/2000/svg" width="48.575" height="62" viewBox="0 0 48.575 62">
  <g id="price-tag" transform="translate(-55.432 -0.001)">
    <g id="Group_120" data-name="Group 120" transform="translate(55.432 0.001)">
      <path id="Path_52" data-name="Path 52" d="M103.1,46.985a.908.908,0,0,0,.908-.908V24.28a4.962,4.962,0,0,0-1.19-3.122L96.082,13a5.326,5.326,0,0,0-1.2-1.075c.027-.278.042-.558.042-.841V.909a.908.908,0,0,0-1.816,0s0,10.258,0,10.3a4.5,4.5,0,0,0-.785-.069H80.575a4.663,4.663,0,0,0-2.363.658.921.921,0,0,0-.093.039l-8.853,4.312a4.745,4.745,0,0,0-2.209,2.324l-.014.033-3.66,9.285a.908.908,0,1,0,1.69.666l3.653-9.267a2.919,2.919,0,0,1,1.345-1.413L74.748,15.5l-4.669,5.657a4.831,4.831,0,0,0-1.069,3.122V55.644a6.492,6.492,0,0,0,.09,1.071l-9.358-4.147a4.211,4.211,0,0,1-2.135-5.546l.012-.028,5.919-14.711a.908.908,0,1,0-1.685-.678L55.939,46.3a6.03,6.03,0,0,0,3.068,7.926l10.974,4.863.041.016A6.207,6.207,0,0,0,75.247,62h22.4a6.443,6.443,0,0,0,6.357-6.357V50.315a.908.908,0,1,0-1.816,0v5.328a4.6,4.6,0,0,1-4.541,4.541h-22.4a4.487,4.487,0,0,1-4.42-4.541V24.28a3,3,0,0,1,.653-1.966l6.736-8.161a3.1,3.1,0,0,1,2.359-1.2H92.321a2.675,2.675,0,0,1,.51.05,6.841,6.841,0,0,1-3.879,4.367,2.845,2.845,0,1,0,.38,1.8,8.654,8.654,0,0,0,5.12-5.278c.079.08.156.163.229.252l6.736,8.161a3.149,3.149,0,0,1,.774,1.966v21.8a.908.908,0,0,0,.908.908ZM86.509,19.86a1.029,1.029,0,1,1,1.029-1.029A1.03,1.03,0,0,1,86.509,19.86Z" transform="translate(-55.432 -0.001)" fill="#b2b8bc"/>
      <path id="Path_53" data-name="Path 53" d="M240.475,273.043a.891.891,0,0,0,.632-.262l15.255-15.255a.894.894,0,1,0-1.264-1.264l-15.255,15.255A.9.9,0,0,0,240.475,273.043Z" transform="translate(-217.089 -224.811)" fill="#b2b8bc"/>
      <path id="Path_54" data-name="Path 54" d="M233.561,262.747a3.873,3.873,0,1,0,0-7.747h-.119a3.873,3.873,0,0,0,0,7.747Zm-2.2-3.873a2.088,2.088,0,0,1,2.086-2.086h.119a2.086,2.086,0,1,1,0,4.171h-.119A2.088,2.088,0,0,1,231.356,258.873Z" transform="translate(-208.416 -224.05)" fill="#b2b8bc"/>
      <path id="Path_55" data-name="Path 55" d="M331.441,341.747h.119a3.873,3.873,0,0,0,0-7.747h-.119a3.873,3.873,0,1,0,0,7.747Zm0-5.959h.119a2.086,2.086,0,0,1,0,4.171h-.119a2.086,2.086,0,1,1,0-4.171Z" transform="translate(-294.511 -293.462)" fill="#b2b8bc"/>
    </g>
  </g>
</svg>
