<svg xmlns="http://www.w3.org/2000/svg" width="61.989" height="62" viewBox="0 0 61.989 62">
  <g id="Group_154" data-name="Group 154" transform="translate(-810 -1636)">
    <g id="wallet" transform="translate(810 1636)">
      <g id="Group_70" data-name="Group 70" transform="translate(0 19.715)">
        <g id="Group_69" data-name="Group 69">
          <path id="Path_15" data-name="Path 15" d="M55.841,192.1v10.313H6.76a4.651,4.651,0,0,1-4.65-4.641V162.2H.044v35.582a6.718,6.718,0,0,0,6.716,6.7H56.875a1.031,1.031,0,0,0,1.033-1.031V192.1Z" transform="translate(-0.044 -162.195)" fill="#b2b8bc"/>
        </g>
      </g>
      <g id="Group_72" data-name="Group 72" transform="translate(0 12.421)">
        <g id="Group_71" data-name="Group 71">
          <path id="Path_16" data-name="Path 16" d="M56.875,113.815H6.761a4.641,4.641,0,1,1,0-9.282H24.844V102.47H6.761a6.7,6.7,0,1,0,0,13.407H55.842v9.282h2.067V114.846A1.032,1.032,0,0,0,56.875,113.815Z" transform="translate(-0.045 -102.47)" fill="#b2b8bc"/>
        </g>
      </g>
      <g id="Group_74" data-name="Group 74" transform="translate(52.707 12.443)">
        <g id="Group_73" data-name="Group 73">
          <path id="Path_17" data-name="Path 17" d="M443.423,102.471h-8.251v2.063h7.219v34.035h-4.125v2.063h5.157a1.03,1.03,0,0,0,1.031-1.031V103.5A1.031,1.031,0,0,0,443.423,102.471Z" transform="translate(-435.172 -102.471)" fill="#b2b8bc"/>
        </g>
      </g>
      <g id="Group_76" data-name="Group 76" transform="translate(37.204 38.248)">
        <g id="Group_75" data-name="Group 75">
          <path id="Path_18" data-name="Path 18" d="M311.318,315.769a4.125,4.125,0,1,0,4.125,4.125A4.13,4.13,0,0,0,311.318,315.769Zm0,6.188a2.063,2.063,0,1,1,2.063-2.063A2.065,2.065,0,0,1,311.318,321.957Z" transform="translate(-307.193 -315.769)" fill="#b2b8bc"/>
        </g>
      </g>
      <g id="Group_78" data-name="Group 78" transform="translate(33.112 34.127)">
        <g id="Group_77" data-name="Group 77">
          <path id="Path_19" data-name="Path 19" d="M300.912,281.642h-19.6a8.251,8.251,0,0,0,0,16.5h19.6a1.03,1.03,0,0,0,1.031-1.031V282.673A1.03,1.03,0,0,0,300.912,281.642Zm-1.031,14.439H281.317a6.188,6.188,0,1,1,0-12.376h18.564Z" transform="translate(-273.066 -281.642)" fill="#b2b8bc"/>
        </g>
      </g>
      <g id="Group_80" data-name="Group 80" transform="translate(12.442 0)">
        <g id="Group_79" data-name="Group 79">
          <path id="Path_20" data-name="Path 20" d="M149.482,19.048,132.231,1.53l-.023-.024a5.162,5.162,0,0,0-7.288,0L102.077,24.03l1.448,1.469,22.849-22.53a3.1,3.1,0,0,1,4.362-.017l.011.011L148.015,20.5a3.1,3.1,0,0,1,0,4.359l-2.279,2.269,1.454,1.461,2.283-2.273A5.166,5.166,0,0,0,149.482,19.048Z" transform="translate(-102.077 0)" fill="#b2b8bc"/>
        </g>
      </g>
      <g id="Group_82" data-name="Group 82" transform="translate(45.137 19.645)">
        <g id="Group_81" data-name="Group 81">
          <path id="Path_21" data-name="Path 21" d="M377.7,162.2a5.163,5.163,0,0,0-5.157,5.157h2.063a3.094,3.094,0,1,1,6.188,0h2.063A5.163,5.163,0,0,0,377.7,162.2Z" transform="translate(-372.547 -162.203)" fill="#b2b8bc"/>
        </g>
      </g>
      <g id="Group_84" data-name="Group 84" transform="translate(28.89 7.538)">
        <g id="Group_83" data-name="Group 83" transform="translate(0 0)">
          <rect id="Rectangle_27" data-name="Rectangle 27" width="13.127" height="2.063" transform="translate(0 9.282) rotate(-45)" fill="#b2b8bc"/>
        </g>
      </g>
      <g id="Group_86" data-name="Group 86" transform="translate(36.12 10.649)">
        <g id="Group_85" data-name="Group 85">
          <rect id="Rectangle_28" data-name="Rectangle 28" width="7.292" height="2.063" transform="translate(0 5.156) rotate(-45)" fill="#b2b8bc"/>
        </g>
      </g>
      <g id="Group_88" data-name="Group 88" transform="translate(1.031 16.546)">
        <g id="Group_87" data-name="Group 87">
          <path id="Path_22" data-name="Path 22" d="M15.281,136.607a6.711,6.711,0,0,0-6.7,6.7H10.64a4.647,4.647,0,0,1,4.641-4.641H28.173v-2.063H15.281Z" transform="translate(-8.577 -136.607)" fill="#b2b8bc"/>
        </g>
      </g>
      <g id="Group_90" data-name="Group 90" transform="translate(0.001 24.805)">
        <g id="Group_89" data-name="Group 89">
          <path id="Path_23" data-name="Path 23" d="M2.116,204.844l-2.063-.006a6.623,6.623,0,0,0,.109,1.222l2.029-.375A4.57,4.57,0,0,1,2.116,204.844Z" transform="translate(-0.053 -204.838)" fill="#b2b8bc"/>
        </g>
      </g>
      <g id="Group_93" data-name="Group 93" transform="translate(1.136 27.121)">
        <g id="Group_92" data-name="Group 92">
          <g id="Group_91" data-name="Group 91">
            <rect id="Rectangle_29" data-name="Rectangle 29" width="2.094" height="2.063" transform="translate(12.71 1.818)" fill="#b2b8bc"/>
            <rect id="Rectangle_30" data-name="Rectangle 30" width="2.094" height="2.063" transform="translate(21.103 1.818)" fill="#b2b8bc"/>
            <rect id="Rectangle_31" data-name="Rectangle 31" width="2.094" height="2.063" transform="translate(16.907 1.818)" fill="#b2b8bc"/>
            <path id="Path_24" data-name="Path 24" d="M11.067,223.94l-1.629,1.267a6.765,6.765,0,0,0,1.834,1.633l1.071-1.763A4.7,4.7,0,0,1,11.067,223.94Z" transform="translate(-9.438 -223.94)" fill="#b2b8bc"/>
            <rect id="Rectangle_32" data-name="Rectangle 32" width="2.094" height="2.063" transform="translate(8.515 1.818)" fill="#b2b8bc"/>
            <path id="Path_25" data-name="Path 25" d="M43.948,238.368l-.374,2.029a6.738,6.738,0,0,0,1.22.112h.01l1.046,0v-2.063l-1.048,0C44.515,238.422,44.229,238.42,43.948,238.368Z" transform="translate(-39.448 -236.624)" fill="#b2b8bc"/>
            <rect id="Rectangle_33" data-name="Rectangle 33" width="2.094" height="2.063" transform="translate(33.692 1.818)" fill="#b2b8bc"/>
            <rect id="Rectangle_34" data-name="Rectangle 34" width="2.094" height="2.063" transform="translate(25.3 1.818)" fill="#b2b8bc"/>
            <rect id="Rectangle_35" data-name="Rectangle 35" width="2.093" height="2.063" transform="translate(46.29 1.818)" fill="#b2b8bc"/>
            <rect id="Rectangle_36" data-name="Rectangle 36" width="2.094" height="2.063" transform="translate(50.477 1.818)" fill="#b2b8bc"/>
            <rect id="Rectangle_37" data-name="Rectangle 37" width="2.094" height="2.063" transform="translate(42.103 1.818)" fill="#b2b8bc"/>
            <rect id="Rectangle_38" data-name="Rectangle 38" width="2.093" height="2.063" transform="translate(37.889 1.818)" fill="#b2b8bc"/>
            <rect id="Rectangle_39" data-name="Rectangle 39" width="2.093" height="2.063" transform="translate(29.496 1.818)" fill="#b2b8bc"/>
          </g>
        </g>
      </g>
      <g id="Group_95" data-name="Group 95" transform="translate(55.806 28.941)">
        <g id="Group_94" data-name="Group 94">
          <rect id="Rectangle_40" data-name="Rectangle 40" width="1.031" height="2.063" fill="#b2b8bc"/>
        </g>
      </g>
      <g id="Group_97" data-name="Group 97" transform="translate(0.001 50.652)">
        <g id="Group_96" data-name="Group 96">
          <path id="Path_26" data-name="Path 26" d="M2.116,418.133l-2.063-.006a6.628,6.628,0,0,0,.109,1.223l2.029-.378A4.543,4.543,0,0,1,2.116,418.133Z" transform="translate(-0.053 -418.127)" fill="#b2b8bc"/>
        </g>
      </g>
      <g id="Group_100" data-name="Group 100" transform="translate(1.136 52.961)">
        <g id="Group_99" data-name="Group 99">
          <g id="Group_98" data-name="Group 98">
            <rect id="Rectangle_41" data-name="Rectangle 41" width="2.094" height="2.063" transform="translate(25.3 1.819)" fill="#b2b8bc"/>
            <rect id="Rectangle_42" data-name="Rectangle 42" width="2.094" height="2.063" transform="translate(21.103 1.819)" fill="#b2b8bc"/>
            <rect id="Rectangle_43" data-name="Rectangle 43" width="2.094" height="2.063" transform="translate(16.907 1.819)" fill="#b2b8bc"/>
            <path id="Path_27" data-name="Path 27" d="M11.067,437.23,9.438,438.5a6.748,6.748,0,0,0,1.834,1.633l1.071-1.763A4.7,4.7,0,0,1,11.067,437.23Z" transform="translate(-9.438 -437.23)" fill="#b2b8bc"/>
            <path id="Path_28" data-name="Path 28" d="M43.963,451.666l-.372,2.029a6.808,6.808,0,0,0,1.226.111l1.048,0V451.74l-1.048,0A4.766,4.766,0,0,1,43.963,451.666Z" transform="translate(-39.463 -449.921)" fill="#b2b8bc"/>
            <rect id="Rectangle_44" data-name="Rectangle 44" width="2.094" height="2.063" transform="translate(8.515 1.819)" fill="#b2b8bc"/>
            <rect id="Rectangle_45" data-name="Rectangle 45" width="2.094" height="2.063" transform="translate(12.711 1.819)" fill="#b2b8bc"/>
            <rect id="Rectangle_46" data-name="Rectangle 46" width="2.093" height="2.063" transform="translate(46.29 1.819)" fill="#b2b8bc"/>
            <rect id="Rectangle_47" data-name="Rectangle 47" width="2.094" height="2.063" transform="translate(42.103 1.819)" fill="#b2b8bc"/>
            <rect id="Rectangle_48" data-name="Rectangle 48" width="2.094" height="2.063" transform="translate(50.477 1.819)" fill="#b2b8bc"/>
            <rect id="Rectangle_49" data-name="Rectangle 49" width="2.094" height="2.063" transform="translate(29.496 1.819)" fill="#b2b8bc"/>
            <rect id="Rectangle_50" data-name="Rectangle 50" width="2.094" height="2.063" transform="translate(33.692 1.819)" fill="#b2b8bc"/>
            <rect id="Rectangle_51" data-name="Rectangle 51" width="2.093" height="2.063" transform="translate(37.889 1.819)" fill="#b2b8bc"/>
          </g>
        </g>
      </g>
      <g id="Group_102" data-name="Group 102" transform="translate(55.806 54.781)">
        <g id="Group_101" data-name="Group 101">
          <rect id="Rectangle_52" data-name="Rectangle 52" width="1.031" height="2.063" fill="#b2b8bc"/>
        </g>
      </g>
      <g id="Group_104" data-name="Group 104" transform="translate(56.838 16.542)">
        <g id="Group_103" data-name="Group 103">
          <rect id="Rectangle_53" data-name="Rectangle 53" width="4.125" height="2.063" fill="#b2b8bc"/>
        </g>
      </g>
      <g id="Group_106" data-name="Group 106" transform="translate(41.637 14.779)">
        <g id="Group_105" data-name="Group 105" transform="translate(0 0)">
          <rect id="Rectangle_54" data-name="Rectangle 54" width="5.834" height="2.063" transform="translate(0 4.125) rotate(-45)" fill="#b2b8bc"/>
        </g>
      </g>
      <g id="Group_108" data-name="Group 108" transform="translate(36.464 20.98)">
        <g id="Group_107" data-name="Group 107" transform="translate(0 0)">
          <rect id="Rectangle_55" data-name="Rectangle 55" width="4.376" height="2.063" transform="translate(0 3.094) rotate(-45)" fill="#b2b8bc"/>
        </g>
      </g>
    </g>
  </g>
</svg>
