<?xml version="1.0" encoding="utf-8"?>
<!-- Generator: Adobe Illustrator 22.0.1, SVG Export Plug-In . SVG Version: 6.00 Build 0)  -->
<svg version="1.1" id="Layer_1" xmlns="http://www.w3.org/2000/svg" xmlns:xlink="http://www.w3.org/1999/xlink" x="0px" y="0px"
	 viewBox="0 0 218 228.7" style="enable-background:new 0 0 218 228.7;" xml:space="preserve">
<style type="text/css">
	.st0{fill:none;stroke:#C6C6C6;stroke-width:3;stroke-linecap:round;stroke-miterlimit:10;stroke-dasharray:6,0,0;}
	.st1{fill:none;stroke:#C6C6C6;stroke-width:3;stroke-linecap:round;stroke-miterlimit:10;stroke-dasharray:51,9,7;}
	.st2{fill:#F2F2F2;}
	.st3{fill:#DEDEDE;}
	.st4{fill:#152E48;}
	.st5{fill:#FFFFFF;}
	.st6{fill:none;stroke:#152E48;stroke-width:4;stroke-linecap:round;stroke-linejoin:round;stroke-miterlimit:10;}
	.st7{fill:none;}
	.st8{fill:#009E25;}
	.st9{fill:#C6C6C6;}
</style>
<circle class="st0" cx="138.3" cy="101.1" r="66.5"/>
<circle class="st1" cx="138.3" cy="101.1" r="57.4"/>
<circle class="st0" cx="66.1" cy="173.4" r="39.4"/>
<g>
	<polygon class="st2" points="144.3,88 144.3,176 140.8,179.9 133.5,173 125.8,179.9 118.5,173 110.8,179.9 103.5,173 95.8,179.9 
		88.5,173 80.8,179.9 73.5,173 65.8,179.9 58.8,172.8 58.8,63.5 120.5,63.5 	"/>
	<polygon class="st3" points="144.3,88 144.3,88.1 120.5,88.1 120.5,63.5 	"/>
</g>
<g>
	<g>
		<g>
			<path class="st4" d="M87.7,113.1c0,4-3.3,7.3-7.3,7.3s-7.3-3.3-7.3-7.3s3.3-7.3,7.3-7.3C84.4,105.7,87.7,109,87.7,113.1z"/>
			<g>
				<path class="st5" d="M81.6,110.9c0,1.9-1.5,3.5-3.5,3.5c-1.9,0-3.4-1.5-3.4-3.5c0-1.9,1.5-3.5,3.4-3.5S81.6,109,81.6,110.9z"/>
				<path class="st5" d="M83.1,114.7c0,0.7-0.5,1.2-1.2,1.2s-1.2-0.5-1.2-1.2s0.5-1.2,1.2-1.2S83.1,114,83.1,114.7z"/>
			</g>
		</g>
		<g>
			<path class="st4" d="M130,113.1c0,4-3.3,7.3-7.3,7.3s-7.3-3.3-7.3-7.3s3.3-7.3,7.3-7.3C126.7,105.7,130,109,130,113.1z"/>
			<g>
				<path class="st5" d="M123.9,110.9c0,1.9-1.6,3.5-3.5,3.5s-3.5-1.5-3.5-3.5c0-1.9,1.6-3.5,3.5-3.5S123.9,109,123.9,110.9z"/>
				<path class="st5" d="M125.4,114.7c0,0.7-0.5,1.2-1.2,1.2s-1.2-0.5-1.2-1.2s0.5-1.2,1.2-1.2S125.4,114,125.4,114.7z"/>
			</g>
		</g>
	</g>
	<path class="st6" d="M118,137.7c0,0-6.3-7.4-18-7.4c-10.3,0-16.8,7.4-16.8,7.4"/>
</g>
<g>
	<path class="st7" d="M75.4,160.8c-9.6,0-17.4,7.8-17.4,17.4c0,9.6,7.8,17.4,17.4,17.4s17.4-7.8,17.4-17.4
		C92.9,168.6,85.1,160.8,75.4,160.8z M67.2,184.7c-0.3,0-0.5-0.1-0.7-0.3c-0.5-0.4-0.6-1.1-0.2-1.7l12.2-15.3
		c0.4-0.5,1.1-0.6,1.7-0.2c0.5,0.4,0.6,1.1,0.2,1.7l-12.2,15.3C67.9,184.6,67.5,184.7,67.2,184.7z M85.4,174.1l-12.2,15.3
		c-0.2,0.3-0.6,0.4-0.9,0.4c-0.3,0-0.5-0.1-0.7-0.3c-0.5-0.4-0.6-1.1-0.2-1.7l12.2-15.3c0.4-0.5,1.1-0.6,1.7-0.2
		C85.7,172.8,85.8,173.6,85.4,174.1z"/>
	<path class="st4" d="M110.8,207.9l-0.3-0.3l-6.4,6.4l0.2,0.2l1.7,1.7c1.1,1.1,3.4,0.5,5.1-1.2c1.8-1.8,2.3-4.1,1.2-5.1L110.8,207.9
		L110.8,207.9z"/>
	<polygon class="st8" points="109,206.1 102.6,212.5 104.2,214 110.5,207.7 110.3,207.5 110.3,207.5 	"/>
	<path class="st4" d="M75.1,153.5c-13.7,0-24.8,11.1-24.8,24.8s11.1,24.8,24.8,24.8c5.1,0,9.8-1.5,13.7-4.1l13.8,13.6l6.4-6.4
		l-13.7-13.5c2.9-4.1,4.6-9,4.6-14.4C99.9,164.6,88.8,153.5,75.1,153.5z M75.4,195.7c-9.6,0-17.4-7.8-17.4-17.4
		c0-9.6,7.8-17.4,17.4-17.4s17.4,7.8,17.4,17.4C92.9,187.9,85.1,195.7,75.4,195.7z"/>
	<path class="st8" d="M78.4,167.5l-12.1,15.3c-0.4,0.5-0.3,1.3,0.2,1.7c0.2,0.2,0.5,0.3,0.7,0.3c0.3,0,0.7-0.2,0.9-0.4L80.3,169
		c0.4-0.5,0.3-1.2-0.2-1.7C79.6,166.9,78.8,167,78.4,167.5z"/>
	<path class="st8" d="M83.6,172.6l-12.2,15.3c-0.4,0.5-0.3,1.2,0.2,1.7c0.2,0.2,0.5,0.3,0.7,0.3c0.3,0,0.7-0.2,0.9-0.4l12.2-15.3
		c0.4-0.5,0.3-1.3-0.2-1.7C84.7,172,84,172.1,83.6,172.6z"/>
</g>
<path class="st9" d="M38,71.9l1,6.7c0.1,0.7,0.7,1.2,1.4,1.3l6.4,0.7l-6.1,0.8c-0.7,0.1-1.4,0.6-1.6,1.3L38,89.4l-1.1-6.5
	c-0.1-0.7-0.4-1.3-1.1-1.4l-6.5-0.9l6.3-0.8c0.7-0.1,1.2-0.6,1.4-1.3L38,71.9z"/>
<path class="st9" d="M182.6,84.8l1,6.7c0.1,0.7,0.7,1.2,1.4,1.3l6.4,0.7l-6.1,0.8c-0.7,0.1-1.4,0.6-1.6,1.3l-1.1,6.7l-1.1-6.5
	c-0.1-0.7-0.4-1.3-1.1-1.4l-6.5-0.9l6.3-0.8c0.7-0.1,1.2-0.6,1.4-1.3L182.6,84.8z"/>
<path class="st9" d="M120.4,7.7l1,6.7c0.1,0.7,0.7,1.2,1.4,1.3l6.4,0.7l-6.1,0.8c-0.7,0.1-1.4,0.6-1.6,1.3l-1.1,6.7l-1.1-6.5
	c-0.1-0.7-0.4-1.3-1.1-1.4l-6.5-0.9l6.3-0.8c0.7-0.1,1.2-0.6,1.4-1.3L120.4,7.7z"/>
<path class="st9" d="M147,58.2l1,6.7c0.1,0.7,0.7,1.2,1.4,1.3l6.4,0.7l-6.1,0.8c-0.7,0.1-1.4,0.6-1.6,1.3l-1.1,6.7l-1.1-6.5
	c-0.1-0.7-0.4-1.3-1.1-1.4l-6.5-0.9l6.3-0.8c0.7-0.1,1.2-0.6,1.4-1.3L147,58.2z"/>
<path class="st9" d="M20.4,120.2l1,6.7c0.1,0.7,0.7,1.2,1.4,1.3l6.4,0.7l-6.1,0.8c-0.7,0.1-1.4,0.6-1.6,1.3l-1.1,6.7l-1.1-6.5
	c-0.1-0.7-0.4-1.3-1.1-1.4l-6.5-0.9l6.3-0.8c0.7-0.1,1.2-0.6,1.4-1.3L20.4,120.2z"/>
<path class="st9" d="M165,122.5l1,6.7c0.1,0.7,0.7,1.2,1.4,1.3l6.4,0.7l-6.1,0.8c-0.7,0.1-1.4,0.6-1.6,1.3L165,140l-1.1-6.5
	c-0.1-0.7-0.4-1.3-1.1-1.4l-6.5-0.9l6.3-0.8c0.7-0.1,1.2-0.6,1.4-1.3L165,122.5z"/>
<path class="st9" d="M71.9,28.8l1,6.7c0.1,0.7,0.7,1.2,1.4,1.3l6.4,0.7l-6.1,0.8c-0.7,0.1-1.4,0.6-1.6,1.3l-1.1,6.7l-1.1-6.5
	c-0.1-0.7-0.4-1.3-1.1-1.4l-6.5-0.9l6.3-0.8c0.7-0.1,1.2-0.6,1.4-1.3L71.9,28.8z"/>
</svg>
