<?xml version="1.0" encoding="utf-8"?>
<!-- Generator: Adobe Illustrator 22.0.1, SVG Export Plug-In . SVG Version: 6.00 Build 0)  -->
<svg version="1.1" id="Layer_1" xmlns="http://www.w3.org/2000/svg" xmlns:xlink="http://www.w3.org/1999/xlink" x="0px" y="0px"
	 viewBox="0 0 244.9 245.9" style="enable-background:new 0 0 244.9 245.9;" xml:space="preserve">
<style type="text/css">
	.st0{fill:#FFFFFF;stroke:#152E48;stroke-width:3;stroke-linecap:round;stroke-miterlimit:10;stroke-dasharray:74,0,0;}
	.st1{fill:none;stroke:#C6C6C6;stroke-width:3;stroke-linecap:round;stroke-miterlimit:10;stroke-dasharray:7,0,0;}
	.st2{fill:#C6C6C6;}
	.st3{fill:#152E48;}
	.st4{fill:#F2F2F2;}
	.st5{fill:#C7C8CA;}
	.st6{fill:#009E25;}
	.st7{opacity:0.7;fill:#C5C9DB;enable-background:new    ;}
	.st8{fill:#FFFFFF;stroke:#C6C6C6;stroke-miterlimit:10;}
	.st9{fill:#FFFFFF;stroke:#152E48;stroke-miterlimit:10;}
</style>
<circle class="st0" cx="123" cy="123.5" r="93"/>
<circle class="st1" cx="123" cy="123.5" r="85.5"/>
<g>
	<g>
		<g>
			<path class="st2" d="M116.2,123.1l7.8-0.3l7.8,0.3l24.4,2.5c0.8-6.2,6.5-48.1,2.4-51.7c-2.9-2.6-16.9-3.5-33.1-3.6l0,0
				c-0.2,0-0.5,0-0.7,0c-0.3,0-0.5,0-0.8,0s-0.5,0-0.8,0c-0.2,0-0.5,0-0.7,0l0,0c-16.2,0.1-30.2,1-33.1,3.6
				c-4.1,3.6,1.5,45.5,2.3,51.7L116.2,123.1z"/>
			<path class="st3" d="M116.3,125.6l7.7-0.3l7.7,0.3H156c0.8-6,6-44.7,2-48.2c-2.8-2.5-16.6-3.4-32.5-3.5l0,0c-0.2,0-0.5,0-0.7,0
				c-0.3,0-0.5,0-0.8,0s-0.5,0-0.8,0c-0.2,0-0.5,0-0.7,0l0,0c-15.9,0.1-29.6,1-32.5,3.5c-4,3.6,1.1,42.2,2,48.2
				C92,125.6,116.3,125.6,116.3,125.6z"/>
			<path class="st4" d="M117.3,125.6l6.7-0.2l6.7,0.2H155c0.8-5.9,5.8-43.3,1.9-46.7c-2.8-2.4-16.1-3.3-31.5-3.4l0,0
				c-0.2,0-0.5,0-0.7,0c-0.3,0-0.5,0-0.8,0s-0.5,0-0.8,0c-0.2,0-0.5,0-0.7,0l0,0c-15.4,0.1-28.7,1-31.5,3.4
				c-3.9,3.4,1.1,40.8,1.9,46.7C92.8,125.6,117.3,125.6,117.3,125.6z"/>
		</g>
		<g>
			<path class="st2" d="M162.6,145.7c-7.2,0-1.2,0-12.1,0c-11.5,0-65.3,0-71.2,0c-4,0-4-1.4-3.6-2.4c-0.5,0.9-0.8,1.7-0.8,2.6
				c0.1,2,1.3,12.3,2.5,16.8c0.5,2.1,2.4,2.8,6.9,2.8s27.9,0,35,0h5c7.1,0,30.5,0,35,0s6.1-0.8,6.9-2.8c0.8-2,2.1-8.5,3.1-13.6
				c0.8-3.9,1-4.6-0.2-6.8c0,0.1,0,0.2,0.1,0.3C170.4,145.1,169.8,145.7,162.6,145.7z"/>
			<path class="st3" d="M159,128c-1.7-1.9-2.9-2.8-5.8-2.8c-8.2,0-30.9,0-39.8,0s-10.5,0-13,0c-5.9,0-4.3,0-5.9,0s-2.4,0.1-4,1.3
				c0,0-10.6,11.8-12.3,13.7c-1,1.1-1.9,2.1-2.5,3.2c-0.4,0.9-0.4,2.4,3.6,2.4c5.9,0,59.8,0,71.2,0c10.9,0,4.9,0,12.1,0
				c7.2,0,7.8-0.6,6.6-3.1c0-0.1-0.1-0.2-0.1-0.3c-0.4-0.7-0.9-1.5-1.6-2.6C163.9,134.2,159,128,159,128z"/>
			<g>
				<path class="st5" d="M168.5,142.3c0-0.1-0.1-0.2-0.1-0.3c-0.4-0.7-0.9-1.4-1.5-2.5c-3.6-5.3-8.4-11.2-8.4-11.2
					c-0.5-0.6-1-1-1.5-1.4c-1.1-0.9-2.2-1.3-4.2-1.3c-8.1,0-30.4,0-39.1,0s-10.3,0-12.8,0c-5.8,0-4.2,0-5.8,0
					c-1.6,0-2.3,0.1-3.9,1.3c0,0-10.4,11.2-12.1,13c-1,1-1.9,2-2.5,3c-0.4,0.9-0.4,2.3,3.5,2.3c5.8,0,58.8,0,70.1,0
					c4.3,0,5.9,0,6.8,0c1.3,0,0.9,0,5.1,0C169.1,145.2,169.7,144.6,168.5,142.3z"/>
			</g>
			<g>
				<path class="st3" d="M157,142.3c-0.5-1.5-1.1-8.1-0.6-9.8c0,0,0,0,0-0.1s5.7,6.8,6.1,7.3c-1.3-2.2-5-7.5-5.5-10
					c0-0.1,0.1-0.2,0.2-0.1c1.7,1.2,3,2.8,4.2,4.4c1.4,1.5,2.8,3.1,4.2,4.6c0.7,0.8,1.5,1.6,2.2,2.4c-0.2-0.4-0.5-0.8-0.9-1.3
					c-3.6-5.3-8.4-11.2-8.4-11.2c-0.5-0.6-1-1-1.5-1.4c-1.1-0.9-2.2-1.3-4.2-1.3h-51.9c-5.8,0-4.2,0-5.8,0c-1.6,0-2.3,0.1-3.9,1.3
					c0,0-2.9,3.1-5.8,6.2c1.6-1.3,5.2-3.7,5.1-3.6c-2,3.3-4.3,6.5-5.6,10.1c1.6-1.2,6.5-8.2,7.2-8.6c0.1-0.1-0.2,7.4,0,9
					c0.1,1.2,0.2,2.5-0.3,3.7c-0.2,0.5-0.5,1-0.9,1.4h67.7C157.9,144.3,157.3,143.3,157,142.3z"/>
			</g>
			<g>
				<path class="st3" d="M169.1,142.4c0,0.1,0,0.2,0.1,0.3c1,2.1,0.7,2.8-3.8,3c-0.4,1.9-1,5.3-1.9,10c-1.4,7.4-5.4,8.6-27.2,8.6
					c-18.6,0-49.4,0-58,0c1,0.9,2.9,1.3,6,1.3c4.5,0,27.9,0,35,0h5c7.1,0,30.5,0,35,0s6.1-0.8,6.9-2.8c0.8-2,2.1-8.5,3.1-13.6
					C170.1,145.3,170.3,144.6,169.1,142.4z"/>
			</g>
			<g>
				<path class="st3" d="M169.4,143.1l-0.4,2C169.8,144.7,169.8,144.1,169.4,143.1z"/>
				<path class="st3" d="M169.1,142.4c0,0.1,0,0.2,0.1,0.3c0.1,0.2,0.1,0.3,0.2,0.4V143C169.3,142.8,169.2,142.6,169.1,142.4z"/>
				<path class="st3" d="M169.4,143.1c0.4,1,0.4,1.6-0.4,2l-4.1,19.4c0.7-0.4,1.1-1,1.4-1.8c0.8-2,2.1-8.5,3.1-13.6
					C170.1,145.7,170.3,144.8,169.4,143.1L169.4,143.1z"/>
			</g>
		</g>
		<path class="st3" d="M78.2,145.7c0,0,0.7,0,1.8,0c1.2,0,2.8,0,4.8,0c3.9,0,9.2,0,14.5,0s10.5,0,14.5,0c2,0,3.6,0,4.8,0
			c1.2,0,1.8,0,1.8,0s-0.7,0-1.8,0c-1.2,0-2.8,0-4.8,0c-3.9,0-9.2,0-14.5,0s-10.5,0-14.5,0c-2,0-3.6,0-4.8,0
			C78.9,145.7,78.2,145.7,78.2,145.7z"/>
		<path class="st2" d="M95.1,126.6c0,0-1.8,0.2-1.6,1.3c0.2,1.1,0,13.7,0,13.7s-0.4,2.3,1.8,2.2c2.2-0.1,57.5,0,57.5,0
			s1.8,0,1.9-2.7c0.2-2.7,0-12,0-12s0.2-2.6-2.1-2.4H95.1V126.6z"/>
		<path class="st4" d="M97.3,132.6c1.8,1.6,4.1,2.7,6.3,3.7c4.6,2,9.7,3.2,14.7,3.5c8.3,0.5,16.9,0.4,24.5-3.1
			c8.6-4,12.2-9.8,9.9-9.6H95.1c0,0-1.6,0.2-1.4,1C94.7,129.9,95.7,131.3,97.3,132.6z"/>
		<path class="st2" d="M156.9,78.9c-2.8-2.4-16.1-3.3-31.5-3.4l0,0c-0.2,0-0.5,0-0.7,0c-0.3,0-0.5,0-0.8,0s-0.5,0-0.8,0
			c-0.2,0-0.5,0-0.7,0l0,0c-15.4,0.1-28.7,1-31.5,3.4c-3.9,3.4,1.1,40.8,1.9,46.7h24.3l6.7-0.2l6.7,0.2H155
			C155.9,119.7,160.8,82.3,156.9,78.9z M154.9,117.7c-0.8,7.9-1.7,5-3.4,1.5c-1.7-3.4-1.2,1.5-1.3,2.5s-2-1.2-4.2-3
			c-2.1-1.9,1.4,3.2,1.8,4.3c0.4,1.2-4.1,1-4.1,1s-41,0-42.9,0s1-1.1,3.4-3.1s-5.4,1.1-6.5,1.2c-1.1,0.2,1.2-2.9,2.7-6.6
			s-4.6,5.7-5.8,5.5c-1.2-0.3-2.7-18.9-3-26.2c-0.4-7.3,0.5-8,2.1-5.2c1.6,2.7-0.1-5.7,0.4-6.9c0.4-1.1,5.3,4.6,7.1,5.8
			c1.8,1.2-3.7-6.2-4.6-7.4c-0.9-1.2,0.4-1.7,0.4-1.7c7.2-2.4,18.4-1.9,18.4-1.9c4-0.8,33.7,0.4,35.3,0.8s-0.5,1.8-3.4,3.4
			c-2.9,1.7,6.9-2.1,7.5-0.2s-4.8,8.4-1.6,5.2c3.2-3.2,3.5-6.8,3.8-0.7C157.2,92.2,155.7,109.8,154.9,117.7z"/>
		<g>
			<g>
				<path class="st3" d="M142.4,151.6L142,151h-6.6l0,0c0,0.1-0.6,1.4-2.8,1.4c-2.3,0-18.1,0-20.3,0c-2.2,0-3.6-1.9-3.6-1.9l0,0
					l-7,0.4l-0.4,0.6l0.3,3.7c0,0,0.2,0.8,0.7,0.7c0,0,2.4-0.1,3.7-0.1c1.3,0,2.4-0.1,2.6-0.5c0.8,0.8,1.7,1.7,3.2,2.1
					c0.3,0.1,0.7,0.1,1,0.1c2.1,0,16.4,0,18.6,0c0.5,0,0.9,0,1.2-0.1c1.2-0.2,1.7-0.7,2.7-1.8c0,0,2.5,0,4.5,0
					c2.1,0,2.5-0.5,2.5-1.3C142.4,153.4,142.4,151.6,142.4,151.6L142.4,151.6z"/>
				<g>
					<path class="st6" d="M132.5,151.3c-2.3,0-18.1,0-20.3,0c-2.2,0-3.6-1.9-3.6-1.9l0,0l-0.3,0.6c0.2,0.2,1.9,1.9,3.6,1.9
						s17.4,0,19.4,0s3.1-0.1,4.3-1.4l-0.4-0.6C135.3,150,134.7,151.3,132.5,151.3z"/>
					<path class="st6" d="M142.4,150.5l-0.4-0.6h-6.6l0,0l0.4,0.6l0,0H142.4z"/>
				</g>
				<g>
					<path class="st3" d="M108.4,150l0.3,4.2c0.8,0.8,1.7,1.7,3.2,2.1v-4.4C110.3,151.9,108.6,150.2,108.4,150z"/>
					<path class="st3" d="M135.7,150.5c-0.9,1-1.8,1.3-3,1.4v4.4c1.2-0.2,1.7-0.7,2.7-1.8c0,0,0.4-0.4,0.4-1.2
						C135.7,152.4,135.7,150.5,135.7,150.5L135.7,150.5z"/>
					<path class="st3" d="M131.4,151.9c-2,0-17.7,0-19.4,0h-0.1v4.4c0.3,0.1,0.7,0.1,1,0.1c2.1,0,16.4,0,18.6,0c0.5,0,0.9,0,1.2-0.1
						v-4.4C132.3,151.9,131.9,151.9,131.4,151.9z"/>
				</g>
				<path class="st4" d="M142.4,150.5h-6.6c0,0,0,1.9,0,2.8c0,0.8-0.4,1.2-0.4,1.2s2.5,0,4.5,0c2.1,0,2.5-0.5,2.5-1.3
					C142.4,152.3,142.4,150.5,142.4,150.5L142.4,150.5z"/>
				<path class="st4" d="M101.7,149.8l-0.4,0.6l7.1-0.4l0,0l0.3-0.6L101.7,149.8z"/>
				<path class="st4" d="M108.4,150l-7.1,0.4l0.3,3.7c0,0,0.2,0.8,0.7,0.7c0,0,2.4-0.1,3.7-0.1c1.3,0,2.4-0.1,2.6-0.5L108.4,150
					L108.4,150z"/>
				<g>
					<path class="st4" d="M135.7,150.5c-0.2,0.2-0.4,0.4-0.6,0.5v3.7c0.1-0.1,0.2-0.2,0.2-0.3c0,0,0.4-0.4,0.4-1.2
						C135.7,152.4,135.7,150.5,135.7,150.5L135.7,150.5z"/>
				</g>
				<g>
					<path class="st6" d="M108.4,150L108.4,150h-0.2c0.1,0.7,0.2,2.6,0.2,3.6c0.1,1.1-2.9,0.9-6.6,1c0.1,0.2,0.3,0.3,0.5,0.3
						c0,0,2.4-0.1,3.7-0.1c1.3,0,2.4-0.1,2.6-0.5L108.4,150z"/>
				</g>
				<g>
					<path class="st6" d="M138.4,154.1c-1.8,0-2.4,0-2.4-0.5c0-0.4,0-2.3,0-3.1h-0.2c0,0,0,1.9,0,2.8c0,0.8-0.4,1.2-0.4,1.2
						s2.5,0,4.5,0c1,0,1.7-0.1,2-0.4C141,154.1,139.5,154.1,138.4,154.1z"/>
				</g>
				<path class="st6" d="M101.5,150.4c0,0,0.4,0,0.9-0.1c0.3,0,0.6-0.1,1-0.1s0.7-0.1,1.1-0.1s0.8,0,1.1-0.1c0.4,0,0.7,0,1,0
					c0.6,0,0.9,0,0.9,0s-0.4,0-0.9,0.1c-0.3,0-0.6,0.1-1,0.1s-0.7,0.1-1.1,0.1s-0.8,0-1.1,0.1c-0.4,0-0.7,0-1,0
					C101.8,150.4,101.5,150.4,101.5,150.4z"/>
				<path class="st4" d="M109.1,149.8c0,0,0.1,0.1,0.4,0.4c0.3,0.2,0.7,0.5,1.2,0.7c0.3,0.1,0.6,0.2,0.9,0.3s0.7,0,1,0
					c0.7,0,1.5,0,2.3,0s1.5,0,2.3,0c0.7,0,1.4,0,2,0c1.2,0,1.9,0,1.9,0s-0.8,0-1.9,0c-0.6,0-1.3,0-2,0s-1.5,0-2.3,0s-1.5,0-2.3,0
					c-0.4,0-0.7,0-1-0.1s-0.6-0.2-0.9-0.3c-0.5-0.2-0.9-0.6-1.2-0.8C109.2,150,109.1,149.8,109.1,149.8z"/>
			</g>
			<g>
				<path class="st4" d="M125,152.4h-10.8c0,0-1.9,0-2,0.6v1.8c0,0,0,0.5,0.2,0.3c0.3-0.3,0.1-1.7,1.1-1.9s16.8-0.5,16.8-0.5
					s1.7,0.2,1.6-0.2C131.8,152.2,125,152.4,125,152.4z"/>
			</g>
			<g>
				<g>
					<path class="st3" d="M141.6,152.6c0,0.3-0.2,0.5-0.5,0.5s-0.5-0.2-0.5-0.5s0.2-0.5,0.5-0.5S141.6,152.3,141.6,152.6z"/>
					<path class="st3" d="M141.5,152.7c0,0.2-0.2,0.4-0.4,0.4s-0.4-0.2-0.4-0.4s0.2-0.4,0.4-0.4S141.5,152.4,141.5,152.7z"/>
					<path class="st3" d="M141.5,152.7c0,0.2-0.2,0.4-0.4,0.4s-0.4-0.2-0.4-0.4s0.2-0.4,0.4-0.4S141.5,152.5,141.5,152.7z"/>
					<g>
						<path class="st3" d="M141.1,152.8C141.1,152.9,141.1,152.9,141.1,152.8L141.1,152.8c-0.1,0.1-0.1,0-0.1,0v-0.4
							c0,0,0-0.1,0.1-0.1l0,0c0,0,0.1,0,0.1,0.1v0.4H141.1z"/>
						<path class="st3" d="M140.9,152.7C140.8,152.7,140.8,152.7,140.9,152.7L140.9,152.7c-0.1-0.1,0-0.1,0-0.1h0.4
							c0,0,0.1,0,0.1,0.1l0,0c0,0,0,0.1-0.1,0.1h-0.4V152.7z"/>
					</g>
				</g>
				<g>
					<path class="st3" d="M137.4,152.6c0,0.3-0.2,0.5-0.5,0.5s-0.5-0.2-0.5-0.5s0.2-0.5,0.5-0.5S137.4,152.3,137.4,152.6z"/>
					<path class="st3" d="M137.3,152.7c0,0.2-0.2,0.4-0.4,0.4s-0.4-0.2-0.4-0.4s0.2-0.4,0.4-0.4S137.3,152.4,137.3,152.7z"/>
					<path class="st3" d="M137.3,152.7c0,0.2-0.2,0.4-0.4,0.4s-0.4-0.2-0.4-0.4s0.2-0.4,0.4-0.4S137.3,152.5,137.3,152.7z"/>
					<g>
						<path class="st3" d="M137,152.8C137,152.9,136.9,152.9,137,152.8L137,152.8c-0.1,0.1-0.1,0-0.1,0v-0.4c0,0,0-0.1,0.1-0.1l0,0
							c0,0,0.1,0,0.1,0.1v0.4H137z"/>
						<path class="st3" d="M136.7,152.7C136.7,152.7,136.6,152.7,136.7,152.7L136.7,152.7c-0.1-0.1,0-0.1,0-0.1h0.4
							c0,0,0.1,0,0.1,0.1l0,0c0,0,0,0.1-0.1,0.1h-0.4V152.7z"/>
					</g>
				</g>
			</g>
			<g>
				<g>
					<path class="st3" d="M107.6,152.6c0,0.3-0.2,0.5-0.5,0.5s-0.5-0.2-0.5-0.5s0.2-0.5,0.5-0.5S107.6,152.3,107.6,152.6z"/>
					<path class="st3" d="M107.5,152.7c0,0.2-0.2,0.4-0.4,0.4c-0.2,0-0.4-0.2-0.4-0.4s0.2-0.4,0.4-0.4S107.5,152.4,107.5,152.7z"/>
					<path class="st3" d="M107.5,152.7c0,0.2-0.2,0.4-0.4,0.4c-0.2,0-0.4-0.2-0.4-0.4s0.2-0.4,0.4-0.4S107.5,152.5,107.5,152.7z"/>
					<g>
						<path class="st3" d="M107.1,152.8C107.1,152.9,107.1,152.9,107.1,152.8L107.1,152.8C107,152.9,107,152.8,107.1,152.8l-0.1-0.4
							c0,0,0-0.1,0.1-0.1l0,0c0,0,0.1,0,0.1,0.1L107.1,152.8L107.1,152.8z"/>
						<path class="st3" d="M106.9,152.7C106.8,152.7,106.8,152.7,106.9,152.7L106.9,152.7c-0.1-0.1,0-0.1,0-0.1h0.4
							c0,0,0.1,0,0.1,0.1l0,0c0,0,0,0.1-0.1,0.1h-0.4V152.7z"/>
					</g>
				</g>
				<g>
					<path class="st3" d="M103.4,152.6c0,0.3-0.2,0.5-0.5,0.5s-0.5-0.2-0.5-0.5s0.2-0.5,0.5-0.5
						C103.2,152.1,103.4,152.3,103.4,152.6z"/>
					<path class="st3" d="M103.3,152.7c0,0.2-0.2,0.4-0.4,0.4c-0.2,0-0.4-0.2-0.4-0.4s0.2-0.4,0.4-0.4
						C103.1,152.3,103.3,152.4,103.3,152.7z"/>
					<path class="st3" d="M103.3,152.7c0,0.2-0.2,0.4-0.4,0.4c-0.2,0-0.4-0.2-0.4-0.4s0.2-0.4,0.4-0.4
						C103.1,152.3,103.3,152.5,103.3,152.7z"/>
					<g>
						<path class="st3" d="M103,152.8C103,152.9,102.9,152.9,103,152.8L103,152.8C102.9,152.9,102.9,152.8,103,152.8l-0.1-0.4
							c0,0,0-0.1,0.1-0.1l0,0c0,0,0.1,0,0.1,0.1L103,152.8L103,152.8z"/>
						<path class="st3" d="M102.7,152.7C102.7,152.7,102.6,152.7,102.7,152.7L102.7,152.7c-0.1-0.1,0-0.1,0-0.1h0.4
							c0,0,0.1,0,0.1,0.1l0,0c0,0,0,0.1-0.1,0.1h-0.4V152.7z"/>
					</g>
				</g>
			</g>
		</g>
		<path class="st3" d="M108,123.6c-0.3,0-0.5-0.2-0.5-0.5c-1.8-22.4-2.5-44-2.5-44.2c0-0.3,0.2-0.5,0.5-0.5l0,0
			c0.3,0,0.5,0.2,0.5,0.5c0,0.2,0.7,21.7,2.5,44.2C108.6,123.4,108.3,123.6,108,123.6L108,123.6z"/>
	</g>
	<path class="st7" d="M91.3,127.3c0,0,0.9-1.3,2.9-1.5H153c0,0,1.9-0.1,3.6,1.2c0,0-2-0.9-3.6-0.8H94.2
		C94.2,126.1,92.4,126.2,91.3,127.3z"/>
	<g>
		<path class="st2" d="M108.3,78.6c0,0-1.7-0.4-1.6,0.7s0.6,16,0.9,21.4c1,16.8,1.4,21.5,1.7,21.9c0.5,0.5,0.7,0.9,2.5,0.8
			s5.9-0.3,5.9-0.3s1.5-0.6-0.7-0.7c-2.1-0.1-5-0.8-5-0.8s1.3-1.5,1.1-2.3c-0.2-0.7-3.4,1.8-3.4,1.8s-2.3-30.5-2-36.7
			c0,0-0.5-3.8,0.8-3.1c1.3,0.7,5.8,5.7,4,3.1s-4.2-4.4-3.3-4.5c0.9-0.1,5.2-1,3.9-1.4C112,78.2,108.3,78.6,108.3,78.6z"/>
		<path class="st2" d="M107.9,122.5C107.8,122.5,107.8,122.4,107.9,122.5c-1.1-9.8-2.5-43.2-2.5-43.5c0-0.1,0.1-0.1,0.1-0.1
			c0.1,0,0.1,0.1,0.1,0.1C105.6,79.3,107.1,112.7,107.9,122.5C108,122.4,108,122.5,107.9,122.5L107.9,122.5z"/>
		<g>
			<path class="st3" d="M108.5,123.4c0,0-1,0.3-1.1-0.4c-0.2-0.7-0.2-1.2,0.2-1.3c0.3-0.1,1-0.2,1.1,0.2
				C108.8,122.2,109,123.4,108.5,123.4z"/>
			<g>
				<path class="st3" d="M108.2,122.8c0,0,0.6,0.9,1.6,1.3c1.1,0.4,2.6,0.8,2.6,0.8s0.5,0.3,0.7,0s0.6-1.7,0.4-2.1s-0.1-0.4-0.4-0.5
					s-3.2-0.8-3.2-0.8s-0.7-0.1-1.3,0.2C108,122.1,107.5,122.1,108.2,122.8z"/>
				<g>
					<path class="st3" d="M108,122.9c0,0,0.6,0.9,1.6,1.3c1.1,0.4,2.6,0.8,2.6,0.8s0.5,0.3,0.7,0c0.3-0.3,0.6-1.7,0.4-2.1
						s-0.1-0.4-0.4-0.5s-3.2-0.8-3.2-0.8s-0.7-0.1-1.3,0.2C107.8,122.2,107.4,122.2,108,122.9z"/>
				</g>
			</g>
		</g>
	</g>
	<path class="st3" d="M89.9,76.7l-0.3-1.6c0,0-0.3-1,0.7-1.4c0.9-0.4,11.6-3.1,37.4-2.9c0,0-22.6,0.2-34.9,2.9c0,0-1,0.3-0.8,0.9
		s0.1,1.2,0.1,1.2L89.9,76.7z"/>
	<path class="st3" d="M81,146.6l-3.8-0.1c0,0-0.9,0-1.6-0.9c0,0-0.4-0.3-0.3,0.5s2.3,15.1,2.3,15.1s0.4,2.4,2.1,2.5
		c0,0-1.1-1.3-1.3-2.7c-0.2-1.3-1.3-12.8-1.3-12.8s-0.3-0.8,1.1-0.9c1.3-0.1,26.6-0.9,26.6-0.9H81V146.6z"/>
</g>
<circle class="st8" cx="130.9" cy="221.5" r="5"/>
<circle class="st8" cx="218.8" cy="106" r="5"/>
<circle class="st8" cx="19.8" cy="132" r="5"/>
<circle class="st8" cx="142.4" cy="224.6" r="2.5"/>
<circle class="st9" cx="180.2" cy="124" r="5"/>
<circle class="st9" cx="189.5" cy="131.5" r="2.5"/>
<circle class="st9" cx="123.7" cy="49.5" r="5"/>
<circle class="st9" cx="115.7" cy="58.4" r="2.5"/>
<circle class="st8" cx="101.3" cy="33.3" r="2.5"/>
<g>
	<path class="st2" d="M196.1,215.8L196.1,215.8c-0.4,0-0.7-0.3-0.7-0.7v-4.5c0-0.4,0.3-0.7,0.7-0.7l0,0c0.4,0,0.7,0.3,0.7,0.7v4.5
		C196.8,215.5,196.5,215.8,196.1,215.8z"/>
	<path class="st2" d="M196.1,208.1L196.1,208.1c-0.4,0-0.7-0.3-0.7-0.7v-4.5c0-0.4,0.3-0.7,0.7-0.7l0,0c0.4,0,0.7,0.3,0.7,0.7v4.5
		C196.8,207.8,196.5,208.1,196.1,208.1z"/>
	<path class="st2" d="M189.3,209L189.3,209c0-0.4,0.3-0.7,0.7-0.7h4.5c0.4,0,0.7,0.3,0.7,0.7l0,0c0,0.4-0.3,0.7-0.7,0.7H190
		C189.6,209.7,189.3,209.4,189.3,209z"/>
	<path class="st2" d="M197,209L197,209c0-0.4,0.3-0.7,0.7-0.7h4.5c0.4,0,0.7,0.3,0.7,0.7l0,0c0,0.4-0.3,0.7-0.7,0.7h-4.5
		C197.3,209.7,197,209.4,197,209z"/>
</g>
<g>
	<path class="st2" d="M105.3,26.6L105.3,26.6c-0.2,0-0.4-0.2-0.4-0.4v-2.4c0-0.2,0.2-0.4,0.4-0.4l0,0c0.2,0,0.4,0.2,0.4,0.4v2.4
		C105.7,26.4,105.5,26.6,105.3,26.6z"/>
	<path class="st2" d="M105.3,22.5L105.3,22.5c-0.2,0-0.4-0.2-0.4-0.4v-2.4c0-0.2,0.2-0.4,0.4-0.4l0,0c0.2,0,0.4,0.2,0.4,0.4v2.4
		C105.7,22.3,105.5,22.5,105.3,22.5z"/>
	<path class="st2" d="M101.7,23L101.7,23c0-0.2,0.2-0.4,0.4-0.4h2.4c0.2,0,0.4,0.2,0.4,0.4l0,0c0,0.2-0.2,0.4-0.4,0.4h-2.4
		C101.9,23.3,101.7,23.2,101.7,23z"/>
	<path class="st2" d="M105.8,23L105.8,23c0-0.2,0.2-0.4,0.4-0.4h2.4c0.2,0,0.4,0.2,0.4,0.4l0,0c0,0.2-0.2,0.4-0.4,0.4h-2.4
		C106,23.3,105.8,23.2,105.8,23z"/>
</g>
<g>
	<path class="st2" d="M29.1,93.6L29.1,93.6c-0.2,0-0.4-0.2-0.4-0.4v-2.4c0-0.2,0.2-0.4,0.4-0.4l0,0c0.2,0,0.4,0.2,0.4,0.4v2.4
		C29.5,93.4,29.3,93.6,29.1,93.6z"/>
	<path class="st2" d="M29.1,89.5L29.1,89.5c-0.2,0-0.4-0.2-0.4-0.4v-2.4c0-0.2,0.2-0.4,0.4-0.4l0,0c0.2,0,0.4,0.2,0.4,0.4v2.4
		C29.5,89.3,29.3,89.5,29.1,89.5z"/>
	<path class="st2" d="M25.5,90L25.5,90c0-0.2,0.2-0.4,0.4-0.4h2.4c0.2,0,0.4,0.2,0.4,0.4l0,0c0,0.2-0.2,0.4-0.4,0.4h-2.4
		C25.6,90.4,25.5,90.2,25.5,90z"/>
	<path class="st2" d="M29.6,90L29.6,90c0-0.2,0.2-0.4,0.4-0.4h2.4c0.2,0,0.4,0.2,0.4,0.4l0,0c0,0.2-0.2,0.4-0.4,0.4H30
		C29.8,90.4,29.6,90.2,29.6,90z"/>
</g>
<g>
	<path class="st2" d="M224.4,125.2L224.4,125.2c-0.2,0-0.4-0.2-0.4-0.4v-2.4c0-0.2,0.2-0.4,0.4-0.4l0,0c0.2,0,0.4,0.2,0.4,0.4v2.4
		C224.8,125,224.7,125.2,224.4,125.2z"/>
	<path class="st2" d="M224.4,121.1L224.4,121.1c-0.2,0-0.4-0.2-0.4-0.4v-2.4c0-0.2,0.2-0.4,0.4-0.4l0,0c0.2,0,0.4,0.2,0.4,0.4v2.4
		C224.8,120.9,224.7,121.1,224.4,121.1z"/>
	<path class="st2" d="M220.8,121.6L220.8,121.6c0-0.2,0.2-0.4,0.4-0.4h2.4c0.2,0,0.4,0.2,0.4,0.4l0,0c0,0.2-0.2,0.4-0.4,0.4h-2.4
		C221,122,220.8,121.8,220.8,121.6z"/>
	<path class="st2" d="M224.9,121.6L224.9,121.6c0-0.2,0.2-0.4,0.4-0.4h2.4c0.2,0,0.4,0.2,0.4,0.4l0,0c0,0.2-0.2,0.4-0.4,0.4h-2.4
		C225.1,122,224.9,121.8,224.9,121.6z"/>
</g>
<g>
	<path class="st2" d="M176.8,36.6L176.8,36.6c-0.4,0-0.7-0.3-0.7-0.7v-4.5c0-0.4,0.3-0.7,0.7-0.7l0,0c0.4,0,0.7,0.3,0.7,0.7v4.5
		C177.5,36.3,177.2,36.6,176.8,36.6z"/>
	<path class="st2" d="M176.8,28.9L176.8,28.9c-0.4,0-0.7-0.3-0.7-0.7v-4.5c0-0.4,0.3-0.7,0.7-0.7l0,0c0.4,0,0.7,0.3,0.7,0.7v4.5
		C177.5,28.5,177.2,28.9,176.8,28.9z"/>
	<path class="st2" d="M170,29.8L170,29.8c0-0.4,0.3-0.7,0.7-0.7h4.5c0.4,0,0.7,0.3,0.7,0.7l0,0c0,0.4-0.3,0.7-0.7,0.7h-4.5
		C170.3,30.5,170,30.2,170,29.8z"/>
	<path class="st2" d="M177.7,29.8L177.7,29.8c0-0.4,0.3-0.7,0.7-0.7h4.5c0.4,0,0.7,0.3,0.7,0.7l0,0c0,0.4-0.3,0.7-0.7,0.7h-4.5
		C178,30.5,177.7,30.2,177.7,29.8z"/>
</g>
<g>
	<path class="st2" d="M21.6,166.6L21.6,166.6c-0.4,0-0.7-0.3-0.7-0.7v-4.5c0-0.4,0.3-0.7,0.7-0.7l0,0c0.4,0,0.7,0.3,0.7,0.7v4.5
		C22.3,166.3,22,166.6,21.6,166.6z"/>
	<path class="st2" d="M21.6,158.8L21.6,158.8c-0.4,0-0.7-0.3-0.7-0.7v-4.5c0-0.4,0.3-0.7,0.7-0.7l0,0c0.4,0,0.7,0.3,0.7,0.7v4.5
		C22.3,158.5,22,158.8,21.6,158.8z"/>
	<path class="st2" d="M14.8,159.8L14.8,159.8c0-0.4,0.3-0.7,0.7-0.7H20c0.4,0,0.7,0.3,0.7,0.7l0,0c0,0.4-0.3,0.7-0.7,0.7h-4.5
		C15.1,160.5,14.8,160.2,14.8,159.8z"/>
	<path class="st2" d="M22.5,159.8L22.5,159.8c0-0.4,0.3-0.7,0.7-0.7h4.5c0.4,0,0.7,0.3,0.7,0.7l0,0c0,0.4-0.3,0.7-0.7,0.7h-4.5
		C22.8,160.5,22.5,160.2,22.5,159.8z"/>
</g>
<g>
	<path class="st3" d="M68.2,95.9L68.2,95.9c-0.4,0-0.7-0.3-0.7-0.7v-4.5c0-0.4,0.3-0.7,0.7-0.7l0,0c0.4,0,0.7,0.3,0.7,0.7v4.5
		C68.9,95.6,68.6,95.9,68.2,95.9z"/>
	<path class="st3" d="M68.2,88.1L68.2,88.1c-0.4,0-0.7-0.3-0.7-0.7V83c0-0.4,0.3-0.7,0.7-0.7l0,0c0.4,0,0.7,0.3,0.7,0.7v4.5
		C68.9,87.8,68.6,88.1,68.2,88.1z"/>
	<path class="st3" d="M61.4,89.1L61.4,89.1c0-0.4,0.3-0.7,0.7-0.7h4.5c0.4,0,0.7,0.3,0.7,0.7l0,0c0,0.4-0.3,0.7-0.7,0.7h-4.5
		C61.7,89.8,61.4,89.5,61.4,89.1z"/>
	<path class="st3" d="M69.1,89.1L69.1,89.1c0-0.4,0.3-0.7,0.7-0.7h4.5c0.4,0,0.7,0.3,0.7,0.7l0,0c0,0.4-0.3,0.7-0.7,0.7h-4.5
		C69.4,89.8,69.1,89.5,69.1,89.1z"/>
</g>
<path class="st2" d="M162,178.9h-48.2c-0.9,0-1.6-0.7-1.6-1.6l0,0c0-0.9,0.7-1.6,1.6-1.6H162c0.9,0,1.6,0.7,1.6,1.6l0,0
	C163.6,178.1,162.9,178.9,162,178.9z"/>
<path class="st2" d="M141.9,184.1H119c-0.9,0-1.6-0.7-1.6-1.6l0,0c0-0.9,0.7-1.6,1.6-1.6h22.9c0.9,0,1.6,0.7,1.6,1.6l0,0
	C143.6,183.4,142.8,184.1,141.9,184.1z"/>
<path class="st2" d="M108.9,178.9h-3c-0.9,0-1.6-0.7-1.6-1.6l0,0c0-0.9,0.7-1.6,1.6-1.6h3c0.9,0,1.6,0.7,1.6,1.6l0,0
	C110.5,178.1,109.8,178.9,108.9,178.9z"/>
</svg>
