<?xml version="1.0" encoding="utf-8"?>
<!-- Generator: Adobe Illustrator 22.0.1, SVG Export Plug-In . SVG Version: 6.00 Build 0)  -->
<svg version="1.1" id="Layer_1" xmlns="http://www.w3.org/2000/svg" xmlns:xlink="http://www.w3.org/1999/xlink" x="0px" y="0px"
	 viewBox="0 0 865.5 777" style="enable-background:new 0 0 865.5 777;" xml:space="preserve">
<style type="text/css">
	.st0{fill:none;stroke:#152E48;stroke-width:5;stroke-miterlimit:10;stroke-dasharray:26.3119,26.3119;}
	.st1{fill:none;stroke:#C6C6C6;stroke-width:4;stroke-miterlimit:10;stroke-dasharray:4;}
	.st2{fill:#FFFFFF;}
	.st3{fill:#009E25;}
	.st4{fill:#152E48;}
	.st5{fill:#333333;}
</style>
<image style="display:none;overflow:visible;" width="2306" height="2226" xlink:href="2512101.png"  transform="matrix(0.36 0 0 0.36 53 -40.9946)">
</image>
<g>
	<ellipse class="st0" cx="477.3" cy="418.3" rx="300.7" ry="302.3"/>
</g>
<path class="st1" d="M656,162.7c0,0,129.2-14.8,154.9,82.5c13.8,52.4-10.3,107.4-57.4,134.3c-54.1,30.8-206,59.1-382.5-16.4"/>
<path class="st1" d="M711.7,229c0,0,228,96.6-37.1,353.1c-63.1,61.1-143.3,102-230.2,115.5c-42.1,6.5-89.3,7.3-138.5-3.5
	c0,0-98.7-22-86.3-110"/>
<path class="st1" d="M193.3,500c0,0,166.3,208.8,485.5,142.7c0,0,185.2-45.8,124.1-207.1"/>
<g>
	<path class="st2" d="M211.6,444.7c-4.7,18.9-7.9,38.1-11.4,57.2c-0.1,0.7-0.9,1.1-1.5,1c-32.4-6.8-65.1-12.3-97.9-16.9
		c-0.7-0.1-0.9-0.8-0.9-1.3c2.3-19.8,5.2-41.6,13.7-59.8c-0.1-1,0.5-1.9,1.7-2c2.9-0.1,5.8,0,8.6,0.2c-0.3-1.4-0.5-2.8-0.6-4.3
		c0-1.3,1.4-2.3,2.6-1.7c2.9,1.5,6.6,1.9,9.8,2.6c3.8,0.9,7.6,1.7,11.5,1.9c1.1,0.1,1.9,0.8,1.7,2c-0.3,1.7-0.3,1.7-1.1,3.2
		c0,0-0.1,0.1-0.1,0.1c5.1,1.1,10.1,2.3,15.2,3.4c15.8,3.4,33.3,5.3,47.8,12.7C211.4,443.3,211.8,444.1,211.6,444.7z"/>
	<g>
		<path class="st3" d="M188.1,449.1c-1.3-1.8-2.8-3.3-4.8-4.2c-6.1-3-14.9-2.1-20.7,1.6c0,0,0,0-0.1,0c-16.3,3.5-15.8,27.3-3.9,35.3
			c2.2,1.5,4.7,2.4,7.1,2.9c0.3,0,0.5,0.1,0.8,0.1c0.1,0,0.1,0.1,0.2,0.1c1.3,0.7,2.6,1.2,3.9,1.5
			C187.9,490.7,201,459.3,188.1,449.1z M165.9,477.9c-5.7-3.7-7.4-8.3-6.2-15.1c0.5-2.7,1.2-6,2.8-8.3c4.9-7.1,18.4-7.7,22.1,0.5
			c4.8,10.8-3.3,24.8-15,24.5c-0.3,0-0.5,0-0.8,0c0,0-0.1,0-0.1-0.1C167.8,479,166.9,478.5,165.9,477.9z"/>
		<g>
			<path class="st4" d="M210.8,443c-14.5-7.4-32-9.2-47.8-12.7c-5.1-1.1-10.2-2.3-15.2-3.4c0,0,0.1-0.1,0.1-0.1
				c0.8-1.5,0.8-1.5,1.1-3.2c0.2-1.2-0.6-1.9-1.7-2c-3.9-0.2-7.7-1-11.5-1.9c-3.2-0.7-6.9-1.1-9.8-2.6c-1.2-0.6-2.6,0.4-2.6,1.7
				c0.1,1.6,0.2,2.9,0.6,4.3c-2.8-0.2-5.7-0.3-8.6-0.2c-1.2,0-1.8,1-1.7,2c-8.5,18.2-11.5,40-13.7,59.8c-0.1,0.6,0.2,1.3,0.9,1.3
				c32.8,4.6,65.5,10.1,97.9,16.9c0.7,0.1,1.4-0.3,1.5-1c3.5-19.1,6.7-38.4,11.4-57.2C211.8,444.1,211.4,443.3,210.8,443z
				 M126.6,421.3c2.7,1,5.6,1.4,8.4,1.9c3.5,0.7,6.9,1.2,10.4,1.5c0,0.4,0,0.8,0.1,1.5c0,0,0,0.1,0,0.1c-6.4-1.4-12.9-2.5-19.5-3.1
				C126.3,422.7,126.4,422,126.6,421.3z M121.2,487.5c-3.1-0.5-6.3-1.1-9.4-1.6c-2.3-0.4-7.4-0.5-8.8-2.4c-1.4-1.9,0.3-6.9,0.7-9.2
				c0.5-3.2,1.1-6.5,1.8-9.7c2.6-12.8,6.9-25.2,9.7-37.9c0.1,0,0.3,0,0.4,0c6.5-0.3,13.1,0,19.7,0.6c-0.4,0.7-0.4,1.1-0.3,1.9
				c-2.2,9.8-3.1,19.7-5.1,29.5c-1,4.8-2,9.7-3,14.5c-1,4.8-3,9.8-3.1,14.6C122.9,487.8,122.1,487.6,121.2,487.5z M206.6,453.6
				c-0.7,3.2-1.4,6.3-2,9.5c-2.5,12.3-4.9,24.7-6.7,37.1c-24.4-3.5-48.6-8-72.9-12.1c1.7-4.1,1.8-9,2.7-13.4
				c1.1-5.2,2.2-10.5,3.3-15.7c2.2-10.5,5.7-20.6,7.5-31.3v0c17.2,2,34.4,6.4,50.9,10.7c2.6,0.7,5.2,1.4,7.7,2.2
				c1.7,0.6,9,2.4,10.3,4.2C209,447.2,207.1,451,206.6,453.6z"/>
			<path class="st4" d="M187.1,444.8c-6.9-4.6-14.2-4.9-20.7-2.4c-5.2,0.6-10.1,4.5-13.3,8.5c-4.5,5.7-6.7,13.5-5,20.7
				c1.8,7.3,7.3,13.8,14.6,16c6.5,2,16.4,2,22-2.3C197,475.7,201.5,454.4,187.1,444.8z M165.8,484.7c-5.8-1.5-11-5.3-13.3-10.9
				c-2.6-6.1-1.5-13.6,2-19.6c7-8.1,18.4-12.9,28.5-7.9c13.6,6.8,11,22.8,2.8,32.9c-4.6,5.6-12.2,7.3-19.1,5.7
				C166.5,484.9,166.1,484.8,165.8,484.7z"/>
			<path class="st4" d="M186.4,454.9c-4-8.6-11.8-9.2-18.2-5.6c-8.4,0.2-14.7,12.7-12.4,20c1.8,5.8,7.2,9.3,13,10.1
				c0.3,0,0.6,0.1,0.9,0.1c3.3,0.3,6.6-0.2,9.4-1.6C187.7,473.5,190.4,463.6,186.4,454.9z M169.1,458.7c-3.5,0.2-3.4-4-1.4-5.9
				c0.2-0.1,0.5-0.2,0.7-0.3c1,0.2,1.8,0.8,2.4,1.7C171.7,455.8,171.4,458.5,169.1,458.7z M169.5,471c-5.7-0.7-3.4-7.1-0.1-10.2
				c0.3,0.2,0.6,0.3,1.1,0.1C175.6,459.1,177.8,472.1,169.5,471z"/>
			<path class="st4" d="M122.8,486.3c-1.6-0.9-3.1-1.8-4.4-3.3c-0.1-0.1-0.3,0-0.2,0.2c1,1.7,2.5,3.2,4.4,3.8
				C123,487.2,123.2,486.5,122.8,486.3z"/>
			<path class="st4" d="M120,482.2c0.8,0.5,1.7,1.3,2.7,1.4c0.3,0,0.5-0.3,0.3-0.5c-0.6-0.7-1.8-1-2.7-1.4
				C119.9,481.6,119.7,482,120,482.2z"/>
			<path class="st4" d="M123.3,478.5c0.1-0.1,0.2-0.3,0-0.4c-0.6-0.3-1.1-0.2-1.6-0.8c-0.2-0.3-0.7,0-0.5,0.3
				C121.6,478.2,122.6,479,123.3,478.5z"/>
			<path class="st4" d="M125.6,455.5c0.1-0.2-0.2-0.3-0.3-0.3c-0.4,0.1-0.9,0.2-1.2-0.1c-0.4-0.3-1,0.3-0.6,0.6
				C124.1,456.3,125.3,456.4,125.6,455.5z"/>
			<path class="st4" d="M190.4,493.4c-0.4-0.5-0.8-1-1.3-1.4c-0.2-0.2-0.5,0-0.4,0.3c0.2,0.6,0.5,1.2,0.8,1.8
				c0.3,0.6,0.6,1.2,1.2,1.6c0.4,0.3,0.9,0,0.8-0.5C191.3,494.5,190.8,493.9,190.4,493.4z"/>
			<path class="st4" d="M193,491.6c-0.3-0.4-0.5-0.8-0.6-1.3c-0.1-0.4-0.7-0.4-0.7,0c0.1,1,0.5,2.5,1.7,2.5c0.2,0,0.2-0.2,0.2-0.3
				C193.5,492.2,193.3,492,193,491.6z"/>
			<path class="st4" d="M142,435.2c-0.3-0.5-0.5-1-0.8-1.5c-0.2-0.4-0.9-0.1-0.8,0.3c0,0,0,0,0,0c0,0,0,0,0,0c0,0,0,0,0,0
				c0.1,1,0.6,2.7,1.8,2.9c0.2,0,0.4-0.1,0.4-0.4C142.5,436,142.2,435.6,142,435.2z"/>
			<path class="st4" d="M144.1,433.5c-0.3-0.3-0.8,0-0.6,0.4c0.3,0.4,0.6,0.8,0.8,1.2c0.3,0.3,0.5,0.7,0.8,1c0.3,0.2,0.7,0,0.6-0.4
				C145.5,434.8,144.7,434.1,144.1,433.5z"/>
			<path class="st4" d="M200.8,451.2c-0.4-0.3-0.9,0.2-0.5,0.6c0.9,0.7,1.8,1.7,2.8,2.2c0.3,0.1,0.7-0.2,0.4-0.5
				C202.8,452.5,201.7,451.9,200.8,451.2z"/>
			<path class="st4" d="M202,449.6c0.7,0,1.3,0.4,2,0.6c0.2,0.1,0.4-0.2,0.3-0.4c-0.5-0.8-1.5-1-2.3-1
				C201.4,448.9,201.5,449.6,202,449.6z"/>
		</g>
	</g>
</g>
<g>
	<path class="st2" d="M845.3,414.6c-4.5,8.3-9,16.9-14.6,24.5c-0.4,0.5-0.9,0.4-1.2,0.1c-3.2,1.1-8.6-0.5-11.8-0.7
		c-4.9-0.3-10-0.2-14.9-1c0,0.3-0.1,0.5-0.3,0.8c-4.2,4.6-8.6,9-12.7,13.6c-2.2,2.4-4.3,4.9-6.4,7.3c-0.9,1-1.7,2.2-2.8,2.8
		c-0.1,0.2-0.3,0.4-0.6,0.4c-8,1.3-16,1.9-24,2.7c-2.4,0.2-4.8,0.5-7.2,0.7c-1.7,0.1-4.6,1-6.2,0.4c-1.3-0.4-0.9,0.1-1.7-0.9
		c-0.4,0.2-1,0.2-1.4-0.3c-0.1-0.2-0.3-0.4-0.4-0.6c0,0,0,0,0,0c-12.6-17.1-26.6-33.8-37.8-51.8c-0.1-0.2,0.1-0.4,0.3-0.3
		c0,0,0,0,0,0c2-1.7,3.5-1.3,6.2-1.3c4.1,0,8.3-0.1,12.4-0.2c7.6,0,16.1-0.3,23.4,2.3c2.3-4.3,5.7-8.2,8.9-11.9
		c1.9-2.2,3.8-4.4,5.8-6.5c0.8-0.8,1.6-1.7,2.4-2.5c0.6-0.6,1.2-1.3,1.8-1.9c0.1,0,0.2-0.1,0.3-0.1c0.3-0.5,0.6-0.8,0.9-1.1
		c0,0,0,0,0-0.1c0,0,0-0.1,0-0.1c0.1-0.3,0.3-0.4,0.6-0.4c1.1-0.8,2.5-0.9,5-0.5c7.9,1.2,15.2,4.7,23.1,5.7
		c3.4-7.9,7.2-15.6,11.7-23c0.4-0.7,1.3-0.8,1.9-0.2c7,6.7,13.5,13.8,19.7,21.3c6.2,7.6,11.6,15.2,19.5,21.4
		C845.5,413.5,845.5,414.2,845.3,414.6z"/>
	<g>
		<path class="st3" d="M835.1,412.5c-0.8-2.1-3.2-4.1-4.6-5.7c-2.4-2.7-4.8-5.5-7.2-8.1c-0.8-0.9-1.5-1.7-2.3-2.6
			c-0.1-0.1-0.3-0.3-0.4-0.4c0,0-0.1-0.1-0.1-0.1c-0.7-0.8-1.5-1.6-2.2-2.4c-1.5-1.7-3.1-3.3-4.6-5c-2-2.1-3.9-4.2-5.9-6.3
			c-1.1-1.2-2.7,0.3-2.1,1.6c0.4,1,0.1,2.6-0.5,4.3c-0.9,2.4-2.4,5-3.8,7c-0.8,1.1-1.5,2.1-2,2.6c-0.5,0.5-1.2,0.9-1.9,1.1
			c-0.2,0-0.3,0.1-0.5,0.1c-3.2,0.6-7.7-1.1-10.7-1.6c-4.3-0.7-10.7-2.7-15.2-1.4c-0.2,0.1-0.5,0.2-0.7,0.2h0
			c-0.4,0.2-0.8,0.3-1.2,0.6c-3.2,1.8-6.1,5.7-8.7,8.3c-3,3-6,6.1-8.9,9.3c-1.2,1.3-2.5,3.2-4,4.3c0,0,0,0-0.1,0
			c-0.2,0.1-0.4,0.3-0.5,0.4c-0.6,0.4-1.2,0.7-1.8,0.9c-0.6,0.2-1.2,0.3-1.9,0.4c-2,0.2-4,0-5.9-0.1c-3-0.1-6-0.3-9-0.5
			c-1.1,0-2.3-0.1-3.4-0.2c-1.3-0.1-2.6-0.1-3.9-0.2c-0.3,0-0.4,0.1-0.6,0.2c-0.5-0.1-1.2,0.2-1.3,0.8c0,0,0,0.1,0,0.2
			c0,0.1,0,0.2,0.1,0.3c0.1,0.3,0.2,0.6,0.3,0.9c2.4,6.2,5.7,11.5,10.3,16.4c1.1,1.2,2.2,2.3,3.2,3.5c4.3,5,7.9,10.1,11.5,15.7
			c0.3,0.5,0.6,1,0.9,1.5c0,0,0.1,0.1,0.1,0.1c0.1,0.2,0.2,0.4,0.4,0.6c0.1,0.2,0.4,0.5,0.7,0.6c0.2,0.1,0.4,0.2,0.7,0.1
			c0.1,0,0.2,0,0.3-0.1c3.3-1.4,6.4-2.3,9.6-2.9c3.6-0.7,7.2-1,11.1-1.1c0.7,0,1.5-0.1,2.2-0.1c0.7,0,1.4-0.1,2-0.2
			c0.3-0.1,0.7-0.1,1-0.2c0,0,0.1,0,0.1,0c3.4-0.9,5.5-3.2,8.3-6.1c4.8-5.2,10.3-11.2,16.1-15.3c0.4-0.3,0.8-0.5,1.3-0.8
			c0.2-0.1,0.4-0.2,0.5-0.3c2.6-1.1,5.7-1.3,8.4-1.8c0.6-0.1,1.3-0.2,1.9-0.3c1-0.2,2-0.3,3-0.4c3.1-0.4,6.1-0.6,9.3-0.2
			c0.1,0,0.3,0,0.4,0c0.6,0,1.1,0,1.5-0.1c3.1-0.7,4.6-4,6.7-7C832.9,420.1,836.7,416.4,835.1,412.5z"/>
		<g>
			<path class="st5" d="M801.3,394.9c1.4-2,2.9-4.7,3.8-7C803.8,390.2,802.5,392.5,801.3,394.9z M845.1,413.2
				c-7.8-6.1-13.2-13.7-19.5-21.4c-6.1-7.5-12.7-14.6-19.7-21.3c-0.6-0.5-1.5-0.4-1.9,0.2c-4.5,7.3-8.3,15.1-11.7,23
				c-7.9-1-15.2-4.5-23.1-5.7c-2.5-0.4-3.9-0.3-5,0.5c-0.2,0-0.5,0.1-0.6,0.4c0,0,0,0.1,0,0.1c0,0,0,0,0,0.1
				c-0.3,0.3-0.6,0.7-0.9,1.1c-0.1,0-0.2,0.1-0.3,0.1c-0.6,0.6-1.2,1.2-1.8,1.9c-0.8,0.8-1.6,1.7-2.4,2.5c-2,2.2-3.9,4.3-5.8,6.5
				c-3.1,3.7-6.6,7.5-8.9,11.9c-7.3-2.5-15.8-2.3-23.4-2.3c-4.1,0-8.3,0.1-12.4,0.2c-2.7,0-4.3-0.3-6.2,1.3c0,0,0,0,0,0
				c-0.2-0.1-0.4,0.1-0.3,0.3c11.2,18.1,25.2,34.7,37.8,51.8c0,0,0,0,0,0c0.1,0.2,0.3,0.4,0.4,0.6c0.4,0.5,1,0.5,1.4,0.3
				c0.8,1,0.4,0.5,1.7,0.9c1.6,0.5,4.5-0.3,6.2-0.4c2.4-0.2,4.8-0.4,7.2-0.7c8-0.8,16.1-1.4,24-2.7c0.3,0,0.5-0.2,0.6-0.4
				c1.1-0.6,1.9-1.8,2.8-2.8c2.1-2.4,4.2-4.9,6.4-7.3c4.2-4.6,8.5-9,12.7-13.6c0.2-0.2,0.3-0.5,0.3-0.8c4.9,0.8,9.9,0.7,14.9,1
				c3.3,0.2,8.7,1.8,11.8,0.7c0.3,0.3,0.9,0.4,1.2-0.1c5.5-7.6,10.1-16.2,14.6-24.5C845.5,414.2,845.5,413.5,845.1,413.2z
				 M768.8,389.9c2.8,0.1,6,1.2,8.7,2c4.9,1.5,9.7,3.1,14.8,3.8c0.2,0.2,0.4,0.4,0.8,0.3c0.2,0,0.4-0.1,0.6-0.1
				c0.2-0.1,0.4-0.2,0.5-0.3c0.9,1.1,1.8,2.1,2.7,3.2c0.4,0.4,0.7,0.9,1.1,1.3c-2.1-0.3-4.1-1.2-6.2-1.5c-2.3-0.3-4.5-0.4-6.8-0.6
				c4.5,1.1,9,2.2,13.4,2.6c8.3,9.9,16.8,19.6,25.1,29.5c-0.3,0.1-0.5,0.1-0.8,0.2c-3,0.5-6.6,0.3-9.7,0.2c-0.5,0-1,0-1.4,0
				c-4.3,0.1-8.6,0.6-12.8,1.3c-4.6-6.1-9.4-12.1-14.1-18.1c-4.5-5.8-8.8-11.7-13.4-17.5c1.5-0.1,3,0,4.5,0.1
				c-1.5-0.2-3.1-0.3-4.6-0.3c-0.1-0.1-0.1-0.2-0.2-0.2c-1.5-1.9-3-3.8-4.6-5.6C767.1,389.9,767.9,389.9,768.8,389.9z M760,462.8
				c-3.1,0.4-6.2,0.8-9.3,1.2c-2.6,0.3-7.3,1.9-9.6,1.1c0.2-0.3,0.2-0.6,0-0.9c-13-17-25-35.4-39.2-51.4c6.8-0.9,14.4-0.2,21.3-0.1
				c6.9,0.1,13.5,1.2,20.3,1.9c0.2,0,0.4,0,0.5-0.2c1,1.4,2,2.9,3,4.3c0.2,0.3,0.4,0.6,0.6,0.9c-0.8,0-1.6,0-2.4,0
				c-4.1-0.1-8.5-0.8-12.6-0.7c-2.5,0.1-5.1,0.2-7.6,0.4c-2,0.2-3.9,0.4-5.8,0.8c-0.1,0-0.2,0-0.3,0c-0.3-0.3-0.5-0.7-0.8-1.1
				c0,0-0.1,0-0.1,0c0.2,0.4,0.5,0.7,0.7,1.1c-0.3,0.1-0.5,0.1-0.8,0.2c0,0,0,0,0,0c0.3,0,0.6-0.1,0.9-0.1c0.3,0.4,0.5,0.8,0.8,1.2
				c4.3,6.8,8.8,13.4,13.5,19.9c3.8,5.3,7.6,10.5,11.5,15.7c0.4,0.5,0.7,1,1.1,1.4c0,0-0.1,0-0.1,0c-0.2,0-0.3,0-0.5,0.1
				c-0.1,0,0,0.1,0,0.1c0.2,0,0.4-0.1,0.5-0.1c0,0,0.1,0,0.2,0c0.3,0.4,0.6,0.8,0.9,1.2c0.3,0.3,0.5,0.7,0.8,1.1
				c0.2,0.2,0.5,0,0.4-0.2c-0.2-0.2-0.3-0.5-0.5-0.7c-0.4-0.5-0.7-0.9-1-1.4c3.6-0.6,7.3-1.1,11-1.5c3.7-0.4,7.4-0.8,11.1-1.1
				c1.4-0.1,2.7-0.3,4.1-0.4c0,0,0.1,0.1,0.1,0.1c1.5,1.9,3.3,3.9,5.1,5.1C771.6,461.3,765.8,462.1,760,462.8z M747.9,420.2
				C747.9,420.2,747.9,420.2,747.9,420.2c4.7,7,9.2,14.2,13.8,21.3c2.6,3.9,5.3,7.8,8.3,11.3c0.5,0.6,1.2,1.5,1.8,2.3
				c-8.6,0.9-17.4,1.5-25.9,3.3c-9.2-12.4-17.9-25.2-26.8-37.9c-0.1-0.1-0.1-0.2-0.2-0.3c0,0,0.1,0,0.2,0c3.1-0.3,6.2-0.6,9.3-0.8
				c1.7-0.1,3.5-0.1,5.2-0.2c3.2,0,6.5,0.5,9.7,0.7C744.8,420.2,746.3,420.2,747.9,420.2z M800.9,436.7c-5.5,4.9-10.5,10.4-15.4,16
				c-0.6,0.7-5.6,5.5-6.5,8c-0.1,0-0.3,0-0.4,0c-1.2-0.9-3.3-3.1-5.3-5.3c0,0,0,0,0,0c0,0,0.1,0,0.1,0c0.3,0,0.3-0.4,0-0.4
				c-0.1,0-0.3,0-0.4,0c-2.3-2.5-4.4-4.9-4.7-5.3c-3.2-4.2-6.1-8.5-8.9-13c-3.9-6.1-7.5-12.5-11.8-18.3c-1.1-1.4-2.2-2.9-3.3-4.3
				c0,0,0,0,0-0.1c0.1,0,0.1-0.1,0.1-0.1c0.1-0.2,0.3-0.4,0.4-0.6c0.1-0.1,0-0.2-0.1-0.2c1.8,0,4.7-5.1,5.7-6.4
				c2-2.5,4.1-4.9,6.2-7.3c1.9-2.2,3.9-4.3,5.9-6.4c0.7-0.7,1.7-1.4,2.3-2.3c0.4-0.2,0.8-0.3,1.2-0.4c1.4,1.9,2.8,3.9,4.2,5.8h0
				c0,0,0,0,0,0c-7.5,7.3-14.7,15-21.5,23c-0.1,0.1,0,0.2,0.1,0.1c7.1-7.7,14.3-15.3,21.5-22.9c4.1,5.4,8.3,10.6,12.5,16
				c5,6.5,9.9,13.1,15,19.6c0,0-0.1,0-0.2,0c0,0,0,0.1,0,0.1c0.1,0,0.1,0,0.2,0c0,0.1,0.1,0.1,0.1,0.1c-0.1,0-0.1-0.1-0.2,0
				c-8.1,7.6-16.2,15.2-24.2,22.9c-0.1,0.1,0,0.2,0.1,0.1c8.5-7.1,16.6-14.9,24.3-22.8c0.1-0.1,0-0.1,0-0.2c0.3,0.3,0.6,0.7,0.9,1.1
				c0.9,1.1,1.8,2.2,2.6,3.3C801.4,436.4,801.1,436.5,800.9,436.7z M828.5,438.1c0-1.7-23.7-1.9-26.1-1.6c-0.1,0-0.1,0-0.2,0
				c-0.9-1.2-1.8-2.4-2.7-3.6c-0.3-0.4-0.5-0.7-0.8-1.1c3.7-0.3,7.4-0.8,11.1-1c1.4-0.1,2.8-0.1,4.2,0c3,0.1,6.6,0.4,9.6-0.4
				c1.9,2.3,3.8,4.6,5.7,7C828.9,437.3,828.5,437.6,828.5,438.1z M840.2,418.7c-3.6,6.1-7.4,12.2-10.4,18.6c-1.9-2.3-3.8-4.7-5.8-7
				c0.1,0,0.1-0.1,0.1-0.2c0-0.1-0.1-0.2-0.2-0.1c0,0-0.1,0-0.1,0c-8.1-9.9-16.3-19.9-24.8-29.5c0.1-0.1,0-0.2-0.1-0.3
				c3.2-5.6,6.2-11.3,9.3-17c0.1-0.2-0.2-0.3-0.3-0.2c-1,1.6-1.9,3.2-2.8,4.8c-1.3,2.3-2.6,4.7-3.8,7c-0.9,1.7-1.7,3.5-2.5,5.2h-0.1
				c-0.4-0.5-0.9-1-1.4-1.5c-1-1.1-2-2.2-3-3.3c0.1-0.3,0-0.7-0.2-1c3.2-7.4,7-14.3,11.3-21c9.7,9.3,18.2,19.5,26.5,30.1
				c2,2.6,4.1,5,6.5,7.2c0.8,0.7,3.3,2.1,3.7,3.1C842.7,415.5,841.1,417.1,840.2,418.7z"/>
			<path class="st5" d="M782.4,397.5c0.9,0.2,1.7,0.3,2.6,0.4c-3.1-0.7-6.2-1.4-9.3-1.7C777.9,396.5,780.2,397.1,782.4,397.5z"/>
			<path class="st5" d="M834.5,414.2c0.1-0.1,0.2-0.2,0.1-0.3c-8.1-11.2-15.8-21.8-26.4-30.8c0,0,0,0,0,0c4.7,4.7,9.7,9.1,13.9,14.3
				c4.3,5.3,8.1,11.1,12.1,16.7c0.1,0.1,0.2,0.1,0.2,0.1c0,0,0,0-0.1,0c-3.3,5.2-6.8,10.4-10.2,15.6c0,0.1,0.1,0.2,0.1,0.1
				c3.9-4.8,7.4-10.1,10.4-15.5C834.7,414.4,834.6,414.3,834.5,414.2z"/>
			<path class="st5" d="M746.7,445.5c-0.4-0.2-0.8-0.4-1.2-0.5c-0.2,0-0.4,0.2-0.2,0.4c0.3,0.3,0.8,0.5,1.2,0.8
				c0.4,0.2,0.7,0.4,1.2,0.5c0.2,0,0.3-0.3,0.2-0.4C747.5,445.9,747.1,445.7,746.7,445.5z"/>
			<path class="st5" d="M747.6,443.8c0.2,0,0.4-0.2,0.3-0.3c-0.3-0.4-0.8-0.6-1.2-0.9c-0.2-0.1-0.5,0.2-0.3,0.3
				C746.8,443.3,747.1,443.7,747.6,443.8z"/>
			<path class="st5" d="M746.8,437.6c0.3,0,0.3-0.4,0-0.4C746.6,437.2,746.6,437.6,746.8,437.6z"/>
			<path class="st5" d="M779.6,431.9c0-0.4-0.1-0.9-0.1-1.3c0-0.5,0.1-0.9,0.3-1.4c0.1-0.4-0.5-0.6-0.6-0.3
				c-0.4,0.9-0.7,2.3,0.1,3.1C779.3,432.2,779.5,432.1,779.6,431.9z"/>
			<path class="st5" d="M782.2,430c0.3-0.4,0.4-0.7,0.5-1.1c0.1-0.4-0.5-0.5-0.6-0.2c-0.1,0.4-0.2,0.8-0.1,1.2
				C782,430.1,782.1,430.1,782.2,430z"/>
			<path class="st5" d="M800.7,419.8c0.5,0.2,1.1,0.5,1.7,0.6c0.3,0,0.4-0.4,0.1-0.5c-0.5-0.3-1.2-0.4-1.7-0.6
				C800.5,419.1,800.3,419.7,800.7,419.8z"/>
			<path class="st5" d="M802.3,415.9c0.2,0.1,0.4-0.2,0.2-0.4c-0.2-0.1-0.4-0.2-0.6-0.3c-0.3-0.1-0.5,0.3-0.3,0.4
				C801.9,415.8,802.1,415.8,802.3,415.9z"/>
			<path class="st5" d="M814.2,398.1c0.1,0.2,0.2,0.4,0.3,0.6c0.2,0.2,0.5,0,0.4-0.2c-0.1-0.2-0.2-0.4-0.3-0.6
				C814.5,397.5,814.1,397.7,814.2,398.1z"/>
			<path class="st5" d="M828.8,427.4c-0.3-0.1-0.6,0.4-0.3,0.6c0.5,0.2,1,0.5,1.5,0.5c0.2,0,0.3-0.3,0.2-0.4
				C829.8,427.8,829.3,427.6,828.8,427.4z"/>
			<path class="st5" d="M832.7,423.5c-0.2-0.3-0.7,0.2-0.4,0.4c0.2,0.2,0.4,0.4,0.7,0.5c0.2,0.1,0.3-0.1,0.2-0.2
				C833.1,423.9,832.9,423.7,832.7,423.5z"/>
			<path class="st5" d="M713.2,416.5c-0.2,0.8-0.4,1.5-0.4,2.3c0,0.1,0.1,0.1,0.2,0.1c0.3-0.7,0.4-1.4,0.6-2.2
				C713.6,416.4,713.3,416.2,713.2,416.5z"/>
			<path class="st5" d="M710.5,415.7c0,0.6,0,1.1,0.1,1.6c0,0.1,0.2,0.1,0.2,0c0.1-0.5,0.1-1.1,0.1-1.6
				C710.8,415.5,710.5,415.5,710.5,415.7z"/>
		</g>
	</g>
</g>
<g>
	<path class="st4" d="M666.9,91.7c-12.9-2.1-25.7,5.5-30.9,17.5c-2.7,6.3-3.5,13.9-1.1,20.4c1.7,4.6,5.9,10.3,11.1,11
		c-1,2.9-0.6,6.1-0.7,9.2c0,4.7,0.1,9.3,0.2,14c0,1.1,1.6,1.7,2.2,0.6c2-3.8,4.5-7.2,7-10.7c2.5-3.6,5-8.6,8.6-11.2
		c0.2-0.1,0.3-0.3,0.4-0.4c5.3,0.9,11.2-2.6,15-5.9c5-4.2,8-9.6,8.9-16.1C689.7,106.2,680.5,93.9,666.9,91.7z M678,135
		c-1.9,1.4-3.7,2.2-5.6,2.8c-0.3-0.7-0.6-1.4-0.9-2.2c-0.3-0.9-0.4-1.9-0.4-2.8c0-0.3-0.4-0.3-0.5,0c-0.1,1.6,0,3.8,0.9,5.2
		c-0.6,0.2-1.2,0.3-1.8,0.4c0-0.5-0.1-1-0.2-1.5c-0.1-0.8-0.2-1.9-0.8-2.5c-0.1-0.1-0.2,0-0.3,0.1c-0.2,0.7,0.1,1.6,0.2,2.3
		c0.1,0.6,0.1,1.2,0.2,1.8c-1.9,0.3-3.9,0.6-5.9,1.1c-0.1,0-0.2,0.1-0.3,0.2c-0.4,0-0.8,0.3-1,0.9c-1.2,4-4.9,7.9-7.3,11.2
		c-2.1,2.9-4.1,5.8-6.3,8.5c-0.1-3.6-0.1-7.3-0.2-10.9c0-3.1,0.4-6.2-0.4-9.1c0.4-0.1,0.8-0.6,0.5-1c-2.4-3.7-6.2-6.1-8.6-9.9
		c-3.6-5.6-4.4-12-2.3-18.4c3.8-11.7,15.9-19.2,28-17.2c12.1,2,21.4,12.5,21.5,24.9C686.2,125.2,683,131.2,678,135z"/>
	<path class="st4" d="M654.2,108.9c-4.2,2.4-5.4,10.1-4,14.1c1.8,5.2,10.4,7.2,14.2,3.2c4-4.1,6-10.9,2.1-15.7
		C664.5,107.9,656.2,105.3,654.2,108.9z M662.1,125.4c-2.1,0.9-3.6,0.4-5.6-0.4c-2.7-1.1-3.6-2.5-3.7-5.4c0-1.8,0.2-3.8,0.8-5.5
		c0.1-0.3,0.5-1.2,1.1-2.2c0.3,0,0.5-0.1,0.7-0.4c0.5-0.9,1.2-1.5,2-1.9c0.1,0,0.2,0.1,0.3,0.2c0.2,0.2,0.5-0.1,0.4-0.3
		c0,0,0-0.1-0.1-0.1c3.7-1.2,8.7,2.1,9.6,5.6C668.6,118.9,665.9,123.8,662.1,125.4z"/>
	<path class="st4" d="M674.3,128.8c-0.3-0.2-0.6,0.2-0.4,0.5c0.5,0.4,1.3,1.4,2,1.3c0.2,0,0.4-0.2,0.3-0.4
		C675.9,129.5,674.9,129.1,674.3,128.8z"/>
	<path class="st4" d="M677.8,124.6c-0.5-0.2-1-0.2-1.3-0.6c-0.3-0.4-0.8,0.2-0.5,0.5c0.4,0.5,1.2,1,1.9,0.6
		C678,125,678,124.7,677.8,124.6z"/>
	<path class="st4" d="M653.4,141.8c-0.8-0.1-1.1,0.4-1.6,1c-0.1,0.2,0,0.5,0.2,0.4c0.7-0.3,1.3-0.3,1.6-1.1
		C653.7,141.9,653.6,141.8,653.4,141.8z"/>
	<path class="st4" d="M652.9,138.7c-0.5-0.1-0.7,0.6-0.2,0.8c0.4,0.1,0.9,0.3,1.3,0.3c0.4,0,0.5-0.5,0.2-0.7
		C653.8,138.8,653.4,138.8,652.9,138.7z"/>
	<path class="st4" d="M639.6,117.5c-0.3-0.1-0.5,0.4-0.1,0.5c0.6,0.1,1,0.3,1.6,0.2c0.1,0,0.1-0.2,0-0.2
		C640.6,117.7,640.1,117.6,639.6,117.5z"/>
	<path class="st4" d="M668,96.9c-0.9-0.1-1.3,1.3-0.5,1.7c0.1,0.1,0.3,0,0.4-0.1c0.1,0.1,0.2,0.1,0.2,0.1
		C669.1,98.8,669,97,668,96.9z"/>
	<path class="st4" d="M670.2,101.5c-0.3,0.1-0.4,0.2-0.7,0.3c-0.3,0.2,0,0.7,0.3,0.5c0.2-0.1,0.4-0.2,0.6-0.4
		C670.6,101.8,670.4,101.5,670.2,101.5z"/>
</g>
<g>
	<path class="st2" d="M262.5,578.9c-14,6.6-28.4,13.8-43.2,18.5c-0.4,0.1-0.9-0.1-1.1-0.4c-3.1-7-6.5-13.9-9.6-20.9
		c-2.7-6.3-6.2-13.1-7.2-20c0-0.2,0.1-0.5,0.2-0.6c-0.2-0.4-0.1-0.9,0.4-1.2c0.1,0,0.1-0.1,0.1-0.1c1.2-2.9,3.8-4.9,6.1-7.1
		c3.1-3.1,6.3-5.9,9.5-8.8c6.7-5.9,13.4-11.9,19.8-18.2c0.4-0.4,1.1-0.4,1.5,0c2.8,3.4,4.3,7.5,6.3,11.4c0.5-0.2,0.9-0.4,1.4-0.6
		c0.7-0.3,1.3-0.5,1.9-0.6c2.9-1.5,6-2.7,8.4,0.3c2.2,2.8,3.5,7.1,5,10.4c1.6,3.5,3.2,7,4.7,10.5c2.4,5.6,4.7,11.5,5.1,17.6
		C272.3,575.2,267.5,576.5,262.5,578.9z"/>
	<g>
		<path class="st3" d="M262.3,578C262.3,578,262.3,578,262.3,578c-0.2-0.5-0.4-1-0.5-1.4c0-0.1,0-0.2,0-0.3c0-0.4-0.1-0.8-0.3-1.1
			c-0.1-0.3-0.3-0.5-0.5-0.9c-4.9-13.5-9.8-27-16-40c0-0.1-0.1-0.2-0.1-0.2c-0.5-0.7-1.4-0.7-2.1-0.4c-1.8,0.8-3.5,1.7-5.1,2.9
			c-0.3,0.2-0.5,0.5-0.7,0.8c-0.2,0.1-0.4,0.4-0.3,0.7c0,0.1,0.1,0.1,0.1,0.2c0.3,0.7,0.5,1.4,0.8,2.2c0.1,0.2,0.1,0.3,0.2,0.5
			c5,13.6,10.9,27,16.9,40.2c0.1,0.1,0.2,0.2,0.3,0.3c0.3,0.2,0.7,0.1,1,0c2-0.9,4-1.7,6-2.6C262.1,578.8,262.4,578.4,262.3,578z
			 M242.7,548.3c0.1,0.1,0.2,0.3,0.4,0.4c0,0.1,0.1,0.2,0.1,0.3c0,0.1,0,0.1,0.1,0.2l1.1,2.7c0,0.1,0,0.2,0,0.3
			C243.8,550.9,243.2,549.6,242.7,548.3z M254.3,576.2c-0.3-0.7-0.5-1.3-0.8-2c0.3,0.4,0.6,0.7,0.9,1.1
			C254.4,575.6,254.3,575.9,254.3,576.2z"/>
		<path class="st3" d="M268.5,571.8c-0.4-2.1-2.1-4.2-3.1-6c-1.7-3.5-3.3-7.2-4.8-10.8c-2.8-6.7-5.4-13.5-8.2-20.2
			c-0.8-1.9-1.9-4.9-4.5-3.4c-0.5,0.3-0.6,0.8-0.5,1.3c-0.1,0.1-0.1,0.3-0.1,0.4c1.4,6.7,5,13.3,7.8,19.6c3.4,7.6,6.3,15.3,9.4,23
			c0.1,0.3,0.4,0.6,0.8,0.6C268,576.1,269.1,574.3,268.5,571.8z"/>
		<g>
			<path class="st4" d="M265.5,561.4c-0.2,0.8,0.7,1.6,1.5,1.1c0.7-0.4,0.6-1.7-0.2-1.8c-0.2,0-0.3-0.1-0.5-0.2
				c-0.4-0.3-1,0-0.8,0.5C265.5,561.1,265.6,561.2,265.5,561.4z"/>
			<path class="st4" d="M266.9,567c0,0.2-0.1,0.3-0.1,0.5c0,0.2,0.1,0.4,0.1,0.6c0.1,0.6,0.9,0.8,1.4,0.5c0.5-0.4,0.4-1.1-0.1-1.5
				c-0.3-0.2-0.5-0.2-0.8-0.4C267.3,566.6,266.9,566.7,266.9,567z"/>
			<path class="st4" d="M271.9,569c-0.4-6.1-2.7-12-5.1-17.6c-1.5-3.5-3.1-7-4.7-10.5c-1.5-3.3-2.7-7.5-5-10.4
				c-2.4-3-5.5-1.8-8.4-0.3c-0.6,0.2-1.3,0.4-1.9,0.6c-0.5,0.2-0.9,0.4-1.4,0.6c-2-3.9-3.5-8-6.3-11.4c-0.4-0.4-1.1-0.4-1.5,0
				c-6.4,6.3-13.1,12.3-19.8,18.2c-3.3,2.9-6.5,5.7-9.5,8.8c-2.2,2.2-4.8,4.2-6.1,7.1c0,0-0.1,0.1-0.1,0.1c-0.5,0.3-0.6,0.8-0.4,1.2
				c-0.1,0.2-0.2,0.4-0.2,0.6c1,6.9,4.4,13.7,7.2,20c3,7.1,6.5,13.9,9.6,20.9c0.2,0.4,0.7,0.5,1.1,0.4c14.8-4.7,29.2-11.9,43.2-18.5
				C267.5,576.5,272.3,575.2,271.9,569z M244.2,531.9c-2.5,1.3-5,2.8-7.5,4.3c-0.8,0.4-1.7,0.8-2.5,1.3c2.9-2.8,5.9-5.4,9-8
				C243.6,530.3,243.9,531.1,244.2,531.9z M243.1,529.2c-3.2,2.8-6.4,5.6-9.4,8.6c-2.3,1.2-4.7,2.4-7,3.6c-0.2,0.1-0.4,0.2-0.6,0.2
				c5.2-4.9,10.5-9.6,15.9-14.3C242.3,527.9,242.7,528.5,243.1,529.2z M210.1,548.8c3.1-3,6-6.2,9-9.3c5.9-6.2,12.3-12,19.1-17.3
				c1.3,1.6,2.5,3.2,3.6,4.9c-5.6,4.7-10.9,9.6-16.2,14.7c-5.5,2.3-11.6,4.9-16.3,8.5c-0.4,0.2-0.8,0.4-1.2,0.7
				C208.8,550.2,209.4,549.5,210.1,548.8z M268.6,573.5L268.6,573.5c-0.5,0.6-1,1.1-1.7,1.6c-0.6,0.4-1.1,0.8-1.7,1.1
				c-1,0.6-2,1.2-3,1.7c-2.4,1.3-4.9,2.4-7.5,3.5c-2.8,1.2-5.6,2.3-8.3,3.5c-7.5,3.3-15.2,6.4-23,9c-4.9,1.6-5.4-0.8-7.3-5.1
				c-1.9-4.2-3.7-8.4-5.4-12.7c-2.5-6.3-4.2-13.2-7.3-19.2c0.2-0.1,0.4-0.2,0.6-0.4c0.1,0,0.1-0.1,0.2-0.2c0.1-0.1,0.1-0.1,0.2-0.2
				c0,0,0.1-0.1,0.1-0.1c1.8-1.1,3.4-2.4,5.1-3.7c5.6-3,11.2-6.1,16.7-9.2c0.1-0.1,0.2-0.1,0.4-0.2c3.3-1.5,6.6-3,9.9-4.6
				c0.7-0.4,1.5-0.7,2.2-1.1c1.9-1,3.9-2.2,5.9-3.2c0.9-0.4,1.8-0.9,2.8-1.2l0,0c1.2-0.4,2.3-0.7,3.5-0.8h0c0.4,0,0.7-0.1,1.1-0.1
				c1.3,0.3,2.6,0.7,3.8,1c1,0.9,2.1,4.1,2.7,5.3c1.8,3.5,3.7,6.9,5.5,10.4C267.4,555.1,274.3,567,268.6,573.5z"/>
			<path class="st4" d="M207.3,555.7c-0.3,0.2-0.6,0.4-0.9,0.6c-0.3,0.2-0.3,0.7-0.1,1c0.1,0.2,0.4,0.6,0.7,0.5
				c0.1,0,0.2-0.1,0.3-0.1c0.4,0,0.8-0.2,1.1-0.5C209.3,556.4,208.2,555.2,207.3,555.7z"/>
			<path class="st4" d="M212.6,553.3c-0.1,0-0.1,0-0.2,0c-0.4,0-0.7,0.3-0.8,0.6c0,0,0,0-0.1,0.1c-0.3,0.3-0.3,0.9,0.2,0.9
				c0,0,0.1,0,0.1,0c0.3,0.2,0.7,0.3,1,0.1c0.1,0,0.1-0.1,0.2-0.1C213.6,554.3,213.5,553.2,212.6,553.3z"/>
			<path class="st4" d="M216.6,550.5c-0.3,0.2-0.5,0.7-0.3,1c0.1,0.1,0.4,0.3,0.4,0.5c0,0.2,0.2,0.2,0.3,0.1c0,0,0,0,0.1,0.1
				c0.4,0.2,1,0.2,1.3-0.3c0.3-0.4,0.3-1-0.1-1.3C217.8,550.2,217.2,550.1,216.6,550.5z"/>
			<path class="st4" d="M221.5,548.5c-0.2,0.3-0.2,0.4-0.2,0.8c0,0.1,0.1,0.3,0.2,0.3c0.1,0,0.2,0,0.3,0c0.6,0.3,1.3-0.1,1.2-0.8
				C222.9,548.1,221.8,547.8,221.5,548.5z"/>
			<path class="st4" d="M227,545.3c-0.5,0.1-0.7,0.4-0.9,0.8c-0.1,0.2,0.1,0.4,0.2,0.5c0.5,0.3,0.7,0.3,1.2,0
				C228.4,546.3,227.8,545.2,227,545.3z"/>
			<path class="st4" d="M233.3,542.2C233.3,542.2,233.2,542.2,233.3,542.2c-0.4-0.2-0.8-0.2-1,0.1c-0.3,0.3-0.3,0.6-0.3,1.1
				c0,0.3,0.3,0.4,0.5,0.2c0,0,0.1,0,0.1,0c0.1,0,0.2,0,0.3,0c0.2-0.1,0.4-0.2,0.5-0.4C233.7,542.8,233.6,542.4,233.3,542.2z"/>
			<path class="st4" d="M238.4,539.5c-0.4,0-0.7,0.2-0.8,0.6l-0.1,0.3c-0.2,0.2-0.1,0.6,0.2,0.6c0.2,0,0.3,0,0.5,0.1
				c0.3,0.1,0.6,0,0.8-0.2C239.6,540.3,239.4,539.4,238.4,539.5z"/>
			<path class="st4" d="M245.1,537.2c-0.3-0.7-1.2-0.7-1.6-0.1c0,0-0.1,0.1-0.1,0.1c-0.2,0.4,0,1.1,0.5,1.1c0.1,0,0.1,0,0.2,0
				C244.7,538.5,245.4,537.9,245.1,537.2z"/>
			<path class="st4" d="M250,534.5c-0.1,0.1-0.2,0.1-0.2,0.2c-0.2,0.1-0.4,0.4-0.4,0.7c0,0,0,0.1-0.1,0.1c-0.1,0.2,0.1,0.5,0.3,0.4
				c0,0,0,0,0,0c0.1,0.1,0.1,0.1,0.2,0.2c0.6,0.4,1.4,0.2,1.5-0.6C251.4,534.7,250.6,534,250,534.5z"/>
			<path class="st4" d="M254.9,537.4c0.3-0.3,0.3-0.7,0-1c-0.1-0.1-0.3-0.2-0.4-0.2c-0.1,0-0.6,0.1-0.4,0.1c-0.2,0-0.4,0.2-0.4,0.4
				c0-0.3-0.1,0.2-0.1,0.3c0,0.2,0.1,0.4,0.2,0.5C254.2,537.7,254.6,537.7,254.9,537.4z"/>
			<path class="st4" d="M256.8,541.4c0.5,1,2.1,0.1,1.5-0.9c-0.3-0.5-0.8-0.8-1.5-0.6c-0.4,0.1-0.6,0.6-0.4,0.9
				C256.6,540.9,256.7,541.2,256.8,541.4z"/>
			<path class="st4" d="M260.1,545.2c-0.2-0.1-0.5-0.2-0.7-0.3c-0.3-0.2-0.7,0.2-0.5,0.5c0.1,0.2,0.2,0.5,0.3,0.7
				C259.8,547,261,545.8,260.1,545.2z"/>
			<path class="st4" d="M262.5,549.8c-0.5-0.7-1.8-0.3-1.5,0.6c0,0.1,0,0.1,0,0.2c0.3,1.3,2.3,0.3,1.6-0.7
				C262.6,549.9,262.5,549.9,262.5,549.8z"/>
			<path class="st4" d="M263.7,554.9c-0.1,0.1-0.1,0.2-0.2,0.3c0,0.1,0,0.2,0,0.1c0,0.1-0.1,0.3-0.1,0.3c0,0.2,0.1,0.4,0.2,0.6
				c0.2,0.3,0.6,0.6,1,0.4l0.1,0c0.4-0.1,0.7-0.5,0.6-1c-0.2-0.4-0.5-0.6-0.9-0.7c0,0,0,0,0,0c-0.2-0.1-0.2-0.1-0.1-0.1
				c-0.1-0.1-0.2-0.1-0.3,0C263.9,554.7,263.7,554.8,263.7,554.9z"/>
			<path class="st4" d="M265.8,570.9c-0.4,0.1-0.6,0.2-0.8,0.6c-0.6,1.1,1.3,1.8,1.5,0.4c0-0.4-0.1-0.6-0.3-0.9
				C266.1,570.9,265.9,570.9,265.8,570.9z"/>
			<path class="st4" d="M262.5,575.2c0.1-0.4-0.4-0.7-0.6-0.4c0,0,0,0.1,0,0.1c-0.7,0.1-1,0.9-0.4,1.3
				C262.1,576.5,262.9,575.8,262.5,575.2C262.5,575.2,262.5,575.2,262.5,575.2z"/>
			<path class="st4" d="M256.6,576.9c-0.3,0.2-0.5,0.4-0.6,0.6c-0.6,0.8,0.6,2,1.4,1.4c0.3-0.2,0.5-0.4,0.6-0.6
				C258.5,577.4,257.4,576.3,256.6,576.9z"/>
			<path class="st4" d="M251,579.9c-0.1-0.1-0.3-0.1-0.4-0.1c-0.1,0-0.2,0-0.2,0.1c-0.5,0.1-0.8,0.8-0.5,1.2c0,0,0.1,0.1,0.1,0.1
				c0.2,0.2,0.4,0.4,0.7,0.3c0,0,0.1,0,0.1,0c0.6-0.2,0.7-0.9,0.4-1.3C251.1,580,251,579.9,251,579.9z"/>
			<path class="st4" d="M245,581.9c-0.6,0.2-1.3,1-0.7,1.6c0.6,0.6,1.4-0.1,1.6-0.7C246,582.2,245.5,581.8,245,581.9z"/>
			<path class="st4" d="M239.9,584c-0.1,0.1-0.2,0.1-0.3,0.2c-1.1,0.9,0.3,2.3,1.2,1.2c0.1-0.1,0.1-0.2,0.2-0.3
				C241.5,584.4,240.6,583.6,239.9,584z"/>
			<path class="st4" d="M235.7,585.6c-0.1,0-0.3-0.1-0.4-0.1c-0.8,0-1.4,0.9-1,1.7c0.5,0.8,1.5,0.7,1.9,0c0,0-0.1,0.1-0.1,0.1
				C236.8,586.9,236.5,585.8,235.7,585.6z"/>
			<path class="st4" d="M229.6,588.1c-1.3,0-1.3,1.9,0,1.9C230.9,590,230.9,588.1,229.6,588.1z"/>
			<path class="st4" d="M224.5,589.7c-1.2,0-1.2,1.8,0,1.8C225.7,591.6,225.7,589.7,224.5,589.7z"/>
			<path class="st4" d="M221.6,591.3c-0.1-0.2-0.4-0.4-0.6-0.2c-0.8,0.5,0.4,1.6,0.8,0.8C221.9,591.6,221.8,591.4,221.6,591.3z"/>
			<path class="st4" d="M255.1,564.8c-0.1,0.4-0.3,0.6-0.4,1c-0.1,0.4-0.1,0.8-0.1,1.2c-0.1,0.6-0.4,1.5,0.2,2
				c0.1,0.1,0.2,0.1,0.2,0c0.6-0.4,0.5-1.2,0.5-1.9c0-0.5,0.1-0.9,0.1-1.4c0-0.4-0.2-0.6-0.2-0.9
				C255.3,564.7,255.1,564.7,255.1,564.8z"/>
			<path class="st4" d="M257.8,564c0.1,0.7,0,1.6,0.3,2.3c0.2,0.4,0.7,0.3,0.7-0.1c0.1-0.7-0.2-1.5-0.3-2.2
				C258.5,563.5,257.8,563.6,257.8,564z"/>
			<path class="st4" d="M261.6,564.4c0.1-0.3,0-0.6,0-0.9c0-0.3-0.5-0.3-0.5,0c0,0.3,0,0.6,0,0.9
				C261.2,564.6,261.5,564.6,261.6,564.4z"/>
			<path class="st4" d="M254.7,551.9c-0.3-0.3-0.7-0.6-1-0.9c-0.2-0.2-0.6,0.2-0.3,0.4c0.4,0.2,0.8,0.5,1.1,0.7
				C254.7,552.2,254.8,552,254.7,551.9z"/>
		</g>
	</g>
</g>
<g>
	<path class="st2" d="M657.6,749.7c-7.2,0-15.2,3.1-22.5,1.9c-0.2,0-0.3,0-0.5,0.1c0,0,0-0.1,0.1-0.1c-0.6-0.1-1.1-0.2-1.7-0.4
		c-2.7-0.8-4.3-2.6-6.7-3.9c-8-4.6-13.3-0.9-20.8,2.6c-3,1.4-5.9,2.4-8.9,2.5c2,0.4,4,0.9,6,1.1c4.1,0.6,7.3-0.1,11.2-1.5
		c0.8-0.3,1.7,0.8,1.1,1.5c-2.3,3.1-5.6,3.7-9.4,3.5c-2.3-0.1-19.2-4.5-19-2c0,0.3-0.5,0.5-0.6,0.2c-1.3-2.7,3.5-3.2,5.2-3.3
		c0.5,0,1.1,0,1.6,0c-0.6-0.2-1.3-0.4-1.9-0.7c-7.2-3.3-6.6-8-17.9-3.8c-2.8,1.1-5.3,3-8.1,4.1c-1.4,0.6-2.7,1-4.1,1.3
		c3.3,0.5,6.6,1,10.1,1.1c1.1,0,1.3,1.4,0.5,2c-3.7,2.7-8,1.8-12.2,0.6c-6.3-1.8-11.3-4-18-1.9c-0.1,0-0.2-0.1-0.1-0.2
		c2-1.9,4.4-2.7,7-2.9c-0.1,0-0.2-0.1-0.2-0.1c-5.7-2.9-10-7.7-16.8-7.4c-5.4,0.2-10.1,4.3-14.7,6.7c-7.6,4-19.3,5.8-22.7-4.4
		c-0.2-0.8,0.9-1.3,1.3-0.5c3.9,7.6,10,6.9,16.8,4.1c-2.8-3.8-5.3-7.8-8-11.5c-0.9-1.3,0.3-3,1.7-3c20.3-0.6,40.7-1.2,61-1.8
		c-9.5-10-15.3-23.9-19.7-36.6c-5.1-15-7.9-30.8-8-46.7v-1c-0.1,0.1-0.3,0-0.2-0.1c0.1-0.3,0.2-0.6,0.3-0.9
		c0.1-28.1,8.2-61.2,26.3-83.1c0.4-0.5,0.9-0.5,1.3-0.2c0.2-0.3,0.7-0.4,1,0c23.8,36.7,32.3,81.1,56.7,117.7c0.6,0.9-0.2,2.1-1.2,2
		c-10.7-0.4-25.1,8.6-33.8,14.5c-8.4,5.7-25.7,21.5-19.5,33.4c0.2,0.4,0.1,0.7,0,1c25.4-0.7,50.8-1.5,76.3-2.2c1.5,0,3,1.6,2.4,3.1
		c-1.8,4.8-3.7,9.7-6.1,14.4c1.8-0.2,3.9-0.5,6.7-0.9c3.1-0.4,5.7-0.7,8.9-0.3C659,747.6,659.1,749.7,657.6,749.7z"/>
	<g>
		<path class="st3" d="M604.1,650.1c-3-6.7-6-13.5-9.1-20.1c-0.1-0.2-0.2-0.4-0.4-0.5c0,0,0,0,0,0c-0.3-0.2-0.6-0.2-1-0.2
			c0,0,0,0,0,0c-0.3,0-0.5,0.2-0.7,0.4c-0.5,0.5-0.9,0.9-1.4,1.4c-1.2,1.2-2.5,2.4-3.7,3.6c-5.2,5-10.2,10-14.8,15.5
			c0,0-0.1,0.1-0.1,0.1c-0.7,0.9-1.4,1.7-2.1,2.6c0,0-0.1,0.1-0.1,0.1c-4.4,5.6-8.2,11.7-11.1,18.7c-3.4,8.4-7.5,18.5-8.5,27.5
			c0,0.2,0,0.4,0,0.6c-0.5,7.1,4.9,13.7,8.1,19.7c0.1,0.1,0.1,0.2,0.2,0.3c0,0.1,0,0.3,0,0.4c0,0.6,0.9,0.6,0.9,0v0
			c0.2,0,0.3,0,0.5-0.1c0,0,0,0,0,0c0,0,0.1,0,0.1-0.1c0.6-0.3,1-1.1,0.6-1.9c-0.1-0.2-0.2-0.3-0.2-0.5c0-0.1-0.1-0.1-0.1-0.2
			c-0.2-0.4-0.4-0.8-0.7-1.2c1.4-18,11.8-35.2,24.9-48.7c1.4-1.4,2.8-2.9,4.3-4.2c0.1-0.1,0.1-0.1,0.2-0.2c0.6-0.6,1.2-1.1,1.8-1.7
			c3.9-3.5,8-6.7,12.1-9.5C604.3,651.4,604.4,650.8,604.1,650.1z"/>
		<path class="st3" d="M575.8,584.3c-0.1-0.3-0.5-0.5-0.9-0.6c-0.4-0.1-0.9,0-1.2,0.3c-1,1.2-2,2.4-2.9,3.7
			c-2.5,3.1-4.9,6.3-7.2,9.6c-3.5,4.9-6.8,9.9-9.8,15c-2.8,4.6-5.3,9.4-7.6,14.3c-1.7,3.6-2.8,7.2-3.6,10.8
			c-1.7,8.3-1.3,16.8-0.6,25.4c0,0,0,0,0,0c0.2,3,0.5,6,0.7,9c-0.2,2-0.3,4-0.3,6c0,0.1,0.2,0.2,0.3,0c0.1-1,0.3-1.9,0.4-2.9
			c0.5,0.5,1.6,0.4,1.5-0.5c-0.1-1.4-0.2-2.9-0.2-4.3c0-0.5-0.1-1-0.1-1.4c0.3-1.6,0.7-3.1,1-4.6c3.5-14.5,9.1-28.3,17.6-40.8
			c2.9-4.3,6.1-8.4,9.6-12.2c2.4-2.6,6.7-5.4,8.4-8.4c0.2-0.3,0.3-0.6,0.4-0.8c0.4-0.9,0.6-1.8,0.6-2.8
			C582,594.2,577.7,588.7,575.8,584.3z"/>
		<g>
			<path class="st4" d="M585.3,667.5c-12.7,13.9-21.3,31-24.2,50c0,0.1,0.1,0.1,0.1,0.2c3.3-20.7,13.2-40.1,28.3-54.4
				C588.1,664.6,586.7,666,585.3,667.5z M657.6,747.4c-3.2-0.4-5.8-0.1-8.9,0.3c-2.8,0.4-4.9,0.7-6.7,0.9c2.4-4.7,4.2-9.6,6.1-14.4
				c0.6-1.5-0.9-3.2-2.4-3.1c-25.4,0.7-50.8,1.5-76.3,2.2c0.1-0.3,0.2-0.6,0-1c-6.2-11.8,11.1-27.7,19.5-33.4
				c8.7-5.9,23.1-14.9,33.8-14.5c1,0,1.7-1.2,1.2-2c-24.3-36.6-32.9-81-56.7-117.7c-0.3-0.4-0.7-0.3-1,0c-0.4-0.2-0.9-0.2-1.3,0.2
				c-18.1,21.9-26.2,55-26.3,83.1c-0.1,0.3-0.2,0.6-0.3,0.9c0,0.2,0.2,0.2,0.2,0.1v1c0.1,15.8,2.9,31.7,8,46.7
				c4.4,12.7,10.2,26.7,19.7,36.6c-20.3,0.6-40.7,1.2-61,1.8c-1.4,0-2.7,1.7-1.7,3c2.6,3.7,5.2,7.7,8,11.5c-6.8,2.8-13,3.5-16.8-4.1
				c-0.4-0.7-1.5-0.2-1.3,0.5c3.3,10.2,15,8.4,22.7,4.4c4.6-2.4,9.3-6.5,14.7-6.7c6.8-0.3,11.1,4.5,16.8,7.4c0.1,0,0.2,0.1,0.2,0.1
				c-2.6,0.2-5,0.9-7,2.9c-0.1,0.1,0,0.3,0.1,0.2c6.7-2.1,11.7,0.2,18,1.9c4.2,1.1,8.5,2.1,12.2-0.6c0.8-0.6,0.6-2-0.5-2
				c-3.5-0.1-6.8-0.5-10.1-1.1c1.4-0.3,2.8-0.7,4.1-1.3c2.8-1.1,5.3-3.1,8.1-4.1c11.3-4.2,10.8,0.5,17.9,3.8
				c0.6,0.3,1.3,0.5,1.9,0.7c-0.5,0-1.1,0-1.6,0c-1.7,0.1-6.5,0.5-5.2,3.3c0.1,0.3,0.7,0.2,0.6-0.2c-0.2-2.4,16.6,1.9,19,2
				c3.8,0.2,7.1-0.4,9.4-3.5c0.5-0.7-0.4-1.8-1.1-1.5c-3.8,1.3-7.1,2-11.2,1.5c-2-0.3-4-0.7-6-1.1c3-0.1,6-1.1,8.9-2.5
				c7.5-3.5,12.8-7.2,20.8-2.6c2.4,1.4,3.9,3.1,6.7,3.9c0.6,0.2,1.1,0.3,1.7,0.4c0,0,0,0.1-0.1,0.1c0.2,0,0.3,0,0.5-0.1
				c7.3,1.2,15.3-1.8,22.5-1.9C659.1,749.7,659,747.6,657.6,747.4z M544.3,677.4c3.4-29.3,15.7-55.7,38.5-75.4
				c0.5-0.4-0.2-1.1-0.7-0.7c-0.2,0.2-0.5,0.4-0.7,0.6c-18.2,16.1-31.5,38.2-36,62.2c-0.4,2-0.7,4-0.9,6.1c-0.2,1.7-0.4,3.3-0.5,5
				c-0.8-4.1-1.4-8.2-1.9-12.4c0,0,0,0,0,0c-0.4-4.2-0.7-8.4-0.7-12.8c0-3.2,0-6.4,0.2-9.5c0.4-1.1,0.8-2.1,1.1-3.2
				c3.2-8.7,6.8-17.1,11.2-25c2.9-5.2,6.1-10.2,9.8-15c3.3-4.2,6.9-8.1,11-11.8c0.4-0.3-0.2-0.9-0.6-0.5c-1.1,0.9-2.2,1.8-3.3,2.8
				c-14.5,13.3-23,32-29.2,50.6c0.8-10.7,2.7-21.3,5.8-31.6c4.5-14.8,12.1-26.9,19.2-40.3c2.9,5.7,5.7,11.5,8.4,17.3
				c2.4,5.1,4.7,10.2,7,15.4c4.1,9.4,8.1,19,12,28.6c0.1,0.4,0.3,0.7,0.4,1.1c-0.1,0-0.1,0-0.2,0c-0.2,0.2-0.4,0.3-0.6,0.4
				c0,0,0,0,0,0c-0.7,0.6-1.5,1.1-2.2,1.7c-7.9,6.4-14.8,13.7-20.7,21.8c0,0-0.1,0.1-0.1,0.1c-10.3,14.3-17,31-18.7,49.2
				c-0.3-0.8-0.7-1.6-0.9-2.4C548.2,692.5,545.9,685.1,544.3,677.4z M560.7,720.1C560.7,720.1,560.7,720,560.7,720.1
				c-3.3-5.8-6.1-11.6-8.6-17.5c2.3-19,9.3-37.2,20.7-52.3c0,0,0.1-0.1,0.1-0.1c4.3-5.7,9.2-10.9,14.8-15.5c2.2-1.8,4.5-3.6,6.9-5.2
				c0,0,0,0,0,0l0,0c0,0,0,0,0,0c3,7.4,6.1,14.7,9.3,21.9h0c-6.9,4.7-13.2,10.1-18.6,16c-12.7,13.9-21.3,31-24.2,50
				C561,718.3,560.9,719.1,560.7,720.1C560.7,720,560.7,720,560.7,720.1z M566.1,728.9c-1.8-2.8-3.6-5.7-5.2-8.6c0-0.1,0-0.2,0-0.3
				c0.1-0.8,0.2-1.5,0.3-2.3c3.3-20.7,13.2-40.1,28.3-54.4c0.1-0.1,0.1-0.1,0.2-0.2c0.6-0.6,1.2-1.1,1.8-1.7
				c3.9-3.5,8.1-6.6,12.7-9.4c4.7,10.2,9.8,20.3,15.9,29.8c-6.1,0.5-12,3.7-17.5,6.3c-7.7,3.6-15.3,7.7-21.7,13.3
				C574.6,707.1,564.9,719,566.1,728.9z M636,748.3c-2.1-0.5-4.5-1.4-7.9-3.1c-4.4-2.2-6-4.2-11.7-3.2c-8.8,1.5-15.6,10.7-25.4,6.2
				c-5.2-2.4-7.6-6.2-13.8-5.3c-7.6,1-13,7.7-21,7.7c-8.4,0-12.4-7.9-19.9-9.6c-6.1-1.4-13.7,3.3-21.1,6.9c-2-3-4.1-6-6.2-8.9
				c44.3-0.9,88.5-1.9,132.8-2.9C640,740.2,637.9,744.2,636,748.3z"/>
			<path class="st4" d="M593,743.2c0.7,1.1,1.3,2.4,2.3,3.3c0.2,0.2,0.7,0,0.6-0.3c-0.4-1.3-1.3-2.4-2.1-3.4
				C593.5,742.2,592.7,742.6,593,743.2z"/>
			<path class="st4" d="M597.8,741.3c-0.3-0.3-0.7,0.1-0.4,0.4c0.6,0.7,1.1,1.5,1.8,2c0.3,0.2,0.8-0.2,0.5-0.5
				C599.3,742.4,598.5,741.9,597.8,741.3z"/>
		</g>
	</g>
</g>
<g>
	<path class="st2" d="M380.9,305.7c-7.2,5.3-14.1,11-21.1,16.6c0.8,0.7,1.5,1.4,2.2,2.2c0.3,0.3-0.2,0.8-0.5,0.5
		c-0.8-0.7-1.6-1.4-2.4-2.2c-4.5,3.5-9,7-13.6,10.3c5.5,3.5,11,7.6,14.1,12.7c4.7,7.8,2,14.3-6.9,11.5c-5.7-1.8-11.4-5.3-17-8.7
		c-0.4,2.5-2.3,4.6-5.7,5.7c-6.3,2.1-15.2-0.6-21.4-1.6c-8.5-1.3-16.9-3.2-25.2-5.4c-37.2-10-71.8-27.9-105.2-46.8
		c-1.9-1.1-3.8-2.2-5.7-3.2c-1.1,0.6-2.3,1-3.4,1.6c-0.4,0.2-0.8,0.5-1.2,0.7c-0.3,0.2-0.6,0.2-0.9,0.1c-0.1,0-0.2,0.1-0.3,0.2
		c-0.1,0-0.2,0-0.3,0c-14.2,6.5-28,13.8-41.6,21.5c-7.8,4.4-16.7,12.1-26,12.6c-14.2,0.7-16.9-12.9-8.1-20.8c-0.1,0-0.1-0.1-0.2-0.1
		c-7.3-3.4-17.9-8.4-24.5-15.1c-1-0.2-1.9-0.5-2.8-1c-14.8-8.4,7.3-37.2,19.9-36.6c3.2-1.5,6.6-1.6,10,1.1c1.9,1.6,3,3.6,3.4,5.8
		c4.3,3.3,9.5,7.7,14.1,12.7c2.1-3.3,4.1-7.2,6.7-10.4c0.7-1.2,1.5-2.4,2.2-3.6c-14.3-8.9-28.2-18.3-41.6-28.4
		c-22.2-16.8-46.6-37.1-54.5-64.9c-0.5-1-0.8-2.1-0.8-3.1c-0.1-0.4-0.3-0.9-0.3-1.3c-0.1-0.6,0.2-1,0.7-1.3c0.7-2.6,2.6-5,5.7-6.6
		c3.7-1.8,7.7-1.5,11.7-1.2c6.9,0.6,13.1,2.7,20.1,2.5c3.5-0.1,7-0.6,10.5-0.6c16.5,0.2,32.4,9.7,46.6,17.2
		c19.4,10.3,37.4,22.5,54.3,36.5c0.2,0.2,0.3,0.4,0.5,0.6c1.1-0.1,2,0,2.8,0.2c0.7-0.2,1.4-0.1,2,0.3c3.6,2.2,7.5,4.5,11.3,7.1
		c14.6-6.6,30.8-11.6,46-17c16.5-5.8,33.4-10.4,50.1-15.7c10.7-3.4,23.7-7.7,34.4-1.9c7.9,4.3,11.9,12.1,8.9,20.6
		c-4.5,12.7-19.9,20.4-30.1,27.9c-14.8,10.9-29.9,21.5-44.9,32c2.5,1.7,4.8,3.6,7,5.7c5.9,3.2,11.4,7.4,16.4,11.6
		c6.8,5.7,12.2,11,20.8,13.7c9.8,3,18.3,0.4,27.7-2.6c19.4-6.3,40.8-17.6,54.2,2.2c0.4-0.2,0.8-0.4,1.1-0.5c0.3-0.1,0.6,0.3,0.3,0.5
		l-1,0.7c0.7,1.1,1.4,2.2,2,3.5C381.7,304.1,381.6,305.2,380.9,305.7z"/>
	<g>
		<path class="st3" d="M45.5,163.2c-0.5-0.5-1-0.9-1.6-1.3c-1.1-0.8-2.4-1.2-3.8-0.9c-0.2,0-0.4,0.2-0.6,0.2
			c-0.8,0.1-1.6,0.3-2.4,0.6c-0.8,0.3-1.6,0.7-2.3,1.3c0,0,0,0-0.1,0c-3.5,0.7-6.4,3.3-7.4,6.8c-0.5,1.7-0.5,3.4,0,5
			c0.5,1.8,3.1,4.5,2.6,6.4c-0.7,3,2.7,4.5,4.6,3.1c1.7-0.5,3.5-1.8,4.5-2.6c2.9-2.4,5.1-5.8,6.6-9.2
			C46.9,169.7,47.7,165.9,45.5,163.2z"/>
		<path class="st3" d="M110.8,324.5c1.7-0.9,1.4-3.2,0-4.1c-4.7-3.4-10-5.8-15.6-7.1c-1.7-0.4-2.8,0.9-2.8,2.2
			c-1.1-0.1-2.2,0.6-1.8,2c0,0.1,0.1,0.3,0.2,0.4c0,0,0,0,0,0l0,0c1.2,3.4,3.3,6.1,6.3,8.1c0.1,0.1,0.1,0.1,0.2,0.2
			c0.4,0.7,1,1.3,2.1,1.4c1.6,0.2,3.2,0.3,4.8,0.5c0.4,1.5,2.1,2.6,3.7,1.6c0.8-0.5,1.6-1,2.4-1.5
			C111.6,327.3,111.6,325.6,110.8,324.5C110.7,324.5,110.7,324.5,110.8,324.5z"/>
		<path class="st3" d="M322.3,210.3c-0.1-0.1-0.3-0.3-0.4-0.4c0.4-0.2,0.7-0.5,0.9-0.9c2-3.4,2-6.8,0.2-10.3
			c-0.2-0.4-0.5-0.7-0.8-0.9c-1.1-2-2.9-3.8-5-5.2c0.6-1.3,0.3-2.9-1.5-3.2c-6.4-1.2-12.7-1.8-19.2-1.5c-2,0.1-3.6,2.9-1.8,4.4
			c4.2,3.5,8.4,7,12.6,10.5c1.1,0.9,5.9,4.2,9.2,7c-0.4,0.4-0.6,1-0.4,1.4c0.9,2.3,2.2,3.6,4.6,4.6c0.9,0.3,1.8-0.4,2-1.2
			c0.3-1,0.3-1.9,0-2.8C322.9,211.3,322.8,210.8,322.3,210.3z"/>
		<path class="st3" d="M374.5,299.9c-4.3-6.3-12.7-8.6-19.7-10.1c-1-0.2-1.9,0.2-2.5,0.9c-3.5,0.4-6.8,1.4-10.1,2.9
			c-0.7,0.3-0.9,1.3-0.4,2c-0.1,0.1-0.1,0.3,0.1,0.4c4.7,6.1,10.1,11.6,15.8,16.8c-0.1,0.6,0.1,1.2,0.8,1.6c1.7,0.8,3.2,1.8,4.6,3.2
			c1.2,1.1,2.9,0,2.8-1.2c0.2-0.1,0.5-0.2,0.7-0.4C371.3,311.9,379.2,306.7,374.5,299.9z"/>
		<g>
			<path class="st4" d="M279.1,247.2c-5.4-4.7-11.3-9-17-13.3c0,0,0,0-0.1,0c0,0,0,0-0.1,0c0,0,0,0.1,0,0.1
				c5.5,4.7,10.9,9.4,16.7,13.8C279,248.1,279.4,247.5,279.1,247.2z M381.4,303.4c-0.7-1.3-1.3-2.4-2-3.5l1-0.7
				c0.3-0.2,0-0.6-0.3-0.5c-0.4,0.2-0.8,0.4-1.1,0.5c-13.4-19.8-34.8-8.5-54.2-2.2c-9.4,3.1-17.9,5.6-27.7,2.6
				c-8.6-2.6-14-8-20.8-13.7c-5-4.2-10.5-8.3-16.4-11.6c-2.2-2.1-4.5-4-7-5.7c15.1-10.5,30.1-21.1,44.9-32
				c10.1-7.4,25.6-15.2,30.1-27.9c3-8.5-1-16.3-8.9-20.6c-10.7-5.8-23.7-1.5-34.4,1.9c-16.7,5.3-33.6,9.8-50.1,15.7
				c-15.2,5.4-31.4,10.4-46,17c-3.8-2.6-7.8-4.9-11.3-7.1c-0.6-0.4-1.3-0.4-2-0.3c-0.8-0.2-1.8-0.3-2.8-0.2
				c-0.1-0.2-0.3-0.4-0.5-0.6c-16.9-13.9-35-26.2-54.3-36.5c-14.2-7.5-30.1-17-46.6-17.2c-3.5,0-7,0.4-10.5,0.6
				c-7,0.3-13.2-1.9-20.1-2.5c-4-0.3-7.9-0.6-11.7,1.2c-3.1,1.5-5,3.9-5.7,6.6c-0.5,0.2-0.8,0.7-0.7,1.3c0.1,0.5,0.2,0.9,0.3,1.3
				c0.1,1.1,0.3,2.1,0.8,3.1c7.9,27.8,32.3,48.1,54.5,64.9c13.4,10.1,27.4,19.5,41.6,28.4c-0.7,1.2-1.4,2.4-2.2,3.6
				c-2.6,3.2-4.6,7.1-6.7,10.4c-4.6-5-9.8-9.4-14.1-12.7c-0.4-2.2-1.5-4.2-3.4-5.8c-3.4-2.8-6.8-2.7-10-1.1
				c-12.6-0.6-34.6,28.3-19.9,36.6c0.9,0.5,1.8,0.8,2.8,1c6.6,6.7,17.2,11.7,24.5,15.1c0.1,0,0.1,0,0.2,0.1
				c-8.8,7.9-6.1,21.5,8.1,20.8c9.3-0.5,18.2-8.2,26-12.6c13.6-7.7,27.4-15,41.6-21.5c0.1,0,0.2,0,0.3,0c0.1-0.1,0.2-0.1,0.3-0.2
				c0.3,0.1,0.6,0.1,0.9-0.1c0.4-0.2,0.8-0.5,1.2-0.7c1.1-0.6,2.3-1,3.4-1.6c1.9,1.1,3.8,2.2,5.7,3.2c33.3,19,67.9,36.9,105.2,46.8
				c8.3,2.2,16.7,4,25.2,5.4c6.3,1,15.1,3.8,21.4,1.6c3.3-1.1,5.3-3.2,5.7-5.7c5.6,3.4,11.3,6.9,17,8.7c8.9,2.8,11.7-3.7,6.9-11.5
				c-3.1-5.1-8.6-9.2-14.1-12.7c4.6-3.3,9.1-6.7,13.6-10.3c0.8,0.7,1.6,1.5,2.4,2.2c0.3,0.3,0.8-0.3,0.5-0.5
				c-0.7-0.7-1.5-1.4-2.2-2.2c7-5.6,14-11.3,21.1-16.6C381.6,305.2,381.7,304.1,381.4,303.4z M316.4,220.5
				c-8.7,9.4-21.8,16.8-32.3,24c-11.2,7.7-22.5,15.6-34.4,22.3c-3.8,2.1-7.5,3.9-11.3,5.2c-2.8-2-8.3-5.5-9.2-7.1
				c-2.7-5.2,3.2-11.6,6.6-14.6c7.4-6.5,16.6-11.2,25.2-15.9c0.3-0.1,0.6-0.3,0.9-0.5c0,0,0,0.1,0,0.1c5.5,4.7,10.9,9.4,16.7,13.8
				c0.4,0.3,0.8-0.3,0.4-0.6c-5.4-4.7-11.3-9-17-13.3c0,0,0,0-0.1,0c9.3-5.3,52.2-30.4,56.1-15.9c0,0.1,0.1,0.2,0.1,0.3
				C317.7,219,317.1,219.8,316.4,220.5z M200.4,222.5c16.6-3.3,33.4-13.4,48.2-19.1c11.8-4.5,24-8.3,36.2-11.6
				c3-0.8,6.2-1.7,9.4-2.3c3.9-0.8,7.8-1.3,11.7-1c4.6,0.4,8.5,1.8,11.4,3.9c0.9,0.7,1.8,1.4,2.5,2.3c3.3,3.6,4.5,8.6,3.3,13.9
				c-0.1,0.7-0.3,1.3-0.6,2c-0.6,1.7-1.3,3.3-2.4,5c0,0.1-0.1,0.1-0.1,0.2c0-0.1,0-0.2-0.1-0.3c-0.7-2.2-2.1-3.6-3.9-4.3
				c-8.8-3.2-28,8.8-32.9,11.2c-20.5,9.8-46.5,20.1-58.8,40.3c-0.3,0.5-0.2,1,0.3,1.3c4.2,2.9,8.3,5.8,12.7,8.4
				c-9.9,3.4-19.8,3.9-31.1,0.5c-5.5-1.7-11-3.8-16.4-6c5,0.7,9.2,0.5,11.5-1.2c7.3-5.3,8.1-15.9,5-23.7
				c-2.6-6.6-7.8-11.8-13.6-16.3C195.1,224.7,197.8,223.6,200.4,222.5z M190.7,223.5c-0.3,0.1-0.5,0.3-0.8,0.4
				c-0.2-0.1-0.4-0.3-0.6-0.4C189.7,223.5,190.2,223.5,190.7,223.5z M180.3,223.2c4.4,2.9,10.2,7.7,11.4,8.7
				c7.1,5.7,14.7,14.9,11.2,24.8c-3.9,11.4-14.8,5.5-22.6,2.7c-5.1-1.8-12.2-4.4-17.6-8.3c0.2-0.1,0.4-0.1,0.6-0.3
				c7.8-4.2,15-14.2,16.7-22.9C180.4,226.3,180.5,224.7,180.3,223.2z M175.4,225.3c0.2-1,0.2-1.9,0-2.5c3.7,1,4.5,3.3,2.4,7
				c-0.4,1.5-1.1,3-1.9,4.3c-1.6,3.2-3.7,5.9-6.3,8.5c-3.5,3.4-3.8,4.3-7.6,2.6c0.9-0.4,1.7-1,2.5-1.8c0.4-0.2,0.7-0.4,0.9-0.7
				c0.5-0.7,1-1.4,1.4-2.1C171.2,236.1,174.6,230,175.4,225.3z M168.3,219.6c1.2-0.4,2.5,0.1,4,1.5c-1.2,0.2-2.4,1-3.5,2
				c-2.9,2.7-14,13.3-12.7,19.2c-0.6-0.7-0.7-1.8-0.5-3c0.1-0.4,0.3-0.8,0.6-1.2c0.5-1.4,1.1-2.8,1.9-4.1c2.6-5.2,6.3-9.5,10-13.9
				C168.2,220,168.3,219.8,168.3,219.6z M64.7,281.7c1.4-3.6,5.6-10.4,10.6-14.7c-2.2,2.7-4.1,5.5-5.3,7.5c-0.4,0.7-0.8,1.4-1.3,2.2
				c-4.1,6.4-7.2,14.5,1.6,14.9c2.8,0.1,5.4-1.5,7.6-3.6c2.5-1.7,4.6-4.3,6.4-6.6c2.2-2.8,6.8-8,8.8-12.6c0.6,0.5,1.1,1,1.7,1.5
				c-0.5,6.6-6.2,13.8-10.4,17.6c-3.6,3.2-8.6,6.7-13.7,6.6C63,294.6,62.4,287.3,64.7,281.7z M82.5,304.5c-3.7-2.1-7.6-4.2-11.4-6.6
				c10.7-2.1,23.7-15.3,25.4-26.1c3,2.6,6.1,5.1,9,7.8c2.9,2.6,5.9,5.4,8.4,8.4c1.4,2,2.8,4,4.2,6c4.6,7.2,3,12-4.9,14.6
				c-8,6.1-8.7,5.6-17.3,2.4C91.3,309.4,86.9,307,82.5,304.5z M108.7,319.1c0,0.1,0,0.2,0,0.2c-0.1-0.2-0.2-0.3-0.2-0.5
				c-0.2-0.3-0.3-0.6-0.4-0.9c0.1,0,0.1,0,0.2,0c0.1,0.2,0.2,0.5,0.3,0.7c0,0.1,0.1,0.2,0.1,0.3C108.6,318.9,108.7,319,108.7,319.1z
				 M111.3,326.5c-1.8,1-3.6,1.9-5.5,2.7c-0.5-0.2-1-0.3-1.5-0.5v0c-0.8-0.3-1.5-0.5-2.1-0.8c-3.4-1.3-6-2.7-7.9-4.2
				c-2.3-1.7-3.4-3.6-3.5-5.5c0-0.8,0.2-1.7,0.6-2.6c0.3-0.5,0.6-1.1,1-1.7c0.1,0.1,0.3,0.1,0.4,0.2c4.4,1.9,9.4,3.7,14.1,3.8
				c0.1,0,0.3,0,0.4,0c0,0.1,0,0.2,0,0.3c0.4,2.9,1.6,5.1,3.7,6.8c0.4,0.3,0.8,0.7,1.3,1C112,326.1,111.6,326.3,111.3,326.5z
				 M165.7,297.2c-0.2,0.1-0.3,0.2-0.4,0.4c-11.6,5.9-23.2,11.8-34.6,18.1c-5.2,2.8-10.4,5.9-15.6,8.7c0,0,0-0.1,0-0.1
				c-0.5-0.7-1.3-1.2-1.9-1.8c-0.7-0.7-1.3-1.5-1.9-2.4c-0.1-0.1-0.2-0.3-0.4-0.6c-0.1-0.5-0.2-1-0.2-1.6c-0.1-0.1-0.1-0.2-0.2-0.3
				c2.6-0.5,5-1.6,7.1-3.5c2.3-2.1,3.7-4.4,4.5-6.8c1.5-0.8,2.9-1.6,4.2-2.3c0.3-0.2,0.6-0.4,1-0.6c2.5,3.7,6.8,6.7,11.4,6.5
				c0.6,0,0.6-0.8,0-0.9c-4.5-0.8-8.2-2.3-10.9-6c8.6-5.3,23.3-15.8,31.7-9c0.4,0.4,1-0.4,0.5-0.7c-3.5-2.8-7.3-3.1-11.6-1.8
				c-7.3,2.1-14.5,6.5-21.2,10.7c-0.2-0.3-0.8-0.1-0.6,0.3l0,0c-1.5,0.9-2.9,1.8-4.3,2.6c1.7-7.6-3-16.1-9.5-23.7
				c0.1-0.1,0.2-0.2,0.3-0.4c2.2-3.7,5.2-7.6,6.9-11.8c0.6-0.9,1.2-1.9,1.9-2.9c15.5,9.6,31.3,18.8,47.1,27.8
				C168,295.9,166.8,296.6,165.7,297.2z M323.9,350.8c-2.5-0.2-5.1-0.5-7.6-0.8c-3.4-0.4-6.7-0.9-10-1.5c-9-1.6-17.8-3.6-26.6-6.1
				c-14.7-4.2-28.9-9.7-42.8-15.9c-29.5-13.1-57.4-29.5-85.2-45.8c-41.6-24.4-94.3-51.9-119.1-95.8c-1.1-1.9-2.1-3.8-3-5.7
				c-0.1-0.2-0.2-0.4-0.3-0.6c0,0,0-0.1-0.1-0.1c-0.7-1.5-1.4-3.1-2.1-4.6c2.8-9.2,8.1-12.3,15.8-9.2c1.2,0.3,2.5,0.7,3.7,0.9
				c0.4,0.1,0.8,0.2,1.2,0.3c1.3,0.2,2.5,0.3,3.8,0.5c1.5,1.2,3.1,2.3,4.9,3.3c3.4,1.9,7,3.3,10.5,5.1c2,1,4.1,0.5,5-1.7
				c0.8-2,0.6-4.3-0.4-6.2c9.6,0.9,18,3.5,27.8,7.9c24.5,11,47.1,25.3,68,42c-2.6,1.5-5,4-7.1,6.8c-5.3,5.7-9.9,13.4-9,20.3
				c0.5,3.7,2.5,6.3,5.3,7.4c3.8,4.6,12.2,9.3,20.9,12.4c19.6,9.5,38.7,19.7,58.6,13.9c0,1,0.3,2.1,0.8,2.9c0.6,1.5,1.8,2.6,3.4,3.4
				c1.6,0.8,3.4,0,4.7-0.9c2.5-1.8,2.2-4.7,1.3-7.2c-0.3-0.8-0.7-1.4-1.3-1.8c0.5-0.3,1-0.6,1.5-0.9c4.2,2.9,8.8,5.1,13.2,7.9
				c7.5,4.6,13.6,10.8,20.8,15.8c11.4,7.9,22.8,10,36.2,6.6c7.3-1.8,14.3-4.6,21.4-6.9c1.2-0.4,2.4-0.8,3.6-1.2c2.8-1,5.7-2,8.4-2.5
				c6.6-1.1,21,1.3,23.8,8.9c-6.1,2.9-12.4,5.7-18.5,9c-8,4.2-15.6,8.9-21.7,15c-8.2-5-16.9-9.4-26.1-12.1c-0.1-0.2-0.3-0.3-0.5-0.3
				c-8.3-2.6-10.9,4.7-7.3,11.1c5,8.9,18.7,14.4,27.2,19c1.3,0.7,2.5,1.4,3.8,2.2C328.5,347.3,326.2,349.1,323.9,350.8z
				 M350.2,346.6c-14.5-6.8-27.7-15.8-41.5-24.2c-0.1-0.1-0.3,0.1-0.1,0.2c13.5,8.9,27,18.8,41.9,25.4c0,0.3,0,0.5-0.1,0.8
				c-1.3,6.1-5,0.9-8.9-1.2c-2.3-1.3-4.7-2.6-7-3.9c-0.2-0.3-0.3-0.5-0.5-0.8c-0.5-0.7-1.3-0.8-1.9-0.5c-1-0.6-2.1-1.2-3.1-1.8
				c-4.3-2.4-8.7-4.8-12.8-7.6c-1.4-0.9-2.7-1.9-4.1-2.8c-7.5-2.9-9.3-7.8-5.6-14.7c6.6,4.1,21,11.6,31.5,18.9
				c-1.3,1.1,0.3,3.5,1.8,2.5c0.3-0.2,0.6-0.4,0.9-0.6C345.6,340,349.2,343.6,350.2,346.6z M342.7,331.3c-1.7-1.1-3.4-2.1-4.9-3
				c-1.3-0.8-2.6-1.6-3.9-2.4c5.1-4.4,10.9-7.9,16.8-11.1c2.3,2.2,4.6,4.5,7,6.8C352.3,325.2,346.8,328.6,342.7,331.3z M358.4,321
				c-2.4-2.2-4.9-4.3-7.3-6.4c1.6-0.9,3.2-1.7,4.9-2.6c0.2-0.1,0.3-0.2,0.5-0.3c3.4-1.8,6.8-3.7,10.3-5.5c2-1,4.9-2.1,7.5-3.3
				c0.7,4.1-4.5,9.5-11.2,14.6C361.6,318.7,360,319.9,358.4,321z"/>
			<path class="st4" d="M87.2,174.2c-0.7-0.2-1.5-0.4-2.3-0.4c-2.6,0-4.2,1.3-5.3,3.6c0.1-0.3,0.3-0.5,0.4-0.8
				c-0.4,0.5-0.6,1-0.6,1.6c-0.2,1-0.1,1.9,0.3,2.8c0.1,0.1,0.1,0.3,0.2,0.4c0.7,1.7,2.6,2.9,4.4,2.9c0.8,0,1.5,0,2.3-0.2
				c2.2-0.5,4.1-2.4,4.1-4.8C90.7,177.2,89.4,174.9,87.2,174.2z"/>
			<path class="st4" d="M102.8,184.7c-0.4,0.1-0.8,0.1-1.2,0.2c-1.8,0.5-3,1.9-3.2,3.7c-0.2,1.7,0.4,2.8,1.3,4.1
				c1.8,2.5,6.2,2.1,7.8-0.5c0.1-0.1,0.2-0.3,0.2-0.4C109.8,188.4,106.9,184.2,102.8,184.7z"/>
			<path class="st4" d="M118.4,193c-2.8,0.4-4.7,2.7-4.3,5.5c0.2,1.1,0.7,2,1.5,2.8c2.2,2.2,6.3,2.5,8.1-0.5
				c0.5-0.9,0.8-1.5,0.9-2.6C124.9,194.9,121.5,192.6,118.4,193z"/>
			<path class="st4" d="M136.7,202.7c-2.5-0.2-4.2,1.8-4.6,4.1c-0.2,1,0,2.3,0.3,3.3c0.7,2.4,2.6,4.2,5.3,4c2.3-0.2,4.7-2.2,4.7-4.7
				C142.3,206.1,140.3,203,136.7,202.7z"/>
			<path class="st4" d="M155.6,217.5c-1.5-1-3.3-0.7-4.7,0.3c-0.2,0.1-0.4,0.1-0.5,0.2c-1.1,0.5-1.2,1.5-0.8,2.3
				c-0.1,1.4,0.4,2.8,1.6,3.6c1.7,1.2,4.2,0.7,5.4-1C157.8,221.2,157.3,218.7,155.6,217.5z"/>
			<path class="st4" d="M262.3,286.5c-2.5-0.9-5.7,0.5-6.5,3.2c-0.8,2.7,0.5,5.6,3.2,6.5c2.5,0.9,5.7-0.5,6.5-3.2
				C266.3,290.3,265,287.4,262.3,286.5z"/>
			<path class="st4" d="M280.5,307.9c1.4-0.7,2.2-2.3,1.9-3.9c-0.4-2-2.1-2.7-3.9-2.8c-0.1-0.1-0.1-0.2-0.2-0.2
				c-0.8-0.9-2.2-0.2-2,1c0,0.1,0,0.2,0.1,0.3c-0.9,1.4-1.4,2.8-0.4,4.4C277,308.1,278.9,308.7,280.5,307.9z"/>
			<path class="st4" d="M274.8,329.1c0.1-0.5,0.3-1,0.3-1.5c0-0.2-0.2-0.4-0.5-0.5c-0.8-0.3-2,0.3-2.7,0.8c-1,0.9-1.6,2.2-1.8,3.4
				c-0.5,2.9,4.7,3.2,4.6,0.3C274.7,330.7,274.6,329.9,274.8,329.1z"/>
			<path class="st4" d="M267.7,325.1c-1.7,0.2-3.6,1.8-2.8,3.6c0.3,0.6,1.1,0.7,1.5,0.3c0.7-0.5,0.9-1.4,1.7-1.7
				C269.6,326.9,269.2,324.8,267.7,325.1z"/>
			<path class="st4" d="M261.7,323.7c-0.7,0.1-1.2-0.2-1.8-0.4c-0.4-0.1-0.9,0.3-0.7,0.8c0.5,1.1,1.7,1.3,2.8,1.1
				C262.9,325.1,262.7,323.6,261.7,323.7z"/>
			<path class="st4" d="M166.8,279.9c-0.9-0.6-1.9,0.1-2.1,1c-0.1,0.3-0.1,0.5,0,0.8c0,0.5,0.4,0.9,1,0.8c0.4-0.1,0.6-0.2,1-0.3
				C167.5,281.8,167.6,280.4,166.8,279.9z"/>
			<path class="st4" d="M163.3,274.3c-0.5-0.1-0.6-0.1-1.1-0.2c-1.2,0-0.9,1.9,0.1,1.5c0.5-0.2,0.6-0.2,1.1-0.5
				C163.7,275.1,163.7,274.5,163.3,274.3z"/>
			<path class="st4" d="M178.2,246.6c-1.4-0.2-2.7,0.7-3.8,1.4c-0.6,0.4-0.4,1.7,0.5,1.4c1.4-0.4,2.9-0.8,3.7-2.1
				C178.8,247,178.6,246.6,178.2,246.6z"/>
			<path class="st4" d="M181,250c-1-0.1-1.8,0-2.7,0.3c-0.9,0.2-0.6,1.5,0.3,1.4c1-0.2,1.8-0.3,2.6-0.8
				C181.5,250.6,181.4,250.1,181,250z"/>
			<path class="st4" d="M183,253.5c1.3-0.4,2.6-0.6,3.8-1.2c0.5-0.2,0.2-0.9-0.3-0.9c-1.3,0.2-2.5,0.7-3.7,1.1
				C182.2,252.7,182.4,253.6,183,253.5z"/>
			<path class="st4" d="M85.5,298.4c-1.5-0.4-3.2,0-4.8-0.2c-0.8-0.1-0.9,1-0.3,1.3c1.6,0.7,3.7,1.2,5.3,0.1
				C86.2,299.4,86,298.5,85.5,298.4z"/>
			<path class="st4" d="M88.7,301.8c-0.5-0.1-1-0.1-1.5-0.2c-0.8,0-0.9,1.2-0.1,1.2c0.5,0,1,0,1.6-0.1
				C89.1,302.6,89.2,301.9,88.7,301.8z"/>
			<path class="st4" d="M93.9,303.2c-0.8-0.1-1.5,0.3-1.9,1c-0.2,0.3,0.3,0.6,0.5,0.3c0.4-0.6,0.9-0.7,1.5-0.8
				C94.2,303.8,94.2,303.3,93.9,303.2z"/>
			<path class="st4" d="M56.4,202.2c0.2,0.9,0.5,1.5,1.1,2.2c0.2,0.2,0.6,0.1,0.6-0.2c0-1-0.1-1.5-0.5-2.4
				C57.3,201.1,56.2,201.5,56.4,202.2z"/>
			<path class="st4" d="M62.5,207.9c-0.3,0-0.7,0-1-0.1c-0.7,0-0.6,1.2,0.1,1c0.3-0.1,0.6-0.2,1-0.3
				C62.8,208.4,62.9,207.9,62.5,207.9z"/>
			<path class="st4" d="M66.9,210.7c-0.5-0.2-0.8,0.7-0.3,0.8C67.1,211.7,67.4,210.9,66.9,210.7z"/>
			<path class="st4" d="M113.4,244c-1-0.2-1.8,0.2-2.6,0.8c-0.6,0.4,0.1,1.4,0.7,1c0.6-0.4,1.3-0.6,2-0.8
				C114.1,244.9,114,244.1,113.4,244z"/>
			<path class="st4" d="M116.1,248.3c-1,0.2-1.9,0.6-2.9,1c-0.7,0.3-0.3,1.4,0.4,1.2c1-0.3,2-0.6,2.8-1.1
				C117,249,116.8,248.2,116.1,248.3z"/>
			<path class="st4" d="M119,250.4c-0.5-0.1-0.9-0.1-1.4-0.1c-0.5,0-0.6,0.8,0,0.8c0.5,0,1,0,1.5,0
				C119.4,251.1,119.3,250.5,119,250.4z"/>
			<path class="st4" d="M134.6,251.9c0,1.3,0,2.7,0.3,3.9c0.1,0.4,0.6,0.3,0.7-0.1c0.2-1.3,0.1-2.6,0-3.8
				C135.5,251.4,134.6,251.3,134.6,251.9z"/>
			<path class="st4" d="M141,255.1c0.3-0.7-0.6-1.4-1-0.7c-0.7,1.3-1.1,2.6-0.6,4c0.1,0.3,0.5,0.2,0.6,0
				C140.3,257.3,140.4,256.1,141,255.1z"/>
			<path class="st4" d="M231.2,241.7c0.4,0.4,1,0,0.8-0.5c-0.4-0.9-1-1.7-1.5-2.5c-0.4-0.6-1.4-0.1-1,0.5
				C230,240.1,230.5,241,231.2,241.7z"/>
			<path class="st4" d="M238.7,235.7c0.5,0.2,0.8-0.6,0.3-0.8C238.5,234.8,238.2,235.6,238.7,235.7z"/>
			<path class="st4" d="M251.9,228.8c0.2-0.7,0.3-1.5,0.5-2.2c0.1-0.7-0.9-0.8-0.9-0.2c0,0.8-0.1,1.5-0.1,2.3
				C251.3,229,251.8,229.1,251.9,228.8z"/>
			<path class="st4" d="M223,306.9c0.1,0.7,0.2,1.3,0.4,2c0.1,0.4,0.9,0.5,0.9-0.1c0-0.7-0.1-1.4-0.2-2.1
				C223.9,306,222.9,306.2,223,306.9z"/>
			<path class="st4" d="M231.9,306.4c-0.2-0.8-1.4-0.5-1.2,0.2c0.3,1.3,0.8,2.1,1.9,2.9c0.2,0.2,0.5-0.1,0.4-0.3
				C232.6,308.4,232.1,307.3,231.9,306.4z"/>
		</g>
	</g>
</g>
<g>
	<path class="st2" d="M750.9,239.4c-8.2,4.1-16.1,8.7-23.9,13.5c-7.6,4.7-15.3,10.6-23.5,14.2c-0.4,0.2-0.7,0-0.9-0.3
		c-0.3,0-0.6-0.1-0.7-0.3c-0.7,0.4-1.7,0.4-2.2-0.5c-5.1-9-11.8-17.3-17.7-25.8c-6.4-9.2-12.2-19.2-19.7-27.7c-1-1.1-0.7-2.3,0.1-3
		c0-0.3,0.2-0.7,0.6-1c15.6-10.9,31.6-20,45.2-33.6c0.5-0.5,1.2-0.3,1.5,0.2c11.8,18,24.2,35.4,36.5,53.1c0.4,0.5,0.2,1.2-0.2,1.6
		c-0.3,0.4-0.7,0.8-1,1.2c0,0,0.1,0,0.1,0.1c1.9,2.4,3.9,4.6,6,6.7C751.6,238.2,751.5,239.1,750.9,239.4z"/>
	<g>
		<path class="st3" d="M722,224.8c-3.2,0.1-5.7,3.1-8.1,4.9c-2.7,2-6,3.7-8.3,6.3c-1.2,1.3-0.1,3.8,1.9,3.2c3.4-1.2,6.4-3.7,9.3-5.8
			c2.4-1.7,6.1-3.5,6.9-6.5C723.8,225.9,723.1,224.8,722,224.8z"/>
		<path class="st3" d="M725.7,232c-3.1,0.5-6,3.3-8.5,5.1c-2.5,1.7-5.4,3.3-7.1,5.8c-0.9,1.3,0.6,3,2,2.6c3.1-0.9,5.8-3.3,8.4-5.1
			c2.5-1.7,5.7-3.1,7.3-5.7C728.8,233.2,727.2,231.7,725.7,232z"/>
		<g>
			<path class="st4" d="M751.2,237.8c-2.2-2.1-4.2-4.3-6-6.7c0-0.1-0.1-0.1-0.1-0.1c0.3-0.4,0.7-0.8,1-1.2c0.4-0.4,0.6-1.1,0.2-1.6
				c-12.3-17.7-24.6-35.2-36.5-53.1c-0.3-0.5-1.1-0.7-1.5-0.2c-13.6,13.6-29.5,22.8-45.2,33.6c-0.4,0.3-0.5,0.6-0.6,1
				c-0.8,0.7-1.1,1.9-0.1,3c7.4,8.4,13.3,18.4,19.7,27.7c5.9,8.5,12.6,16.8,17.7,25.8c0.5,0.9,1.5,1,2.2,0.5
				c0.2,0.2,0.4,0.4,0.7,0.3c0.2,0.3,0.6,0.4,0.9,0.3c8.2-3.6,15.9-9.5,23.5-14.2c7.8-4.8,15.7-9.4,23.9-13.5
				C751.5,239.1,751.6,238.2,751.2,237.8z M708.6,261.1c-1.9,1.2-3.9,2.5-5.8,3.7c-0.1-0.3-0.2-0.6-0.5-0.8
				c-7.7-7.7-13.7-16.9-19.9-25.8c-6-8.8-12.5-17.8-16.6-27.7c0-0.1-0.1-0.2-0.2-0.3c10.9-6.6,21.3-14.5,31.2-22.5
				c2.8-2.3,5.5-5.6,8.6-7.4c1-1.9,2.4-2.5,4.3-1.6c1.2,1.6,2.4,3.3,3.6,5c4.4,6.3,8.7,12.6,13,19c4.3,6.4,8.3,12.9,12.5,19.3
				c2.7,4.1,4.6,5.9,2.8,10.7c-1.2,3.1-4.6,6-6.9,8.4c-5.5,5.8-11.8,10.6-18.3,15C713.7,257.6,711.1,259.2,708.6,261.1z
				 M744.8,240.4c-4.9,3-10.2,5.5-15.3,8.3c-1.3,0.7-2.5,1.4-3.8,2.1c6.9-5.5,12.4-11.7,18-18.3
				C746.5,236.1,749.7,237.3,744.8,240.4z"/>
			<path class="st4" d="M710.6,201.9c-6.1-6.2-16-5.5-22.1,0.2c-0.2,0.2-0.2,0.4-0.1,0.6c-5.3,4.6-5,14-1,19.4
				c5.4,7.1,16.1,8.1,22.7,2C716.5,218.3,716.6,208,710.6,201.9z M709.8,202.7c1.3,1.3,2.3,2.9,3,4.6c-1,1.7-2.1,3.3-3.3,4.8
				c-2.1-3.7-5-7.3-8.3-9.5c1.8-0.9,3.8-1.6,5.8-2.1C708,201,709,201.8,709.8,202.7z M709,212.6c-3.3,4-7.2,7.3-11.7,9.8
				c-1.8-1.7-3.3-3.6-4.1-4.7c-1.2-1.7-2.1-3.5-2.8-5.4c2.5-4,6-7.3,10.3-9.5C704.1,205.1,706.9,208.8,709,212.6z M706.5,200.2
				c-2,0.4-4,1.1-5.9,2c-2.5-1.5-5.2-2.2-8.1-1.7C696.9,198.2,702.2,197.9,706.5,200.2z M689.4,203.2c0.4-0.5,0.8-1,1.3-1.5
				c0.4-0.3,0.9-0.6,1.3-0.8c3-0.6,5.7,0.1,8.2,1.6c-4.1,2.1-7.5,5.4-9.9,9.3C689.3,209,689,206.1,689.4,203.2z M689.1,203.6
				c-0.5,2.9-0.1,5.8,0.9,8.6c-1.3,2.2-2.3,4.7-2.9,7.2C684.4,214.3,685.7,208.3,689.1,203.6z M689.3,222.4c-0.8-0.9-1.5-1.8-2-2.8
				c0.7-2.5,1.6-4.9,2.9-7c0.9,2.3,2.1,4.4,3.6,6.3c0.7,0.9,1.8,2.2,3.2,3.5c-1.6,0.8-3.2,1.6-4.9,2.3
				C691.1,224.2,690.1,223.4,689.3,222.4z M692.3,224.9c1.7-0.6,3.3-1.4,4.9-2.2c1.7,1.6,3.8,3.2,5.7,3.9
				C699.3,227.4,695.5,226.9,692.3,224.9z M709.9,222.8c-1.8,1.8-4,3-6.4,3.6c-2-0.5-4.2-2.1-6-3.9c4.5-2.4,8.5-5.6,11.8-9.5
				c1.3,2.3,2.3,4.6,3,6.6C711.7,220.8,710.9,221.9,709.9,222.8z M709.7,212.5c1.2-1.5,2.3-3.1,3.2-4.8c1.4,3.7,1.3,7.9-0.4,11.4
				C711.9,217,711,214.7,709.7,212.5z"/>
		</g>
	</g>
</g>
<g>
	<path class="st2" d="M550,72.5c-1.7-0.2-3.5,0.2-5.3,0.1c-1-0.1-2-0.1-3-0.2c0-0.4-0.1-0.7-0.4-0.9c-0.5-0.4-1.3-0.3-1.9-0.3
		c-1.1-0.1-2.3-0.1-3.4-0.1c-0.8,0-1.9-0.1-2.2,0.7c-2.5-0.2-5.1-0.3-7.7-0.4c-5.8-0.2-11.7-0.4-17.5-0.4c0.1-0.1,0.2-0.2,0.2-0.4
		c0-0.6-0.2-0.9-0.6-1.2c-0.1-0.2-0.2-0.3-0.4-0.3h-0.3c-0.5-0.1-1-0.2-1.5-0.2c0.8-3.6-0.2-8.8-3.8-10.6c-2.3-1.2-5.6-0.6-8.1-0.6
		c-1.8,0-3.7,0-5.5,0c-1.2,0-2.4,0-3.5,0c-0.7,0-1.3,0-2,0c-5.7,0-13-1.1-18.5,1.1c-3.4,1.4-4.6,6-4,9.5c-0.7-0.1-1.4-0.1-1.9,0.1
		c-1.4,0.5-1.4,2.1-0.8,3.2c-4.7,0.1-9.4,0.2-14.1,0.2c-3.8,0-7.6,0-11.4-0.1c0-0.1-0.1-0.3-0.2-0.4c-0.4-0.6-1.3-0.5-1.9-0.6
		c-1.8-0.1-3.6,0-5.3,0.6c-0.1,0-0.2,0.2-0.2,0.3v0.1c-2.8,0.1-5.6,0.2-8.4,0.5c-5.1,0.6-6.8,4.1-6.8,8.2c-1,8.5-0.5,16.8-0.3,25.3
		c0.1,4.4,0.2,8.8,0.3,13.2c0,10.4,0.6,20.9,1.3,31.2c0.3,4.2,0.7,8.8,3.7,12.1c2.8,3.1,7,4.2,11,4.7c6.1,0.7,12.4,0.6,18.6,0.6
		c6.8,0,13.6,0.3,20.4,0.5c13.2,0.5,26.5,1.3,39.7,1.2c5.8,0.1,11.7,0.2,17.5,0.3c7.2,0.1,15.1,1,22.3-0.3c2.4-0.4,4.7-1.3,6.2-3.2
		c2.1-2.5,2-6,2.5-9c1.3-7.5,1.2-15,1.4-22.6c0.1-8.3,0.5-16.6,0.8-24.9c0.3-8.5,0.5-17.1,0.7-25.6C555.7,79.5,555.9,73.1,550,72.5z
		 M471.8,68.7c-0.8,0.2-1.6,0.3-2.5,0.3c0.3-1.4,0.4-3,1.8-3.9c0.9-0.5,2.5-0.8,3.5-0.9c2.7-0.5,5.4-0.6,8.1-0.8
		c2.3-0.1,4.7-0.2,7.1-0.1c1.8,0.1,5.3,0,7.3,0.9c0.4,0.4,0.7,0.9,1,1.6c0.3,0.7,0.2,1.9,0.1,2.9c-2.3-0.2-5.2-0.2-3.5,2.2V71
		c-7.3,0.1-14.6,0.2-21.8,0.3v-0.1c0-0.5,0-0.9,0.1-1.4C473,69.1,472.5,68.5,471.8,68.7z"/>
	<g>
		<path class="st3" d="M433,114.7c-0.1-0.5-1-0.4-0.9,0.1c0.1,1.1,0.2,2.2,0.1,3.3c0,0.9,0.1,1.8-0.9,2.2c-0.3,0.2-0.8,0.1-1.1,0.2
			c-0.2,0-0.3,0.1-0.4,0.1c0-1,0-2-0.1-2.9c-0.1-0.7-0.2-1.3-1-1.5c-0.4-0.1-0.7,0.2-0.7,0.6c0,0.9-0.1,1.7-0.1,2.6
			c0,0.4,0,0.9-0.1,1.3c0,0,0,0,0,0c-0.2-0.1-0.4-0.1-0.7-0.2c-0.5,0.1-0.9,0-1.2-0.4c-0.2-0.5-0.3-1.1-0.4-1.8c0-0.2,0-0.3,0-0.5
			c0-0.9,0.1-1.7,0.1-2.6c0-0.1,0-0.2-0.1-0.3c0-0.1,0-0.2-0.1-0.3c-0.1-0.1-0.2-0.2-0.3-0.2c-1.8,0.1-1.5,2.7-1.4,3.9
			c0.1,1.8,0,3.9,2,4.5c0.6,0.2,1.9,0.2,2.5-0.3c0.1,0,0.2-0.1,0.2-0.1c0,0.6-0.1,1.1-0.1,1.2c0,0.7,1.1,0.9,1.3,0.2
			c0,0,0-0.1,0-0.2c0,0,0,0,0,0c0,0,0,0,0,0c0-0.2,0-0.5,0-0.8c1.5,0.1,3.1-0.2,3.7-1.8C434.1,119.1,433.5,116.6,433,114.7z"/>
		<g>
			<path class="st3" d="M517.7,160.9c-0.2,0-0.5,0-0.7,0h0c-0.2,0-0.3,0.1-0.3,0.3c0,0.2,0.1,0.4,0.3,0.4c0.2,0,0.5,0,0.7,0h0
				c0.2,0,0.3-0.2,0.3-0.3C518,161,517.9,160.9,517.7,160.9z M520.7,160.9c0-0.2-0.2-0.3-0.4-0.3c-0.2,0-0.4,0.1-0.6,0.1
				c-0.2,0-0.3,0.2-0.3,0.4c0,0.2,0.2,0.3,0.3,0.3h0c0.2,0,0.5-0.1,0.7-0.1C520.7,161.2,520.8,161.1,520.7,160.9z M515,160.7
				l-0.7-0.1c-0.2,0-0.4,0.1-0.4,0.3c0,0.2,0.1,0.4,0.3,0.4l0.7,0.1c0,0,0,0,0,0c0.2,0,0.3-0.1,0.3-0.3
				C515.3,160.9,515.1,160.7,515,160.7z M512.2,160.5c-0.1,0-0.3,0-0.4,0l-0.3,0h0c-0.2,0-0.3,0.1-0.4,0.3c0,0.2,0.1,0.4,0.3,0.4
				l0.3,0c0.1,0,0.3,0,0.4,0c0,0,0,0,0,0c0.2,0,0.3-0.1,0.3-0.3C512.5,160.6,512.4,160.5,512.2,160.5z M509.4,160.4l-0.7,0
				c-0.2,0-0.4,0.1-0.4,0.3c0,0.2,0.1,0.4,0.3,0.4l0.7,0c0,0,0,0,0,0c0.2,0,0.3-0.1,0.3-0.3C509.8,160.5,509.6,160.4,509.4,160.4z
				 M506.7,160.3l-0.7,0c-0.2,0-0.4,0.1-0.4,0.3c0,0.2,0.1,0.4,0.3,0.4l0.7,0c0,0,0,0,0,0c0.2,0,0.3-0.1,0.3-0.3
				C507,160.4,506.9,160.3,506.7,160.3z M504,160.2l-0.7,0c-0.2,0-0.4,0.1-0.4,0.3c0,0.2,0.1,0.4,0.3,0.4l0.7,0c0,0,0,0,0,0
				c0.2,0,0.3-0.1,0.3-0.3C504.3,160.4,504.2,160.2,504,160.2z M501.2,160.1l-0.7,0c0,0,0,0,0,0c-0.2,0-0.3,0.1-0.3,0.3
				c0,0.2,0.1,0.4,0.3,0.4l0.7,0c0,0,0,0,0,0c0.2,0,0.3-0.1,0.4-0.3C501.6,160.3,501.4,160.1,501.2,160.1z M498.4,160l-0.7,0
				c-0.2,0-0.3,0.1-0.4,0.3c0,0.2,0.1,0.4,0.3,0.4l0.7,0h0c0.2,0,0.3-0.1,0.3-0.3C498.8,160.2,498.6,160,498.4,160z M523.2,159.7
				c-0.1-0.2-0.3-0.2-0.5-0.1c-0.2,0.1-0.4,0.2-0.6,0.3c-0.2,0.1-0.2,0.3-0.1,0.5c0.1,0.1,0.2,0.2,0.3,0.2c0.1,0,0.1,0,0.2,0
				c0.2-0.1,0.4-0.2,0.6-0.4C523.3,160.1,523.3,159.9,523.2,159.7z M495.7,159.9l-0.7,0h0c-0.2,0-0.3,0.1-0.3,0.3
				c0,0.2,0.1,0.4,0.3,0.4l0.7,0h0c0.2,0,0.3-0.1,0.3-0.3C496.1,160,495.9,159.9,495.7,159.9z M493,159.8l-0.7,0
				c-0.2,0-0.4,0.1-0.4,0.3c0,0.2,0.1,0.3,0.3,0.4l0.7,0h0c0.2,0,0.3-0.1,0.3-0.3C493.3,159.9,493.2,159.8,493,159.8z M490.2,159.7
				l-0.7,0c-0.2,0-0.4,0.1-0.4,0.3c0,0.2,0.1,0.4,0.3,0.4l0.7,0c0,0,0,0,0,0c0.2,0,0.3-0.1,0.3-0.3
				C490.6,159.8,490.4,159.7,490.2,159.7z M487.5,159.6l-0.7,0c-0.2,0-0.4,0.1-0.4,0.3c0,0.2,0.1,0.4,0.3,0.4l0.7,0c0,0,0,0,0,0
				c0.2,0,0.3-0.1,0.3-0.3C487.8,159.7,487.7,159.6,487.5,159.6z M484.7,159.4l-0.7,0c-0.2,0-0.4,0.1-0.4,0.3c0,0.2,0.1,0.4,0.3,0.4
				l0.7,0c0,0,0,0,0,0c0.2,0,0.3-0.1,0.3-0.3C485.1,159.6,484.9,159.5,484.7,159.4z M482,159.3l-0.7,0c-0.2,0-0.4,0.1-0.4,0.3
				c0,0.2,0.1,0.4,0.3,0.4l0.7,0c0,0,0,0,0,0c0.2,0,0.3-0.1,0.3-0.3C482.3,159.5,482.2,159.3,482,159.3z M479.3,159.2l-0.7,0
				c-0.2,0-0.4,0.1-0.4,0.3c0,0.2,0.1,0.4,0.3,0.4l0.7,0c0,0,0,0,0,0c0.2,0,0.3-0.1,0.3-0.3C479.6,159.4,479.5,159.2,479.3,159.2z
				 M476.5,159.1l-0.7,0c-0.2,0-0.4,0.1-0.4,0.3c0,0.2,0.1,0.4,0.3,0.4l0.7,0c0,0,0,0,0,0c0.2,0,0.3-0.1,0.3-0.3
				C476.9,159.3,476.7,159.1,476.5,159.1z M473.8,159l-0.7,0c-0.2,0-0.4,0.1-0.4,0.3c0,0.2,0.1,0.4,0.3,0.4l0.7,0c0,0,0,0,0,0
				c0.2,0,0.3-0.1,0.3-0.3C474.1,159.1,474,159,473.8,159z M471,158.8l-0.7,0c-0.2,0-0.4,0.1-0.4,0.3c0,0.2,0.1,0.4,0.3,0.4l0.7,0
				c0,0,0,0,0,0c0.2,0,0.3-0.1,0.3-0.3C471.4,159,471.2,158.8,471,158.8z M468.3,158.7l-0.7,0c-0.2,0-0.4,0.1-0.4,0.3
				c0,0.2,0.1,0.4,0.3,0.4l0.7,0c0,0,0,0,0,0c0.2,0,0.3-0.1,0.3-0.3C468.6,158.9,468.5,158.7,468.3,158.7z M465.5,158.6l-0.7,0h0
				c-0.2,0-0.3,0.1-0.3,0.3c0,0.2,0.1,0.3,0.3,0.4l0.7,0c0,0,0,0,0,0c0.2,0,0.3-0.1,0.3-0.3C465.9,158.8,465.7,158.6,465.5,158.6z
				 M457.3,158.6h-0.7c-0.2,0-0.3,0.2-0.3,0.4c0,0.2,0.2,0.3,0.3,0.3h0.7c0.2,0,0.3-0.2,0.3-0.4
				C457.6,158.8,457.5,158.6,457.3,158.6z M454.5,158.6l-0.7,0c-0.2,0-0.3,0.2-0.4,0.3c0,0.2,0.2,0.4,0.3,0.4h0.7l0-0.3L454.5,158.6
				z M460,158.6h-0.7c-0.2,0-0.3,0.2-0.3,0.3c0,0.2,0.2,0.3,0.4,0.3h0.7c0.2,0,0.3-0.2,0.3-0.3C460.4,158.7,460.2,158.6,460,158.6z
				 M462.8,158.6h-0.7c-0.2,0-0.3,0.2-0.3,0.3c0,0.2,0.1,0.4,0.3,0.4h0.7c0.2,0,0.3-0.2,0.3-0.4C463.1,158.7,463,158.6,462.8,158.6z
				 M451.8,158.6l-0.7,0c-0.2,0-0.4,0.1-0.4,0.3c0,0.2,0.1,0.4,0.3,0.4l0.7,0c0,0,0,0,0,0c0.2,0,0.3-0.1,0.3-0.3
				C452.1,158.7,452,158.6,451.8,158.6z M449.1,158.5l-0.7,0c-0.2,0-0.4,0.1-0.4,0.3c0,0.2,0.1,0.4,0.3,0.4l0.7,0c0,0,0,0,0,0
				c0.2,0,0.3-0.1,0.3-0.3S449.2,158.5,449.1,158.5z M446.4,158.2c-0.2,0-0.4-0.1-0.6-0.1c-0.2,0-0.4,0.1-0.4,0.3
				c0,0.2,0.1,0.4,0.3,0.4c0.2,0,0.5,0.1,0.7,0.1c0,0,0,0,0.1,0c0.2,0,0.3-0.1,0.3-0.3C446.7,158.5,446.5,158.3,446.4,158.2z
				 M525,157.7c-0.2-0.1-0.4-0.1-0.5,0.1c-0.1,0.2-0.3,0.4-0.4,0.5c-0.1,0.1-0.1,0.4,0.1,0.5c0.1,0,0.1,0.1,0.2,0.1
				c0.1,0,0.2,0,0.3-0.1c0.1-0.2,0.3-0.4,0.4-0.6C525.2,158,525.2,157.8,525,157.7z M443.8,157.5c-0.2-0.1-0.4-0.2-0.6-0.3
				c-0.2-0.1-0.4,0-0.5,0.1c-0.1,0.2,0,0.4,0.1,0.5c0.2,0.1,0.4,0.2,0.6,0.3c0,0,0.1,0,0.1,0c0.1,0,0.2-0.1,0.3-0.2
				C444.1,157.8,444,157.6,443.8,157.5z M441.7,156c-0.1-0.1-0.3-0.3-0.4-0.5c-0.1-0.1-0.3-0.2-0.5,0c-0.1,0.1-0.2,0.3,0,0.5
				c0.2,0.2,0.3,0.4,0.5,0.5c0.1,0.1,0.2,0.1,0.2,0.1c0.1,0,0.2,0,0.2-0.1C441.8,156.4,441.8,156.1,441.7,156z M526.3,155.2
				c-0.2-0.1-0.4,0-0.5,0.2c-0.1,0.2-0.2,0.4-0.3,0.6c-0.1,0.2,0,0.4,0.2,0.5c0,0,0.1,0,0.1,0c0.1,0,0.2-0.1,0.3-0.2
				c0.1-0.2,0.2-0.4,0.3-0.6C526.5,155.5,526.4,155.3,526.3,155.2z M440.1,153.9c-0.1-0.2-0.2-0.4-0.3-0.6c-0.1-0.2-0.3-0.3-0.5-0.2
				c-0.2,0.1-0.3,0.3-0.2,0.5c0.1,0.2,0.2,0.4,0.3,0.6c0.1,0.1,0.2,0.2,0.3,0.2c0,0,0.1,0,0.1,0
				C440.2,154.3,440.2,154.1,440.1,153.9z M527,152.6c-0.2,0-0.4,0.1-0.4,0.3c0,0.2-0.1,0.4-0.2,0.6c-0.1,0.2,0.1,0.4,0.2,0.4
				c0,0,0.1,0,0.1,0c0.2,0,0.3-0.1,0.3-0.2c0.1-0.2,0.1-0.5,0.2-0.7C527.4,152.8,527.2,152.6,527,152.6z M439.2,150.7
				c0-0.2-0.2-0.3-0.4-0.3c-0.2,0-0.3,0.2-0.3,0.4c0,0.2,0.1,0.5,0.1,0.7c0,0.2,0.2,0.3,0.3,0.3c0,0,0,0,0.1,0
				c0.2,0,0.3-0.2,0.3-0.4C439.3,151.2,439.2,150.9,439.2,150.7z M527.4,149.9c-0.2,0-0.4,0.1-0.4,0.3c0,0.2,0,0.5-0.1,0.7
				c0,0.2,0.1,0.4,0.3,0.4h0c0.2,0,0.3-0.1,0.3-0.3c0-0.2,0.1-0.5,0.1-0.7C527.8,150.1,527.6,149.9,527.4,149.9z M439,148
				c0-0.2-0.2-0.4-0.4-0.3c-0.2,0-0.3,0.2-0.3,0.4l0,0.7c0,0.2,0.2,0.3,0.3,0.3c0,0,0,0,0,0c0.2,0,0.3-0.2,0.3-0.4L439,148z
				 M527.5,147.1c-0.2,0-0.3,0.2-0.3,0.4c0,0.2,0,0.5,0,0.7c0,0.2,0.1,0.4,0.3,0.4c0,0,0,0,0,0c0.2,0,0.3-0.1,0.3-0.3
				c0-0.2,0-0.5,0-0.7c0,0,0,0,0,0C527.9,147.3,527.7,147.1,527.5,147.1z M438.9,145.3c0-0.2-0.2-0.3-0.3-0.3h0
				c-0.2,0-0.3,0.2-0.3,0.4l0,0.7c0,0.2,0.2,0.3,0.3,0.3h0c0.2,0,0.3-0.2,0.3-0.4L438.9,145.3z M527.8,144.7c0-0.2-0.2-0.3-0.4-0.3
				c-0.2,0-0.3,0.2-0.3,0.4c0,0.2,0,0.5,0,0.7c0,0.2,0.2,0.3,0.3,0.3c0,0,0,0,0,0c0.2,0,0.3-0.2,0.3-0.4
				C527.8,145.2,527.8,144.9,527.8,144.7z M438.6,142.2c-0.2,0-0.4,0.2-0.4,0.3v0.7c0,0.2,0.2,0.4,0.3,0.4c0.2,0,0.3-0.2,0.3-0.3
				l0-0.7C438.9,142.3,438.7,142.2,438.6,142.2z M527.6,142c0-0.2-0.2-0.3-0.4-0.3c-0.2,0-0.3,0.2-0.3,0.4l0.1,0.7
				c0,0.2,0.2,0.3,0.3,0.3h0c0.2,0,0.3-0.2,0.3-0.4L527.6,142z M438.6,139.4C438.6,139.4,438.6,139.4,438.6,139.4
				c-0.2,0-0.4,0.1-0.4,0.3l0,0.7c0,0.2,0.1,0.4,0.3,0.4c0,0,0,0,0,0c0.2,0,0.3-0.2,0.3-0.3l0-0.7
				C439,139.6,438.8,139.4,438.6,139.4z M527.4,139.2c0-0.2-0.2-0.3-0.4-0.3c-0.2,0-0.3,0.2-0.3,0.4l0.1,0.7c0,0.2,0.2,0.3,0.3,0.3
				h0c0.2,0,0.3-0.2,0.3-0.4L527.4,139.2z M438.7,136.7c-0.2,0-0.4,0.1-0.4,0.3l0,0.7c0,0.2,0.1,0.4,0.3,0.4h0
				c0.2,0,0.3-0.1,0.3-0.3l0-0.7C439,136.9,438.9,136.7,438.7,136.7z M527.2,136.5c0-0.2-0.2-0.4-0.4-0.3c-0.2,0-0.3,0.2-0.3,0.4
				c0,0.2,0,0.5,0,0.7c0,0.2,0.2,0.3,0.3,0.3c0,0,0,0,0,0c0.2,0,0.3-0.2,0.3-0.4C527.2,136.9,527.2,136.7,527.2,136.5z M438.8,134.3
				c0-0.2-0.2-0.3-0.4-0.3c-0.2,0-0.3,0.2-0.3,0.4c0,0.2,0.1,0.5,0.1,0.7c0,0.2,0.2,0.3,0.3,0.3h0c0.2,0,0.3-0.2,0.3-0.4
				C438.8,134.7,438.8,134.5,438.8,134.3z M527.1,133.8c0-0.2-0.2-0.3-0.3-0.3h0c-0.2,0-0.3,0.2-0.3,0.4l0,0.7
				c0,0.2,0.2,0.3,0.3,0.3c0,0,0,0,0,0c0.2,0,0.3-0.2,0.3-0.4L527.1,133.8z M438.5,131.5c0-0.2-0.2-0.3-0.4-0.3
				c-0.2,0-0.3,0.2-0.3,0.4c0,0.2,0,0.5,0,0.7c0,0.2,0.2,0.3,0.3,0.3h0c0.2,0,0.3-0.2,0.3-0.4C438.6,132,438.6,131.8,438.5,131.5z
				 M527,131c0-0.2-0.2-0.3-0.3-0.3c-0.2,0-0.4,0.2-0.3,0.3v0.7c0,0.2,0.2,0.3,0.4,0.3c0.2,0,0.3-0.2,0.3-0.3L527,131z M438.4,128.8
				c0-0.2-0.2-0.3-0.3-0.3c0,0,0,0,0,0c-0.2,0-0.3,0.2-0.3,0.4l0,0.7c0,0.2,0.2,0.3,0.3,0.3c0,0,0,0,0,0c0.2,0,0.3-0.2,0.3-0.4
				L438.4,128.8z M526.7,127.9c-0.2,0-0.4,0.2-0.4,0.4l0,0.7l0.7,0v-0.7C527,128.1,526.9,127.9,526.7,127.9z M438.1,125.7
				c-0.2,0-0.4,0.2-0.4,0.4l0,0.7c0,0.2,0.1,0.3,0.3,0.3c0.2,0,0.3-0.2,0.3-0.3v-0.7C438.4,125.9,438.3,125.7,438.1,125.7z
				 M526.7,125.2c-0.2,0-0.4,0.2-0.4,0.3v0.7c0,0.2,0.2,0.3,0.4,0.3c0.2,0,0.3-0.2,0.3-0.3v-0.7C527,125.3,526.9,125.2,526.7,125.2z
				 M438.1,123c-0.2,0-0.3,0.2-0.3,0.4v0.7c0,0.2,0.2,0.3,0.3,0.3c0.2,0,0.4-0.2,0.3-0.3v-0.7C438.4,123.1,438.2,123,438.1,123z
				 M526.7,122.4c-0.2,0-0.3,0.1-0.3,0.3v0.7c0,0.2,0.2,0.4,0.4,0.4c0.2,0,0.3-0.2,0.3-0.4v-0.7C527,122.6,526.9,122.4,526.7,122.4z
				 M438.4,120.6c0-0.2-0.2-0.3-0.3-0.3c-0.2,0-0.3,0.2-0.3,0.3v0.7c0,0.2,0.2,0.3,0.4,0.3c0.2,0,0.3-0.2,0.3-0.4L438.4,120.6z
				 M527,120c0-0.2-0.1-0.3-0.3-0.3c-0.2,0-0.4,0.2-0.3,0.4l0,0.7c0,0.2,0.1,0.3,0.3,0.3c0.2,0,0.3-0.2,0.3-0.3L527,120z
				 M438.4,117.8c0-0.2-0.2-0.3-0.3-0.3c0,0,0,0,0,0c-0.2,0-0.3,0.2-0.3,0.4l0,0.7c0,0.2,0.2,0.3,0.4,0.3c0.2,0,0.3-0.2,0.3-0.3
				L438.4,117.8z M527,117.3c0-0.2-0.2-0.3-0.4-0.3c0,0,0,0,0,0c-0.2,0-0.3,0.2-0.3,0.4l0,0.7c0,0.2,0.2,0.3,0.3,0.3h0
				c0.2,0,0.3-0.2,0.3-0.4L527,117.3z M438.3,115.1c0-0.2-0.2-0.3-0.3-0.3c0,0,0,0,0,0c-0.2,0-0.3,0.2-0.3,0.4l0,0.7l0.2,0l0.5,0
				L438.3,115.1z M526.9,114.6L526.9,114.6l-0.3,0l-0.3,0.1l0,0.6c0,0.2,0.2,0.3,0.3,0.3c0,0,0,0,0,0c0.2,0,0.3-0.2,0.3-0.4
				L526.9,114.6z M438.3,112.3c0-0.2-0.2-0.3-0.3-0.3c0,0,0,0,0,0c-0.2,0-0.3,0.2-0.3,0.4l0,0.7c0,0.2,0.2,0.3,0.4,0.3
				c0.2,0,0.3-0.2,0.3-0.4L438.3,112.3z M526.7,111.8c0-0.2-0.2-0.4-0.4-0.3c-0.2,0-0.3,0.2-0.3,0.4l0,0.7c0,0.2,0.2,0.3,0.3,0.3h0
				c0.2,0,0.3-0.2,0.3-0.4L526.7,111.8z M438.2,109.6c0-0.2-0.2-0.4-0.4-0.3c-0.2,0-0.3,0.2-0.3,0.4l0,0.7c0,0.2,0.2,0.3,0.3,0.3h0
				c0.2,0,0.3-0.2,0.3-0.4L438.2,109.6z M526.5,109c0-0.2-0.2-0.4-0.4-0.3c-0.2,0-0.3,0.2-0.3,0.4l0,0.7c0,0.2,0.2,0.3,0.3,0.3
				c0,0,0,0,0,0c0.2,0,0.3-0.2,0.3-0.4L526.5,109z M438.2,106.8c0-0.2-0.2-0.3-0.3-0.3c-0.2,0-0.3,0.2-0.3,0.4l0,0.7
				c0,0.2,0.2,0.3,0.3,0.3c0,0,0,0,0,0c0.2,0,0.3-0.2,0.3-0.4L438.2,106.8z M526.4,106.3c0-0.2-0.2-0.3-0.4-0.3
				c-0.2,0-0.3,0.2-0.3,0.4l0,0.7c0,0.2,0.2,0.3,0.3,0.3h0c0.2,0,0.3-0.2,0.3-0.4L526.4,106.3z M438.1,104.1c0-0.2-0.2-0.3-0.4-0.3
				c-0.2,0-0.3,0.2-0.3,0.4l0,0.7c0,0.2,0.2,0.3,0.4,0.3c0.2,0,0.3-0.2,0.3-0.4L438.1,104.1z M526.2,103.6c0-0.2-0.1-0.3-0.4-0.3
				c-0.2,0-0.3,0.2-0.3,0.4l0,0.7c0,0.2,0.2,0.3,0.3,0.3c0,0,0,0,0,0c0.2,0,0.3-0.2,0.3-0.4L526.2,103.6z M438.1,101.3
				c0-0.2-0.2-0.3-0.3-0.3c0,0,0,0,0,0c-0.2,0-0.3,0.2-0.3,0.4l0,0.7c0,0.2,0.2,0.3,0.3,0.3c0,0,0,0,0,0c0.2,0,0.3-0.2,0.3-0.4
				L438.1,101.3z M526.1,100.8c0-0.2-0.2-0.3-0.4-0.3c0,0,0,0,0,0c-0.2,0-0.3,0.2-0.3,0.4l0,0.7c0,0.2,0.2,0.3,0.4,0.3c0,0,0,0,0,0
				c0.2,0,0.3-0.2,0.3-0.4L526.1,100.8z M438.1,98.6c0-0.2-0.2-0.3-0.3-0.3c0,0,0,0,0,0c-0.2,0-0.3,0.2-0.3,0.4l0,0.7
				c0,0.2,0.2,0.3,0.3,0.3c0.2,0,0.3-0.2,0.3-0.4L438.1,98.6z M525.7,97.7c-0.2,0-0.3,0.2-0.3,0.3l0,0.7c0,0.2,0.2,0.3,0.3,0.3
				c0.2,0,0.4-0.2,0.4-0.4v-0.7C526.1,97.9,525.9,97.7,525.7,97.7z M438,95.9c0-0.2-0.2-0.3-0.3-0.3h0c-0.2,0-0.3,0.2-0.3,0.3l0,0.7
				c0,0.2,0.2,0.3,0.3,0.3c0,0,0,0,0,0c0.2,0,0.3-0.2,0.3-0.4L438,95.9z M525.8,95c-0.2,0-0.4,0.1-0.4,0.3c0,0.2,0,0.5,0,0.7
				c0,0.2,0.1,0.4,0.3,0.4h0c0.2,0,0.3-0.1,0.4-0.3c0-0.2,0-0.5,0-0.7C526.2,95.2,526,95,525.8,95z M437.7,92.8
				c-0.2,0-0.3,0.2-0.3,0.4l0,0.7c0,0.2,0.2,0.3,0.3,0.3c0,0,0,0,0,0c0.2,0,0.3-0.1,0.3-0.3v-0.7C438,92.9,437.9,92.8,437.7,92.8z
				 M526.1,92.3c-0.2,0-0.4,0.1-0.4,0.3c0,0.2-0.1,0.5-0.1,0.7c0,0.2,0.1,0.4,0.3,0.4h0c0.2,0,0.3-0.1,0.3-0.3
				c0-0.2,0.1-0.5,0.1-0.7C526.4,92.5,526.3,92.3,526.1,92.3z M437.8,90c-0.2,0-0.3,0.1-0.4,0.3l0,0.7c0,0.2,0.1,0.3,0.3,0.4
				c0,0,0,0,0,0c0.2,0,0.3-0.1,0.3-0.3l0-0.7C438.1,90.2,437.9,90,437.8,90z M526.5,89.5c-0.2,0-0.4,0.1-0.4,0.3
				c0,0.2-0.1,0.5-0.1,0.7c0,0.2,0.1,0.4,0.3,0.4c0,0,0,0,0,0c0.2,0,0.3-0.1,0.3-0.3c0-0.2,0.1-0.5,0.1-0.7
				C526.8,89.7,526.6,89.6,526.5,89.5z M437.9,87.3c-0.2,0-0.4,0.1-0.4,0.3l-0.1,0.7c0,0.2,0.1,0.4,0.3,0.4h0c0.2,0,0.3-0.1,0.3-0.3
				l0-0.7C438.3,87.5,438.1,87.3,437.9,87.3z M526.7,86.8c-0.2,0-0.4,0.1-0.4,0.3c0,0.2,0,0.5,0,0.7c0,0.2,0.1,0.4,0.3,0.4h0
				c0.2,0,0.3-0.1,0.3-0.3c0-0.2,0-0.5,0-0.7C527,87,526.9,86.8,526.7,86.8z M438.3,84.6c-0.2,0-0.4,0.1-0.4,0.3
				c0,0.2-0.1,0.5-0.1,0.7c0,0.2,0.1,0.4,0.3,0.4h0c0.2,0,0.3-0.1,0.3-0.3c0-0.2,0.1-0.4,0.1-0.7C438.6,84.8,438.5,84.6,438.3,84.6z
				 M526.9,84.4c0-0.2-0.2-0.3-0.4-0.3c-0.2,0-0.3,0.2-0.3,0.4c0,0.2,0,0.5,0,0.7c0,0.2,0.2,0.3,0.3,0.3c0,0,0,0,0,0
				c0.2,0,0.3-0.2,0.3-0.4C527,84.8,527,84.6,526.9,84.4z M439.6,82.2c-0.1-0.1-0.4-0.1-0.5,0c-0.2,0.2-0.3,0.4-0.4,0.6
				c-0.1,0.2,0,0.4,0.1,0.5c0.1,0,0.1,0.1,0.2,0.1c0.1,0,0.2-0.1,0.3-0.2c0.1-0.2,0.2-0.4,0.4-0.5C439.7,82.5,439.7,82.3,439.6,82.2
				z M526.6,82.3c-0.1-0.2-0.1-0.5-0.2-0.7c-0.1-0.2-0.3-0.3-0.4-0.2c-0.2,0.1-0.3,0.2-0.2,0.4c0.1,0.2,0.1,0.4,0.2,0.6
				c0,0.1,0.2,0.3,0.3,0.3c0,0,0.1,0,0.1,0C526.5,82.7,526.6,82.5,526.6,82.3z M441.9,80.8c-0.1-0.2-0.3-0.3-0.4-0.2
				c-0.2,0.1-0.5,0.2-0.7,0.3c-0.2,0.1-0.2,0.3-0.2,0.5c0.1,0.1,0.2,0.2,0.3,0.2c0,0,0.1,0,0.1,0c0.2-0.1,0.4-0.2,0.6-0.2
				C441.9,81.2,442,81,441.9,80.8z M444.2,79.9c-0.2,0-0.5,0.1-0.7,0.1c-0.2,0-0.3,0.2-0.3,0.4c0,0.2,0.2,0.3,0.3,0.3c0,0,0,0,0.1,0
				c0.2,0,0.4-0.1,0.7-0.1c0.2,0,0.3-0.2,0.3-0.4C444.6,80,444.4,79.9,444.2,79.9z M446.9,79.5c-0.2,0-0.5,0.1-0.7,0.1
				c-0.2,0-0.3,0.2-0.3,0.4c0,0.2,0.2,0.3,0.3,0.3h0.1c0.2,0,0.4-0.1,0.7-0.1c0.2,0,0.3-0.2,0.3-0.4
				C447.3,79.6,447.1,79.4,446.9,79.5z M525.5,79.7c-0.1-0.2-0.3-0.4-0.4-0.6c-0.1-0.1-0.3-0.2-0.5-0.1c-0.1,0.1-0.2,0.3-0.1,0.5
				c0.1,0.2,0.3,0.4,0.4,0.5c0.1,0.1,0.2,0.2,0.3,0.2c0.1,0,0.1,0,0.2-0.1C525.5,80,525.6,79.8,525.5,79.7z M449.7,79.2l-0.7,0.1
				c-0.2,0-0.3,0.2-0.3,0.4c0,0.2,0.2,0.3,0.3,0.3h0l0.7-0.1c0.2,0,0.3-0.2,0.3-0.4C450,79.3,449.9,79.1,449.7,79.2z M452.4,78.9
				l-0.7,0.1c-0.2,0-0.3,0.2-0.3,0.4s0.2,0.3,0.3,0.3h0l0.7-0.1c0.2,0,0.3-0.2,0.3-0.4C452.8,79,452.6,78.9,452.4,78.9z M455.1,78.6
				l-0.7,0.1c-0.2,0-0.3,0.2-0.3,0.4c0,0.2,0.2,0.3,0.3,0.3h0l0.7-0.1c0.2,0,0.3-0.2,0.3-0.4S455.3,78.5,455.1,78.6z M457.9,78.3
				l-0.7,0.1c-0.2,0-0.3,0.2-0.3,0.4c0,0.2,0.2,0.3,0.3,0.3h0l0.7-0.1c0.2,0,0.3-0.2,0.3-0.4C458.2,78.4,458,78.3,457.9,78.3z
				 M460.5,78l-0.6,0.1c-0.2,0-0.3,0.2-0.3,0.4c0,0.2,0.2,0.3,0.3,0.3h0l0.7-0.1c0.2,0,0.3-0.2,0.3-0.4
				C460.9,78.1,460.7,78,460.5,78z M463.3,77.7l-0.7,0.1c-0.2,0-0.3,0.2-0.3,0.4c0,0.2,0.2,0.3,0.3,0.3c0,0,0,0,0,0l0.7-0.1
				c0.2,0,0.3-0.2,0.3-0.4C463.7,77.8,463.5,77.7,463.3,77.7z M523.5,77.6c-0.2-0.1-0.4-0.3-0.6-0.4c-0.2-0.1-0.4,0-0.5,0.1
				c-0.1,0.2-0.1,0.4,0.1,0.5c0.2,0.1,0.4,0.2,0.5,0.4c0.1,0,0.1,0.1,0.2,0.1c0.1,0,0.2,0,0.3-0.1C523.7,77.9,523.7,77.7,523.5,77.6
				z M466.1,77.4l-0.7,0.1c-0.2,0-0.3,0.2-0.3,0.4c0,0.2,0.2,0.3,0.3,0.3h0l0.7-0.1c0.2,0,0.3-0.2,0.3-0.4
				C466.4,77.6,466.3,77.4,466.1,77.4z M468.8,77.2l-0.7,0.1c-0.2,0-0.3,0.2-0.3,0.4c0,0.2,0.2,0.3,0.3,0.3c0,0,0,0,0,0l0.7-0.1
				c0.2,0,0.3-0.2,0.3-0.4C469.2,77.3,469,77.2,468.8,77.2z M471.6,77l-0.7,0.1c-0.2,0-0.3,0.2-0.3,0.4c0,0.2,0.2,0.3,0.3,0.3h0
				l0.7-0.1c0.2,0,0.3-0.2,0.3-0.4C471.9,77.1,471.7,76.9,471.6,77z M474.3,76.7l-0.7,0c-0.2,0-0.3,0.2-0.3,0.4
				c0,0.2,0.2,0.3,0.3,0.3h0l0.7-0.1c0.2,0,0.3-0.2,0.3-0.4C474.7,76.9,474.5,76.7,474.3,76.7z M477.1,76.6l-0.7,0
				c-0.2,0-0.3,0.2-0.3,0.4c0,0.2,0.2,0.3,0.3,0.3c0,0,0,0,0,0l0.7,0c0.2,0,0.3-0.2,0.3-0.4C477.4,76.7,477.2,76.5,477.1,76.6z
				 M479.8,76.4l-0.7,0c-0.2,0-0.3,0.2-0.3,0.4c0,0.2,0.2,0.3,0.3,0.3h0l0.7,0c0.2,0,0.3-0.2,0.3-0.4
				C480.2,76.5,480,76.4,479.8,76.4z M482.5,76.2l-0.7,0c-0.2,0-0.3,0.2-0.3,0.4c0,0.2,0.2,0.3,0.3,0.3c0,0,0,0,0,0l0.7,0
				c0.2,0,0.3-0.2,0.3-0.4C482.9,76.4,482.8,76.2,482.5,76.2z M521,76.2c-0.2-0.1-0.4-0.1-0.7-0.2c-0.2-0.1-0.4,0-0.4,0.2
				c-0.1,0.2,0,0.4,0.2,0.4c0.2,0.1,0.4,0.1,0.6,0.2c0,0,0.1,0,0.1,0c0.1,0,0.3-0.1,0.3-0.2C521.3,76.5,521.2,76.3,521,76.2z
				 M485.3,76.1l-0.7,0l0,0.4l0,0.3l0.7,0c0.2,0,0.3-0.2,0.3-0.4C485.7,76.2,485.5,76.1,485.3,76.1z M488,76l-0.7,0l0,0.4l0,0.3
				l0.7,0c0.2,0,0.3-0.2,0.3-0.4C488.4,76.1,488.2,76,488,76z M490.8,75.9l-0.7,0l0,0.3l0,0.3l0.7,0c0.2,0,0.3-0.2,0.3-0.4
				C491.1,76.1,491,75.9,490.8,75.9z M493.5,75.8l-0.7,0l0,0.4l0,0.3l0.7,0c0.2,0,0.3-0.2,0.3-0.4C493.9,76,493.7,75.8,493.5,75.8z
				 M496.3,75.8L496.3,75.8l-0.7,0c-0.2,0-0.3,0.2-0.3,0.4c0,0.2,0.2,0.3,0.4,0.3l0.7,0c0.2,0,0.3-0.2,0.3-0.4
				C496.6,75.9,496.5,75.8,496.3,75.8z M499,75.7l-0.7,0v0.4h0v0.3l0.7,0c0.2,0,0.3-0.2,0.3-0.4C499.4,75.9,499.2,75.7,499,75.7z
				 M501.8,75.7C501.8,75.7,501.8,75.7,501.8,75.7l-0.7,0c-0.2,0-0.3,0.2-0.3,0.4c0,0.2,0.2,0.3,0.3,0.3h0l0.7,0
				c0.2,0,0.3-0.2,0.3-0.4C502.1,75.8,502,75.7,501.8,75.7z M504.5,75.7l-0.7,0c-0.2,0-0.3,0.2-0.3,0.3c0,0.2,0.2,0.3,0.4,0.3h0.7
				c0.2,0,0.3-0.2,0.3-0.4C504.9,75.8,504.7,75.7,504.5,75.7z M507.3,75.6l-0.7,0c-0.2,0-0.3,0.2-0.3,0.3c0,0.2,0.2,0.3,0.3,0.3h0.7
				c0.2,0,0.3-0.2,0.3-0.4C507.6,75.8,507.5,75.6,507.3,75.6z M510,75.5l-0.7,0c-0.2,0-0.3,0.2-0.3,0.4c0,0.2,0.2,0.3,0.3,0.3
				c0,0,0,0,0,0l0.7,0c0.2,0,0.3-0.2,0.3-0.4C510.4,75.7,510.2,75.5,510,75.5z M518.3,75.6c-0.2,0-0.5-0.1-0.7-0.1
				c-0.2,0-0.4,0.1-0.4,0.3c0,0.2,0.1,0.4,0.3,0.4c0.2,0,0.4,0.1,0.7,0.1h0.1c0.2,0,0.3-0.1,0.3-0.3
				C518.6,75.8,518.5,75.6,518.3,75.6z M512.8,75.4l-0.7,0c-0.2,0-0.3,0.2-0.3,0.4c0,0.2,0.2,0.3,0.3,0.3c0,0,0,0,0,0l0.7,0
				c0.2,0,0.3-0.2,0.3-0.4C513.1,75.5,512.9,75.4,512.8,75.4z M515.5,75.3h-0.7c-0.2,0-0.3,0.1-0.3,0.3c0,0.2,0.2,0.3,0.3,0.3
				c0.2,0,0.5,0,0.7,0c0,0,0,0,0,0c0.2,0,0.3-0.1,0.3-0.3C515.9,75.5,515.7,75.4,515.5,75.3z"/>
			<path class="st3" d="M524.7,136c-0.2-7.1,0-14.2-0.3-21.3c-0.3-6.7-1.1-13.4-0.7-20.1c0.3-4,2.2-11.2-1-14.5
				c-3.4-3.5-10.8-2.1-15.1-2c-14.3,0.1-28.5,0.5-42.8,1.9c-3.8,0.4-7.5,0.7-11.3,1.2c-3.5,0.4-7.5,0.6-10.9,1.6
				c-1.8,0.5-2.4,1.5-2.6,3.3c-0.5,4-0.4,8.3-0.3,12.3c0.1,8.2,0.3,16.5,0.3,24.7c0,4.3-0.1,8.7,0.7,13c-0.1,4.6-0.3,9.2,0.1,13.7
				c0.3,4.1,2.5,6.6,6.7,6.9c6.9,0.5,14.1,0,21,0.4c14.4,0.7,28.9,1.3,43.3,1.7c2.7,0.1,6.9,1,9.4-0.2c1.6-0.7,2.5-2.7,3.1-4.2
				C526.5,148.8,524.9,141.7,524.7,136z"/>
		</g>
		<path class="st3" d="M541.2,114.7c-0.1-0.7-1.1-0.5-1.2,0.2c0,1.4-0.1,2.7-0.2,4.1c0,0.8,0.2,1.6-0.8,2c-0.8,0.3-1.6,0.1-2-0.6
			c0-0.6-0.1-1.1-0.2-1.7c-0.1-0.5-0.8-0.7-1-0.1c-0.2,0.8-0.4,1.8,0.1,2.5c0,0,0,0.1,0,0.1c-0.9-0.1-1.8-0.2-2.7-0.2c0,0,0,0,0,0
			c0-0.1,0-0.2,0-0.4c0-1.7-0.1-3.5-0.1-5.2c0-0.2-0.1-0.3-0.3-0.4c0,0,0,0,0,0c0-0.4-0.6-0.5-0.7-0.1c-0.4,1.4-0.6,2.8-0.5,4.2
			c-0.1,0.7-0.2,1.6,0.1,2.2c0.1,0.2,0.2,0.3,0.3,0.5c0,0.1,0,0.1,0,0.2c0,0.3,0.3,0.4,0.6,0.4c0.6,0.4,1.5,0.4,2.2,0.4
			c0.1,0.1,0.2,0.1,0.3,0.1c0.2,0,0.5,0,0.8,0c0,0.2,0,0.5,0,0.7c0,0.2,0,0.4,0.1,0.6c0,0.1,0,0.1,0,0.2c0.1,0.5,0.9,0.5,1,0
			c0,0,0,0,0,0c0.1-0.1,0.2-0.3,0.2-0.4c0,0,0-0.1,0-0.1c0-0.1,0-0.1,0-0.2c0.1-0.3,0.1-0.5,0.2-0.8c1.5,0,3.2-0.2,3.9-1.3
			C542.6,119.8,541.5,116.7,541.2,114.7z"/>
		<g>
			<path class="st4" d="M550,72.5c-1.7-0.2-3.5,0.2-5.3,0.1c-1-0.1-2-0.1-3-0.2c0-0.4-0.1-0.7-0.4-0.9c-0.5-0.4-1.3-0.3-1.9-0.3
				c-1.1-0.1-2.3-0.1-3.4-0.1c-0.8,0-1.9-0.1-2.2,0.7c-2.5-0.2-5.1-0.3-7.7-0.4c-5.8-0.2-11.7-0.4-17.5-0.4c0.1-0.1,0.2-0.2,0.2-0.4
				c0-0.6-0.2-0.9-0.6-1.2c-0.1-0.2-0.2-0.3-0.4-0.3h-0.3c-0.5-0.1-1-0.2-1.5-0.2c0.8-3.6-0.2-8.8-3.8-10.6
				c-2.3-1.2-5.6-0.6-8.1-0.6c-1.8,0-3.7,0-5.5,0c-1.2,0-2.4,0-3.5,0c-0.7,0-1.3,0-2,0c-5.7,0-13-1.1-18.5,1.1c-3.4,1.4-4.6,6-4,9.5
				c-0.7-0.1-1.4-0.1-1.9,0.1c-1.4,0.5-1.4,2.1-0.8,3.2c-4.7,0.1-9.4,0.2-14.1,0.2c-3.8,0-7.6,0-11.4-0.1c0-0.1-0.1-0.3-0.2-0.4
				c-0.4-0.6-1.3-0.5-1.9-0.6c-1.8-0.1-3.6,0-5.3,0.6c-0.1,0-0.2,0.2-0.2,0.3v0.1c-2.8,0.1-5.6,0.2-8.4,0.5
				c-5.1,0.6-6.8,4.1-6.8,8.2c-1,8.5-0.5,16.8-0.3,25.3c0.1,4.4,0.2,8.8,0.3,13.2c0,10.4,0.6,20.9,1.3,31.2
				c0.3,4.2,0.7,8.8,3.7,12.1c2.8,3.1,7,4.2,11,4.7c6.1,0.7,12.4,0.6,18.6,0.6c6.8,0,13.6,0.3,20.4,0.5c13.2,0.5,26.5,1.3,39.7,1.2
				c5.8,0.1,11.7,0.2,17.5,0.3c7.2,0.1,15.1,1,22.3-0.3c2.4-0.4,4.7-1.3,6.2-3.2c2.1-2.5,2-6,2.5-9c1.3-7.5,1.2-15,1.4-22.6
				c0.1-8.3,0.5-16.6,0.8-24.9c0.3-8.5,0.5-17.1,0.7-25.6C555.7,79.5,555.9,73.1,550,72.5z M534.5,72.4c0.1-0.3,0.3-0.4,1-0.4
				c1.1,0,2.3,0,3.4,0.1c0.5,0,1.5,0,1.8,0.6c0,0.1,0.1,0.2,0.1,0.3c-1,15.9-0.9,31.8-1.5,47.7c-0.4,0.3-1,0.2-1.6,0.2c0,0,0,0,0,0
				c-0.1,0-0.1,0-0.2,0v-0.2c0-0.7,0-1.5-0.2-2.2c-0.1-0.4-0.1-0.9-0.6-1c-0.3,0-0.4,0.1-0.5,0.3c0,0,0,0,0,0
				c-0.1-0.1-0.3-0.1-0.4,0.1c-0.4,0.8-0.6,1.8-0.7,2.8c-0.1,0-0.2,0-0.2,0c-0.4,0-0.9,0-1.3,0c0-0.2,0-0.4,0-0.6
				C533.8,104.3,534.9,88.3,534.5,72.4z M532.2,115.3l0.7-0.6l0.1-0.1v0.4c0,1.7,0,3.4-0.1,5.2c0,0.2,0,0.4,0,0.6c0,0,0.1,0,0.1,0
				c0,0.1,0,0.1,0,0.2c0,0.2,0.1,0.3,0.2,0.3c0.3,0,0.7,0.1,1,0.1c0.3,0,0.5,0,0.8,0.1c0,0.4,0,0.8,0,1.2c-1.4-0.1-2.9-0.2-3.4-1.7
				c-0.1-0.2-0.1-0.4-0.1-0.5c0,0,0,0,0-0.1c-0.1-0.7,0-1.5,0.1-2.3c0-0.6,0-1.2,0.2-1.8c0-0.1,0.1-0.3,0.1-0.4v0
				C532.1,115.7,532.1,115.5,532.2,115.3z M536,120.8C536,120.8,536,120.8,536,120.8c0.1-0.8,0.4-2.1,0.2-2.4
				c0.1,0.1,0.3,0.1,0.2-0.1c0,0,0,0,0-0.1c0,0,0.1,0,0.1-0.1c0.2-0.2,0.3,1.3,0.4,1.5c0,0.6,0,1.1,0.1,1.7c0,0.6,0.3,3.3-0.8,3.1
				c0,0-0.1,0-0.1,0c-0.2-0.1-0.3-0.8-0.2-1.6c0-0.7,0.1-1.3,0.1-1.5c0,0,0-0.1,0-0.2C535.9,121.1,535.9,121,536,120.8z
				 M533.5,123.5c0.6,0.1,1.2,0,1.6-0.2c0,0.3,0.1,0.6,0.1,0.9c0.2,0.9,0.7,2.2,1.6,1c0.4-0.6,0.5-1.4,0.5-2.2
				c0.6,0.2,1.2,0.3,1.7,0.2c-0.2,4.8-0.4,9.5-0.5,14.3c-0.1,0.6-0.2,1.2-0.4,1.8c-0.3,0.9-1.7,1.6-2.6,1.4
				c-1.7-0.4-1.9-2.8-2.3-4.4C533.4,132.1,533.5,127.8,533.5,123.5z M541.2,120.1c-0.2,1.2-0.8,2.3-2.2,2.4
				c-0.6,0.1-1.1,0.1-1.6,0.2c0-0.1,0-0.2,0-0.3v-1c0.8,0.1,2.1,0.2,2.5-0.5h0v-0.1c0-0.1,0.1-0.2,0.1-0.3c0-0.1,0-0.2-0.1-0.2
				c0.1-1.9,0.1-3.7,0.2-5.6C541.6,116.1,541.6,118.2,541.2,120.1z M506.9,70.2c0.3,0.2,0.5,0.4,0.5,0.7c-2.3,0-4.5,0-6.8,0
				c-1.8,0-3.6,0-5.4,0c0.1-0.1,0.1-0.2,0.2-0.3c1.4-0.8,3.6-0.6,5.2-0.6C501.3,70.1,505.2,70,506.9,70.2z M494.6,70.9L494.6,70.9
				c-7.3,0.1-14.6,0.2-21.8,0.4v-0.1c0-0.5,0-0.9,0.1-1.4c0.1-0.7-0.4-1.3-1.1-1.1c-0.8,0.2-1.6,0.3-2.5,0.3c0.3-1.4,0.4-3,1.8-3.9
				c0.9-0.5,2.5-0.8,3.5-0.9c2.7-0.5,5.4-0.6,8.1-0.8c2.3-0.1,4.7-0.2,7.1-0.1c1.8,0.1,5.3,0,7.3,0.9c0.4,0.4,0.7,0.9,1,1.6
				c0.3,0.7,0.2,1.9,0.1,2.9C495.8,68.5,492.8,68.5,494.6,70.9z M462.8,63.9c1-2.9,3.5-4.1,6.3-4.6c1.7-0.3,3.4-0.5,5.1-0.6
				c3-0.1,5.9,0,8.9,0c3.7,0,7.4,0.1,11.1,0.1c0.4,0,0.8,0.1,1.2,0.1c2.4,0.2,5.1,0.2,7.1,1.5c0.4,0.3,0.7,0.7,1,1.2
				c1,1.7,1.4,3.7,1.7,5.6c0,0.5,0,1,0,1.5c-1.7,0-3.6,0.2-5.1,0.2c-0.2,0-0.5,0-0.9-0.1c0.3-2.4,0.5-5.4-1.8-6.3
				c-1.8-0.7-4.8-0.2-6.7-0.2c-0.2,0-0.4,0-0.6,0c-3.1-0.3-6.3-0.6-9.4-0.4c-2.9,0.1-7.4,0.2-10.2,1.8c-1.5,0.7-2.2,1.7-2.6,2.9
				c-0.1-0.1-0.2-0.2-0.3-0.3c-0.3-0.3-0.5-0.6-0.8-0.8c0,0-0.1,0-0.1,0.1c0.2,0.3,0.4,0.6,0.7,0.9c0.1,0.2,0.3,0.4,0.5,0.5
				c-0.1,0.2-0.1,0.5-0.1,0.8l0,0c-0.5-0.5-1-1-1.5-1.4c-0.1-0.1-0.2,0-0.1,0.1c0.4,0.4,0.7,0.7,1.1,1.1c0.2,0.2,0.4,0.4,0.5,0.6
				c0,0.2,0,0.3,0,0.5c0,0.2,0,0.3,0,0.5h0c-0.6-0.7-1.3-1.4-2-2c-0.1-0.1-0.2,0-0.1,0.1c0.6,0.6,1.2,1.2,1.7,1.8
				c-0.2,0-0.5,0-0.7,0c-0.1-0.1-0.2-0.2-0.3-0.3c-0.3-0.3-0.7-0.5-1.1-0.7c-0.1,0-0.2,0.1-0.1,0.1c0.3,0.3,0.6,0.5,0.9,0.8
				c0,0,0,0,0,0c-0.5,0-1.1-0.1-1.6-0.1c-0.6,0-1.5-0.2-2.3-0.4C462.2,66.9,462.3,65.4,462.8,63.9z M459.3,70.6
				c2.1,0.2,4.2-0.5,6.4-0.6c1.2,0,2.4,0,3.6,0.1c1.2,0.2,1.5,0.1,1.6,1.1c-3.9,0.1-7.8,0.1-11.7,0.2
				C459.3,71.2,459.3,71.1,459.3,70.6z M427.7,122.9c-0.1,0-0.2,0-0.3-0.1c-0.5-0.1-1-0.1-1.5-0.2c-1.5-0.4-1.9-1.6-2-2.9
				c-0.1-1.6-0.5-4.5,1.4-5.2c0,0,0,0,0,0v0c0,1.5,0.1,2.9,0.1,4.4c0,0.4,0,0.9,0,1.3h0.1c0,0.1,0.1,0.2,0.3,0.3
				c0.5,0.1,1,0.3,1.4,0.3c0.1,0,0.3,0,0.4-0.1c0,0.2,0,0.5,0,0.6c0,0.3,0,0.9,0,1.5C427.6,122.8,427.7,122.9,427.7,122.9z
				 M428.1,120.4c0-0.6-0.1-3.2,0.5-3.9c0.1,0.1,0.2,0.1,0.3,0.1c0.3-0.1,0.4,3.2,0.4,3.5c0,0.6,0,1.3-0.1,1.9
				c-0.1,0.6,0.3,2.5-0.6,1.4c0-0.1-0.1-0.1-0.1-0.2v0c-0.1-0.2-0.2-0.5-0.2-0.7C428,121.8,428.1,121,428.1,120.4z M429.7,122.8
				c0.1-0.7,0-1.5,0-2.1c0.7,0.3,2,0.1,2.4-0.5c0.1,0,0.1,0,0.2,0c0-0.4,0-0.9,0-1.3c0-1.4,0-2.7,0-4.1c1.2,0.9,1,3.3,1,4.6
				c-0.1,2.3-1.5,3.2-3.5,3.4C429.8,122.8,429.8,122.8,429.7,122.8C429.8,122.8,429.8,122.8,429.7,122.8
				C429.7,122.8,429.7,122.8,429.7,122.8z M425.5,72.5c0.1-0.6,0.4-0.8,1-0.6c1.1-0.4,3.5-0.3,4.3,0.4c1,1,0.7,3,0.8,4.3
				c0,0.2,0,0.4,0,0.6c-0.3,13.9,0.1,27.8,0,41.7c0,0.3,0,0.6,0,0.8c-0.2,0.1-0.4,0.3-0.6,0.4c-0.4,0.1-0.8,0-1.2,0.1c0,0,0,0,0,0
				v-0.2c0-0.2,0-0.5,0-0.8v0c0.1-1.3,0.1-3.4-1.1-3.3c0,0-0.1,0-0.1,0c-0.8,0.2-1,2.1-1,3.6c0,0.2,0,0.4,0,0.5
				c-0.1-0.1-0.4-0.1-0.5-0.2c-0.4-0.1-0.7-0.2-1.1-0.3c0,0,0,0,0,0v-0.8c-0.2-15.2,0.3-30.7-0.8-45.8
				C425.2,72.9,425.3,72.7,425.5,72.5z M425.5,165c-1.6-0.2-3.2-0.6-4.7-1.1c0-0.2,0.1-0.5,0.3-0.7c0-0.1,0-0.1-0.1-0.1
				c-0.3,0.2-0.4,0.4-0.4,0.7c-0.2-0.1-0.4-0.1-0.5-0.2c0.2-0.3,0.3-0.7,0.4-1c0-0.1-0.1-0.2-0.2-0.1c-0.2,0.3-0.3,0.7-0.5,1
				c-1.8-0.7-3.5-1.6-4.8-2.9c-0.2-0.2-0.4-0.5-0.5-0.8c0.3,0.3,0.6,0.6,0.9,0.8c2.3,1.5,5.6,1.2,8.1,1.7c0.1,0,0.2-0.2,0.1-0.2
				c-2-0.5-4.1-0.2-6-0.7c-1.5-0.4-2.6-1.2-3.5-2.2c-2.1-3.8-2.1-8.8-2.5-13.1c-0.7-9.2-1.1-18.5-1.5-27.7c-0.1-4.2-0.1-8.4,0-12.7
				c0.1-7.3,0.8-14.5,0.8-21.8c0,0,0.1-0.1,0.1-0.2c0.3-2.1,0.7-5.3,2.1-7.1c2.1-2.8,8.1-2.1,11.7-2.1c-0.3,13.1,0.4,26.3,0.6,39.4
				c-2.4,0.2-2.1,4.4-2.1,6c0,1.6,0.9,2.9,2.2,3.3C425.6,137.2,425.6,151.1,425.5,165z M430.8,165.6c-1.5-0.1-3-0.2-4.5-0.4
				c0-7.7-0.1-15.4-0.1-23.1c0.4,1,1.2,1.7,2.5,1.6c1.1-0.1,2-0.8,2.6-1.7C431,149.8,430.9,157.7,430.8,165.6z M429.4,142.6
				c-2,1.2-3-0.8-3.3-2.6c0-5.5-0.1-11-0.1-16.5c0.5,0.1,1.1,0,1.7-0.2c0.1,0.9,0.4,1.7,1.1,1.6c0.3-0.1,0.5-0.3,0.7-0.7
				c0,0,0,0,0,0c0.1-0.2,0.1-0.5,0.2-0.8c0,0,0,0,0,0c0.6,0.2,1.3,0.1,1.8,0c-0.1,5.5-0.2,11-0.3,16.6
				C430.9,140.9,430.3,142,429.4,142.6z M532.4,168.3c-2.1,0.1-4.1,0.1-6.2,0.2c0-0.5-0.1-1.1-0.2-1.5c0-0.1-0.2-0.1-0.2,0
				c0.1,0.5,0.1,1,0.1,1.5c-0.3,0-0.7,0-1,0c0-0.6,0-1.3,0-1.9c0-0.1-0.2-0.1-0.2,0c0,0.6-0.1,1.3,0,1.9c-0.3,0-0.6,0-0.9,0
				c-9.3,0.1-18.7,0.1-28-0.1c0.1-0.3,0.1-0.5,0.1-0.8c0.1-0.4,0.1-0.9,0.2-1.3c0-0.1-0.1-0.1-0.1,0c-0.1,0.4-0.2,0.8-0.3,1.3
				c-0.1,0.3-0.1,0.6-0.2,0.9c-0.3,0-0.6,0-1,0c0.1-0.4,0.1-0.8,0.2-1.2c0.1-0.6,0.3-1.3,0.4-1.9c0-0.1-0.1-0.1-0.1,0
				c-0.2,0.6-0.4,1.3-0.5,2c-0.1,0.4-0.2,0.8-0.2,1.2c-10.2-0.2-20.4-0.6-30.5-1c0.4-0.8,0.8-1.6,1.1-2.4c0-0.1-0.1-0.1-0.1,0
				c-0.4,0.8-0.8,1.6-1.1,2.5c-0.3,0-0.6,0-1,0c0.4-1.1,0.9-2.1,1.4-3.1c0-0.1-0.1-0.1-0.1-0.1c-0.7,0.9-1.1,2-1.4,3.1
				c-9.4-0.4-18.8-0.9-28.2-1.5c-0.9-0.1-1.8-0.1-2.8-0.2c0.6-14.2,0.7-28.5,0.8-42.7c0.7-0.4,1.3-1.1,1.5-2.1c0.2-1.3,0-3-0.2-4.3
				c-0.1-1-0.2-1.8-1-2.5c-0.1-0.1-0.2-0.1-0.3-0.1c0.2-13.1,0.5-26.2-0.2-39.3c0-0.1,0-0.3,0.1-0.5c5.2-0.2,10.3-0.5,15.5-0.7
				c14.6-0.6,29.3-1.3,43.9-1.6c14-0.4,28-0.3,41.9,0.7c0,0.8,0.1,1.7,0.2,2.5c0,0.1,0,0.3,0,0.4c-0.8,12.7-0.8,25.5-0.9,38.2
				c-2.1,0.3-1.8,5.3-1.9,6.7c-0.1,1,0,2.1,0.9,2.6c0.2,0.2,0.5,0.3,0.9,0.4C532.6,138.3,532.4,153.3,532.4,168.3z M535.4,168.2
				c-0.8,0-1.6,0-2.3,0.1c0.1-9.7,0.2-19.4,0.3-29.2c0.2,1.4,0.8,2.6,2.5,2.7c1,0.1,2-0.6,2.6-1.4c0-0.1,0.1-0.1,0.1-0.2
				c-0.4,9.3-0.8,18.6-1.2,27.9C536.6,168.1,536,168.1,535.4,168.2z M553.3,147.5c-0.2,4.7-0.5,10.9-3.1,15.2
				c-1.2,1.2-3.2,1.4-4.8,1.7c-1.9,0.3-3.9,0.5-5.8,0.5c-0.1,0-0.1,0.1,0,0.1c2.5,0.1,5.1,0,7.6-0.5c0.9-0.2,1.7-0.4,2.5-0.8
				c-0.8,1.1-1.8,2.1-3.1,2.8c-0.3-0.2-0.6-0.3-0.9-0.4c-0.1,0-0.1,0.1,0,0.1c0.3,0.1,0.5,0.2,0.7,0.4c-0.2,0.1-0.5,0.2-0.8,0.4
				c-0.1-0.1-0.2-0.1-0.3-0.2c-0.4-0.2-0.8-0.4-1.1-0.6c-0.1-0.1-0.1,0.1-0.1,0.1c0.4,0.3,0.8,0.6,1.2,0.8c-0.2,0.1-0.5,0.2-0.8,0.3
				c-0.3,0.1-0.6,0.2-0.8,0.2c-0.1-0.2-0.2-0.4-0.3-0.6c-0.2-0.4-0.4-0.8-0.5-1.1c0-0.1-0.2,0-0.2,0.1c0.1,0.4,0.3,0.8,0.5,1.2
				c0.1,0.2,0.1,0.4,0.2,0.5c-0.3,0.1-0.5,0.1-0.8,0.1c-0.3-0.6-0.6-1.1-0.9-1.7c0-0.1-0.2,0-0.1,0.1c0.2,0.5,0.4,1.1,0.7,1.7
				c-1.4,0.2-2.8,0.3-4.2,0.3c0.7-15,1.4-30,2-45c1-0.3,1.7-1.1,1.8-2.4c0-0.1,0-0.2,0-0.2v0c0.1-0.6,0.1-1.2,0.1-1.9v0
				c0-1-0.1-2-0.2-3c-0.2-1-0.4-1.5-1.3-1.9c0,0,0,0,0,0c0.6-13.3,1.2-26.6,1.1-39.8c0.1-0.2,0.1-0.5,0.2-0.8
				c1.9,0.2,3.7,0.4,5.5,0.9c2.1,0.5,4.7,1.1,5.6,3.3c0.6,1.4,0.5,3.2,0.5,4.7c0.1,7.4,0.2,14.8,0.3,22.2
				C553.6,118.6,554,133.1,553.3,147.5z"/>
			<path class="st4" d="M501.1,68.5c0.1,0,0.2-0.2,0.1-0.2c-0.3-0.2-0.7-0.3-1-0.5c-0.1-0.1-0.2,0.1-0.1,0.1
				C500.4,68.2,500.7,68.4,501.1,68.5z"/>
			<path class="st4" d="M501.1,67.5c0.1,0,0.2-0.2,0.1-0.2c-0.2-0.1-0.5-0.2-0.7-0.2c-0.1,0-0.2,0.1-0.1,0.2
				C500.6,67.3,500.9,67.4,501.1,67.5z"/>
			<path class="st4" d="M500.5,66.2c0.1,0,0.2,0,0.3,0c0.1,0,0.1-0.2,0-0.2c-0.1,0-0.2,0-0.3,0C500.4,65.9,500.4,66.2,500.5,66.2z"
				/>
			<path class="st4" d="M466.7,63.7c-0.1,0-0.1,0.2,0,0.2c0.3,0,0.5,0,0.8,0c0.2,0,0.3,0.1,0.5,0c0.1,0,0.1-0.1,0.1-0.2
				C467.8,63.5,467.1,63.6,466.7,63.7z"/>
			<path class="st4" d="M467.2,62.7c0.3,0.1,0.5,0.2,0.8,0.3c0.1,0,0.1-0.1,0.1-0.2c-0.2-0.2-0.5-0.2-0.8-0.3
				C467.1,62.4,467.1,62.7,467.2,62.7z"/>
			<path class="st4" d="M480.9,61.6c0.1,0.1,0.3,0.1,0.3-0.1c0-0.3-0.2-0.6-0.5-0.7c-0.2-0.1-0.3,0.1-0.2,0.3
				C480.7,61.2,480.7,61.4,480.9,61.6z"/>
			<path class="st4" d="M482.2,61.1c0.1,0.1,0.2-0.1,0.2-0.2c-0.1-0.2-0.2-0.3-0.4-0.5c-0.1-0.1-0.4,0-0.2,0.2
				C481.9,60.8,482,61,482.2,61.1z"/>
			<path class="st4" d="M494.5,61c0-0.1,0-0.1,0-0.2c0-0.2-0.2-0.2-0.2,0c0,0.1,0,0.1,0,0.2C494.3,61.1,494.5,61.1,494.5,61z"/>
			<path class="st4" d="M531.3,164.8c-32.6-0.8-65.3-2-97.9-2.3c0,0,0,0,0,0c32.6,1.2,65.3,1.7,97.9,2.6
				C531.5,165.2,531.5,164.8,531.3,164.8z"/>
			<path class="st4" d="M528,166.5c-0.1-0.1-0.2,0-0.2,0.1c0.2,0.3,0.4,0.6,0.7,0.7c0.1,0,0.2-0.1,0.1-0.2
				C528.4,167,528.1,166.8,528,166.5z"/>
			<path class="st4" d="M497.6,164.5c0.2,0.8,0.4,1.7,0.7,2.4c0,0.1,0.2,0,0.2,0c-0.1-0.8-0.5-1.6-0.8-2.4
				C497.7,164.4,497.6,164.4,497.6,164.5z"/>
			<path class="st4" d="M498.7,164.5c0.1,0.5,0.1,1,0.3,1.5c0,0.1,0.2,0.1,0.2,0c-0.1-0.5-0.2-1-0.4-1.5
				C498.8,164.4,498.7,164.4,498.7,164.5z"/>
			<path class="st4" d="M452.2,164.4c0-0.1-0.2-0.1-0.2,0c0,0.3,0.1,0.7,0.2,1c0.1,0.3,0.1,0.6,0.3,0.9c0,0,0.1,0,0.1,0
				c0-0.3-0.1-0.5-0.2-0.8C452.3,165.1,452.3,164.7,452.2,164.4z"/>
			<path class="st4" d="M453.5,164.7c0,0.4-0.1,0.9,0,1.3c0,0.1,0.2,0.1,0.2,0c0.1-0.4,0-0.9,0-1.3
				C453.7,164.6,453.5,164.6,453.5,164.7z"/>
			<path class="st4" d="M484.1,165.3c-0.1,0-0.1,0.1-0.1,0.1c0.2,0.3,0.5,0.5,0.8,0.7c0.1,0.1,0.2-0.1,0.1-0.2
				C484.7,165.8,484.4,165.6,484.1,165.3z"/>
			<path class="st4" d="M485.9,165.1c-0.1,0-0.1,0.2,0,0.2C486,165.3,486,165.1,485.9,165.1z"/>
			<path class="st4" d="M548.6,148.4c-0.2,0-0.2,0.3,0,0.3c0.3,0,0.5,0.1,0.7,0.3c0.2,0.2,0.2,0.4,0.3,0.5c0.1,0.1,0.2,0,0.2-0.1
				C550,148.8,549.2,148.4,548.6,148.4z"/>
			<path class="st4" d="M549.6,146.7c-0.2,0-0.3,0.3-0.1,0.3c0.3,0.1,0.6,0.2,0.9,0.1c0.1,0,0.1-0.1,0-0.2
				C550.2,146.8,549.9,146.8,549.6,146.7z"/>
			<path class="st4" d="M547.4,85.7c-0.2,0.1,0,0.3,0.2,0.3c0.3-0.1,0.4,0.2,0.5,0.4c0,0.1,0.2,0.1,0.2,0
				C548.6,85.8,547.8,85.4,547.4,85.7z"/>
			<path class="st4" d="M548.6,84c0.1,0,0.2-0.1,0.1-0.2c-0.1-0.1-0.2-0.1-0.3-0.2c-0.2-0.1-0.3,0.2-0.1,0.3
				C548.4,83.9,548.5,83.9,548.6,84z"/>
			<path class="st4" d="M415.7,85.5c0,0.1,0.1,0,0.2,0c0-0.2-0.1-0.4-0.2-0.6c-0.1-0.1-0.2-0.2-0.3-0.3c0,0-0.1-0.1-0.1-0.1
				c0,0-0.1-0.1-0.1-0.1c0,0,0,0,0,0l0,0c0.1-0.1,0.1-0.2,0-0.3c-0.3-0.1-0.5,0.2-0.3,0.5C415,84.9,415.4,85.2,415.7,85.5z"/>
			<path class="st4" d="M414.5,87.6c0.2,0.1,0.4,0.2,0.6,0.3c0.1,0,0.2-0.1,0.1-0.2c-0.2-0.2-0.3-0.3-0.5-0.4
				C414.5,87.2,414.3,87.5,414.5,87.6z"/>
			<path class="st4" d="M414,131c0.2-0.2,0.4-0.2,0.6-0.3c0.1,0,0.1-0.2,0-0.2c-0.3-0.1-0.7,0.1-0.8,0.4
				C413.7,130.9,413.9,131.1,414,131z"/>
			<path class="st4" d="M414.7,133.1c-0.1,0-0.3,0.1-0.4,0.2c-0.2,0.1,0,0.3,0.1,0.3c0.1-0.1,0.2-0.1,0.3-0.2
				C414.9,133.3,414.8,133.1,414.7,133.1z"/>
			<path class="st4" d="M429,137.9L429,137.9c-0.1,0-0.2-0.1-0.3-0.1c-0.3,0-0.8,0.2-0.8,0.5c-0.1,0.4,0,0.9,0.5,1.1
				c0.4,0.2,1,0.1,1.1-0.4C429.6,138.5,429.4,138.1,429,137.9z"/>
			<path class="st4" d="M428.1,135.2C428.1,135.2,428.1,135.2,428.1,135.2c0.6,0.4,1.2-0.3,1-0.8c0,0,0,0,0,0c0,0,0,0,0-0.1
				c0,0,0,0,0,0c-0.1-0.2-0.3-0.4-0.6-0.4c-0.3,0-0.6,0.2-0.7,0.5C427.7,134.7,427.9,135,428.1,135.2z"/>
			<path class="st4" d="M428.1,130.4c0.1,0.4,0.6,0.4,0.8,0.2c0.1-0.1,0.1-0.1,0.1-0.2c0.2-0.1,0.3-0.4,0.3-0.7
				c0-0.1-0.1-0.3-0.1-0.4l0,0c-0.2-0.7-1.1-0.6-1.3,0.1c-0.1,0.1-0.2,0.3-0.2,0.5C427.8,130,427.9,130.2,428.1,130.4z"/>
			<path class="st4" d="M536.3,129.1c0.9,0,0.9-1.4,0-1.4C535.3,127.7,535.3,129.1,536.3,129.1z"/>
			<path class="st4" d="M536.3,133.4c0.5,0,0.8-0.3,0.8-0.8c0.1-0.2,0-0.5-0.1-0.7c-0.1-0.1-0.1-0.1,0,0c0,0,0,0,0,0
				c0,0-0.1-0.1-0.1-0.1c0,0,0,0,0,0c-0.3-0.3-0.7-0.4-1.1,0c-0.2,0.2-0.3,0.5-0.3,0.7C535.4,133,535.8,133.4,536.3,133.4z"/>
			<path class="st4" d="M536.5,136.3c-1.2,0-1.2,1.8,0,1.8C537.7,138.1,537.7,136.3,536.5,136.3z"/>
		</g>
	</g>
</g>
<path class="st3" d="M532.9,579.3c-3.3,0.3-6.6,0.1-9.8,0.5c-3.3,0.4-6.4,2-9.1,3.9c-5.2,3.7,0.3,11,5.4,7
	c4.4-3.4,8.5-8.4,13.7-10.5C533.5,580,533.5,579.2,532.9,579.3z"/>
<path class="st3" d="M529,590.4c-3.1,3.1-8.3,7.4-8.7,12c-0.2,2.7,3.8,3.6,5,1.3c1.1-2,0.9-4.3,1.4-6.4c0.5-2.4,1.4-4.5,2.7-6.6
	C529.6,590.5,529.2,590.2,529,590.4z"/>
<g>
	<g>
		<path class="st3" d="M490.5,303.2c-5.6,2.4-9.1,0.1-18.9,0.1c-8,0.4-15.3-0.1-23.2,4.2c-9.5,5.5-18.6,14-26.4,23.9
			c11.1-0.4,22.3-2.2,39.8-5.8c5.3-3.7,11.3,10.1-3.4,14.1c-16.9,4.8-32.7,3-44.7,3.4c-4.5,6.8-8,13.8-10.8,21.1
			c-4,10.4-1.6,25.6,6.5,29c8.9,3.7,24.5-0.1,30.5-4.6c12-8.5-1.6,13.5-16,19.5c-8.2,3.7-20.8,3.4-26.9-1.5
			c-5.2-4-19.3-13.4-11-41.7c1.9-7,5.1-13.7,9.1-20.4c-3.6,0.4-5.9,0.4-7.7,0.9c-2.8,0.4-5.5-2.4-3.7-6.4c2.8-5.6,6.2-6.8,20.1-7.3
			c7-8.9,15.2-16.9,24.2-23.9h-0.1c-5.2,3.6-12.9-8.3,1.9-12.2c5.9-1.6,28.2-3,33.7-3.4c1.8,0,3.6-0.1,5.8-0.3
			c5.9-0.4,19.6-1.2,24.5,0C499.1,293.4,496.9,300.3,490.5,303.2z"/>
		<path class="st3" d="M476,351.7c-0.9,1.2-6.5,7.9-13.7,28.5c12-8.8,28.1-28.2,34.3-27.8c6.4,0.4,9.1,4.9,5.6,12.5
			c-3.6,7.9-5.2,21.2-1.3,20.1c3.9-1.2,14.3-7.3,18.9-10.4c4.6-2.7,2.7,4.5-5.6,11.9c-8.3,7.6-14.3,13.4-21.7,12.2
			c-7.4-1.2-7.9-23.2-3.1-31c-2.1-1.2-14.6,15.2-23.3,24.8c-9.1,9.5-12.3,10.5-16.3,10.1c-3.7-0.4-7-11.4-4.6-15.2
			c2.4-4,4.2-5.1,8.6-16.8c4.3-11,8.3-21.8,9.2-23.9c1-2.2,5.1-3.6,10.3-0.7C475.4,347.1,477,350.1,476,351.7z"/>
		<path class="st3" d="M553.3,354.7c-1.2,3.6-8.8,20.5-16.3,37.3c-1,3.3-7.6,14-9.2,16.3c-15.3,26.3-28.5,34.9-42.6,38
			c-10.7,2.4-27.6-11.4-20.9-28.1c10.8-28.2,53.8-38.3,33.4-22.7c-20.5,15.3-26.1,38.2-18.1,38.2c12.8,0,25.7-9.7,44-47.4
			c6.4-14.4,9.4-24.4,11.3-28.7c1.9-3.9,4-10.5,6.5-10.5C543.8,347.1,555.3,348.3,553.3,354.7z M561.7,334.2
			c-2.8,2.8-7.3,3.9-10.4,2.5c-3.1-1.6-3.1-4.6-4.2-7c-0.7-2.4-4.2-7.7-1.6-8.8c4.6-1.6,11.1-3.6,14.7,0
			C563.7,325,564.5,331.4,561.7,334.2z"/>
		<path class="st3" d="M589.4,378.9c-3.3,12-18.1,20.8-27.8,18.7c-9.7-1.9-9.8-14.1-5.8-19.8c4-5.6,12.6-16.6,18-17.8l1.6-0.4
			c-0.4-0.7-0.9-1.3-1.6-1.8c-4.8-3.9,1.5-3.3,3.9-1.6C580.1,358.1,592.7,366.9,589.4,378.9z M576.5,378.5c1-1.3,1.6-4.2,1.6-7.1
			c-4.3,3.9-9.7,10.4-10.1,11.9C567.8,385,573.7,382.5,576.5,378.5z"/>
		<path class="st3" d="M646.9,385.2c5.2-0.6,3.3,3-5.6,6.1l-4.8,1.5c-2.8,7.6-5.8,14.6-8.8,19.8c-14.3,24.4-38.6,31.5-49.8,33.9
			c-8.2,1.9-16.6-8.2-12-21.7c3.9-11.3,25.4-25.1,60.5-34.6c3.4-8.5,5.2-16,6.4-20.6c-9.5,7.3-16,13.4-22.6,15.2
			c-6.5,1.9-16.2-4.8-14.3-12c1.3-4.3,9.1-13.5,15.2-17.2c5.2-3.1,6.7-3,9.1-2.5c3.7,0.9,1.8,3,0,5.5c-2.4,3-16.2,19.6-3.1,14.3
			c5.9-2.4,14.7-12,18.1-15.9c0.3-2.5,0.9-3.4,1.6-3c2.5,1.2,9.7,2.8,9.2,8.2c-0.4,3.1-3.4,13.7-7.4,25.1L646.9,385.2z M623.6,396.9
			c-9.7,3.1-20.9,7.7-31,14.3c-17.5,11.6-23,25-16.9,24.5c5.9-0.4,30.9-8.9,41.4-26.1C619.6,405.4,621.8,401.2,623.6,396.9z"/>
	</g>
	<g>
		<path class="st3" d="M436.9,454c-1,3.3-3.6,4.2-12.3,4.5c-1.4,0-3,0.1-4.7,0.2c-4,6.8-12.5,21.2-18.4,33.2
			c-7.5,15.6-7.1,19.5-7.3,20.7c0,1.1-0.5,3.3-3,3c-1.7,0-4.5-3-2.3-10.2c2.4-7.2,16.3-34.4,19.3-40.1c1-1.8,2-3.8,3-5.8
			c-7.7,0.8-16.3,2-23.9,3.8c-1.2,3-8.4-5.4,1.6-7.2c6.2-1.2,17-2,25.7-2.7c1.1-1.7,2.1-2.8,3-3.1c1-0.3,3.2,1,4.1,2.6
			c2-0.2,3.6-0.3,4.7-0.5c6.4-0.6,6.9-1.1,7.9-2.1C435.5,449.3,437.8,450.7,436.9,454z"/>
		<path class="st3" d="M435.1,463.2c-0.5,0.8-15.5,26.8-19.5,38.4c5.5-6.4,16.9-13.6,20.6-13.4c3.6,0.2,5.1,2.7,3.2,7.1
			c-2,4.3-2.7,6.4-0.4,5.7c2.2-0.6,8-4.1,10.6-5.8c2.6-1.6,1.4,2.5-3.2,6.7c-4.7,4.2-8,7.4-12.2,6.8c-4.2-0.6-4.8-7.5-2.1-12
			c-1.1-0.8-7.7,3-12.7,8.4c-5.1,5.5-8.3,9-10.5,8.8c-2.3-0.2-3.9-6.4-2.7-8.6c1.2-2.2,13-25.4,16.4-31.5c3.4-6.1,6.2-12.4,6.6-13.6
			c0.5-1.1,1.5-1.9,4.3-0.3C434.7,460.6,435.6,462.4,435.1,463.2z"/>
		<path class="st3" d="M475.2,500.7c-2.3,1.4-15.5,8.3-20.8,9.6c-5.5,1.2-7.7-3-7.1-6.1c0.6-3,3.6-9.3,7.7-13.2
			c3.9-3.6,7.1-4.2,8.6-3.9c2.1,0.2,5.1,3.7,5.5,6.8c0.2,3.1-4.4,5.6-7.4,7.1c-3,1.4-5.5,3.3-7.5,0.1c-0.6,0.8-1.9,3.4,2,3.2
			c3.9-0.2,12.8-3.3,18.1-6.4C479.7,494.8,477.4,499.3,475.2,500.7z M457.7,497.1c1.4-0.4,4.4-1.7,4.8-3.6
			C460.1,494.4,459.2,495.3,457.7,497.1z"/>
		<path class="st3" d="M553.1,454c-1,3.3-3.6,4.2-12.3,4.5c-1.4,0-3,0.1-4.7,0.2c-4,6.8-12.5,21.2-18.4,33.2
			c-7.5,15.6-7.1,19.5-7.3,20.7c0,1.1-0.5,3.3-3,3c-1.7,0-4.5-3-2.3-10.2c2.4-7.2,16.3-34.4,19.3-40.1c1-1.8,2-3.8,3-5.8
			c-7.7,0.8-16.3,2-23.9,3.8c-1.2,3-8.4-5.4,1.6-7.2c6.2-1.2,17-2,25.7-2.7c1.1-1.7,2.1-2.8,3-3.1c1-0.3,3.2,1,4.1,2.6
			c2-0.2,3.6-0.3,4.7-0.5c6.4-0.6,6.9-1.1,7.9-2.1C551.7,449.3,553.9,450.7,553.1,454z"/>
		<path class="st3" d="M546.5,498.9c-1.4,0-4.9-1.1-4.5-3.2c0.2-2-1.2-2.6-2.8-1.7c-0.5,0.3-1.9,0.9-3.3,1.6
			c-1.5,2.7-2.5,4.7-3.1,6.7c-1.7,4.1,0.2,6.2-5.1,9c-2.1,1.1-3.8,1.3-4.6-0.8c-1.9-4.8,6.4-17.1,7.4-19.6c1.1-2.5,0.5-3.6,2.2-4.9
			c2.4-1.7,3.4-2.5,4.5-0.8c1,1.6,4.3,0.1,1.7,4.9c3-2.1,6.1-4.2,7.6-4.2c2.5,0,0.8,4.3,1.1,7.7C548,497.2,547.9,498.9,546.5,498.9z
			"/>
		<path class="st3" d="M574.9,497.7c-2.5,2.2-16.2,12.5-19.1,13.2c-2.9,0.8-5.8-1.8-5.5-6.1c0.4-4.1,3.8-12.1,5.8-14.6
			c2-2.5,2.6-2.5,3.2-2.5c1.4,0,4.4,3.3,4.2,4.5c-0.1,1.2-0.6,1.3-2,2.1c-1.3,1-6.3,10.5-4.1,9.9s14-7.2,16.6-8.8
			C576.6,493.8,577.4,495.4,574.9,497.7z M560,483.4c-1-1.7-1.7-4.9-0.6-5.2c1.3-0.5,4.1-1.2,4.5-1.2c1.3-0.2,2.3,2.3,3.3,3.4
			c0.9,1.1-0.5,1.6-1.7,2.6C564.2,483.9,560.8,485.2,560,483.4z"/>
		<path class="st3" d="M605.1,500.5c-1.9,0.8-5.8,2-8.9,3c-1.8,1.8-3.9,3.5-6.3,4.8c-6.7,3.9-9.8,6.1-12.2,2
			c-2.4-4.1,5.2-9.9,14.8-12.2c2.1-1.5,2.7-4.3,1.4-5.5c-0.5-0.5-5.3,0.2-15.8,11.8c-0.4,0.5-0.8,0.8-1.1,1.1
			c-3,7.6-13.8,30-14.7,32.7c-1.1,3.3-1.4,4.9-3.1,4.4c-1.8-0.4-3-5.3-1.3-8.6c2.5-5.1,16.5-38.8,17.7-41.3c1-2.4,2.7-4.3,3.6-4.5
			c2.4-0.4,3.9,1.8,4.9,2.7c0.2,0.2,0.1,0.6-0.2,1.4c3.1-2.4,4.8-4.7,9.5-5.3c6.4-0.8,8.8,1.7,8.6,6.7c0,0.9-0.3,2-1,3.5
			c2.6-0.6,8.5-0.8,10.2,0.2C613,498.5,607.8,499.5,605.1,500.5z"/>
	</g>
	<path class="st3" d="M604.9,327.2c-4.3,7.1-7.6,13.9-10.1,21.9c-0.1,0.2,0.3,0.4,0.4,0.2c4.1-6,9.9-11.9,16.2-15.6
		C618.1,329.8,609,320.5,604.9,327.2z"/>
	<path class="st3" d="M585.5,331.6c-0.3,2,0,3.7,0.4,5.6c0.5,2.1,0.6,4.3,0.8,6.4c0,0.4,0.6,0.5,0.7,0.1c0.6-2,1.2-4.2,2-6.1
		c0.8-1.7,1.6-3.4,1.6-5.3C591.3,329.1,586.1,328.3,585.5,331.6z"/>
	<path class="st3" d="M578.8,340.9c0.1-0.8-0.2-1.7-1.1-1.9c0,0-0.1,0-0.1,0c-0.6-0.1-1.2,0.1-1.5,0.6c0,0,0,0.1-0.1,0.1
		c-0.3,0.5-0.3,1.4,0.2,1.8c0.4,0.3,0.6,0.5,0.8,0.9c0.2,0.3,0.6,0.5,1.1,0.4c0.4-0.1,0.7-0.5,0.7-0.9
		C578.9,341.6,578.8,341.3,578.8,340.9z"/>
	<path class="st3" d="M374.6,414.2c-3.4,0.3-6.9,0.1-10.3,0.6c-3.5,0.5-6.8,2.6-9.6,5c-5.5,4.7,0.3,14.2,5.7,9.1
		c4.6-4.4,8.9-10.9,14.4-13.6C375.2,415.1,375.2,414.1,374.6,414.2z"/>
	<path class="st3" d="M370.5,428.6c-3.3,4-8.7,9.6-9.1,15.6c-0.2,3.4,4,4.7,5.2,1.7c1.1-2.6,1-5.5,1.5-8.4c0.6-3.1,1.4-5.8,2.8-8.6
		C371.1,428.7,370.7,428.4,370.5,428.6z"/>
	<path class="st3" d="M633.5,484.3c-7.9-3.2-14.7-0.8-22.3,2c-0.5,0.2-0.4,0.9,0.1,0.9c6.4,0.7,12,4.7,17.9,7.3
		C636.6,497.7,641,487.3,633.5,484.3z"/>
	<path class="st3" d="M633.2,505.1c-3-2.6-7.2-3.2-10.3-5.7c-0.4-0.3-1.1,0.1-0.7,0.6c2.5,3.3,2.9,7.6,5.5,10.8
		c1.3,1.7,4.2,1.4,5.6,0C634.6,509.3,634.8,506.5,633.2,505.1z"/>
	<path class="st3" d="M434.3,288.4c-1.5-3-3.1-6-4.6-9.1c-1.6-3.5-3.3-6.6-7.6-6.7c-2.4-0.1-5,2.3-4.8,4.8c0.4,3.8,3.9,5.2,7.2,5.8
		c3.6,0.7,6.9,3,9.4,5.6C434.1,288.9,434.4,288.7,434.3,288.4z"/>
	<path class="st3" d="M436.9,268.8c-1.9-2.2-6.1,0.1-5,2.9c1.4,3.8,4.8,6.1,5.4,10.2c0.1,0.4,0.7,0.4,0.7,0
		C438.8,277.4,440.1,272.6,436.9,268.8z"/>
	<path class="st3" d="M666.8,366.5c-1.4,2.9-2.3,5.9-4.1,8.7c-1.9,2.9-4.3,5.8-7.4,7.5c-0.1,0.1,0,0.3,0.1,0.2
		c7-1.8,15.2-6.3,16.5-14.3C672.2,365.8,668.3,363.5,666.8,366.5z"/>
	<path class="st3" d="M677.9,371.8c-1.1,2-1.6,3.9-3.2,5.6c-1.6,1.6-3.5,3.3-5.6,4.1c-0.5,0.2-0.3,0.8,0.2,0.7
		c5.1-0.7,10.8-3.6,12.8-8.7C682.9,371.2,679.1,369.6,677.9,371.8z"/>
</g>
</svg>
